<svg width="83" height="84" viewBox="0 0 83 84" fill="none" xmlns="http://www.w3.org/2000/svg">
<path fill-rule="evenodd" clip-rule="evenodd" d="M47.4028 20.6416C58.1916 19.4002 66.4505 2.76146 76.2367 7.71996C85.4277 12.3769 82.7888 27.4514 82.0483 38.1959C81.3748 47.9671 78.125 56.8942 72.3209 64.533C65.6227 73.3484 58.0956 84.1142 47.4028 83.7928C36.7925 83.4739 31.2152 71.1682 23.8626 63.0765C16.7655 55.2659 5.89012 49.0249 5.97078 38.1959C6.05126 27.3909 14.7413 17.7243 24.2304 13.7039C31.9768 10.4218 39.1061 21.5962 47.4028 20.6416Z" fill="#FFD1D7"/>
<path d="M35.8573 0.0211691H32.5793C23.7928 0.458043 15.5105 4.25604 9.44627 10.6293C3.38203 17.0025 0 25.4631 0 34.2605C0 43.0578 3.38203 51.5185 9.44627 57.8917C15.5105 64.265 23.7928 68.063 32.5793 68.4999H35.8573C44.6859 68.1198 53.0267 64.3452 59.1394 57.9637C65.2521 51.5822 68.6645 43.0867 68.6645 34.25C68.6645 25.4132 65.2521 16.9177 59.1394 10.5362C53.0267 4.15464 44.6859 0.38007 35.8573 0V0.0211691ZM58.465 13.7465C56.0185 15.5883 53.3638 17.1358 50.5555 18.3569C48.1495 12.5071 44.4387 7.28443 39.7063 3.08766C47.0211 4.31561 53.6658 8.09122 58.465 13.7465ZM35.7304 3.17227C41.2071 7.3551 45.4763 12.9159 48.1022 19.2874C44.1273 20.7039 39.9494 21.4681 35.7304 21.5503V3.17227ZM35.7304 24.215C40.2622 24.133 44.7495 23.3042 49.0116 21.7618C50.3067 25.708 50.9774 29.8323 50.9996 33.9856H35.7304V24.215ZM35.7304 36.6503H50.915C50.6707 40.7143 49.8005 44.7162 48.3349 48.5146C44.2378 47.1668 39.9586 46.4536 35.6458 46.3997L35.7304 36.6503ZM28.6456 3.10883C24.0791 7.15925 20.4677 12.1719 18.0714 17.7859C15.4583 16.5372 12.9903 15.0054 10.7118 13.2178C15.4091 7.97161 21.7184 4.43748 28.6456 3.17227V3.10883ZM9.08329 15.2692C11.5628 17.2449 14.2676 18.9202 17.1409 20.2602C15.6078 24.6821 14.8146 29.3266 14.7934 34.0067H2.78109C2.80243 27.2635 5.01417 20.7098 9.08329 15.3326V15.2692ZM10.0773 54.3939C5.88979 49.3795 3.36911 43.1849 2.86571 36.6714H14.878C15.1335 41.2215 16.1263 45.6998 17.8176 49.9315C15.079 51.151 12.4832 52.6688 10.0773 54.4573V54.3939ZM11.8749 56.3607C14.0622 54.7814 16.4083 53.4348 18.875 52.3425C21.2403 57.2688 24.5616 61.6756 28.6456 65.3065C22.28 64.1264 16.4278 61.0268 11.8749 56.4241V56.3607ZM33.0234 65.518C28.0396 61.7956 24.0158 56.938 21.286 51.3485C25.0566 49.9747 29.0144 49.1831 33.0234 49.001V65.518ZM33.0234 46.3574C28.645 46.5443 24.3219 47.4076 20.2074 48.9164C18.6413 45.002 17.72 40.8595 17.4792 36.6503H33.0234V46.3574ZM33.0234 33.9856H17.3947C17.4024 29.6688 18.1168 25.3824 19.5095 21.2965C23.8157 22.9965 28.3766 23.9616 33.0023 24.1515L33.0234 33.9856ZM33.0234 21.5291C28.7237 21.3298 24.4865 20.4223 20.4823 18.8433C23.1731 12.509 27.5017 7.00518 33.0234 2.89733V21.5291ZM35.6669 65.243V49.0433C39.5993 49.1209 43.4981 49.7838 47.2351 51.0101C44.5934 56.6237 40.649 61.5252 35.7304 65.3065L35.6669 65.243ZM39.664 65.391C43.9235 61.6228 47.3579 57.0147 49.7518 51.856C52.4117 52.9278 54.9382 54.3046 57.2807 55.9588C52.6035 60.93 46.4477 64.2601 39.7275 65.4545L39.664 65.391ZM59.036 53.9498C56.4668 52.122 53.6913 50.6029 50.767 49.424C52.3424 45.3287 53.2631 41.0109 53.4951 36.6292H65.8881C65.4403 42.9782 63.0728 49.041 59.0995 54.0132L59.036 53.9498ZM65.9727 33.9856H53.6431C53.642 29.5024 52.9282 25.0479 51.5283 20.7889C54.5919 19.4683 57.4825 17.7779 60.1357 15.7556C63.9658 21.079 66.0295 27.4698 66.0362 34.0279L65.9727 33.9856Z" fill="#665F5F"/>
</svg>
