<svg width="78" height="86" viewBox="0 0 78 86" fill="none" xmlns="http://www.w3.org/2000/svg">
<path fill-rule="evenodd" clip-rule="evenodd" d="M45.687 12.2595C56.4421 11.2306 67.4939 16.9477 73.8284 25.7357C79.5596 33.6867 77.4569 44.3255 75.7692 53.9932C74.4357 61.6319 71.1372 68.5921 65.434 73.8216C60.0083 78.7966 52.9044 80.1947 45.687 81.5769C35.7825 83.4737 25.2665 88.3965 16.6324 83.1675C6.71897 77.1638 -1.1375 65.5467 0.140469 53.9932C1.3727 42.8531 14.1957 38.2069 22.4413 30.6516C30.0166 23.7104 35.4779 13.2362 45.687 12.2595Z" fill="#FFD1D7"/>
<path d="M43.3088 28.1526L27.5595 43.752L20.1304 36.3953" stroke="#665F5F" stroke-width="2" stroke-linecap="round" stroke-linejoin="round"/>
<path d="M31.968 63.0001C47.2 63.0001 59.548 50.7696 59.548 35.6826C59.548 20.5957 47.2 8.36523 31.968 8.36523C16.7359 8.36523 4.38794 20.5957 4.38794 35.6826C4.38794 50.7696 16.7359 63.0001 31.968 63.0001Z" stroke="#665F5F" stroke-width="2" stroke-linecap="round" stroke-linejoin="round"/>
<path d="M32.184 56.6693C43.9255 56.6693 53.4438 47.2416 53.4438 35.6119C53.4438 23.9822 43.9255 14.5544 32.184 14.5544C20.4424 14.5544 10.9241 23.9822 10.9241 35.6119C10.9241 47.2416 20.4424 56.6693 32.184 56.6693Z" stroke="#665F5F" stroke-width="2" stroke-linecap="round" stroke-linejoin="round"/>
<path d="M58.4442 17.6607L62.7455 12.8596L48.5626 1L44.3889 5.90891L58.4442 17.6607ZM5.3013 17.6607L1 12.8596L15.1812 1L19.3566 5.90891L5.3013 17.6607Z" stroke="#665F5F" stroke-width="2" stroke-linecap="round" stroke-linejoin="round"/>
</svg>
