<svg width="81" height="56" viewBox="0 0 81 56" fill="none" xmlns="http://www.w3.org/2000/svg">
<path fill-rule="evenodd" clip-rule="evenodd" d="M51.4278 6.26516C57.8668 5.06068 63.95 -2.19247 69.8475 0.65889C75.5136 3.39834 74.0633 12.1174 75.9504 18.1214C77.5719 23.2805 80.7621 28.0771 80.154 33.4507C79.5381 38.8936 76.5593 43.8799 72.6066 47.672C68.8481 51.2776 63.7991 53.0457 58.6874 54.0444C53.9154 54.9767 49.2832 53.3008 44.4225 53.1784C37.4445 53.0026 28.8464 58.0993 23.9061 53.1682C19.0974 48.3685 24.9105 39.9807 24.4116 33.2048C23.9614 27.0901 18.4985 21.0218 21.1313 15.4846C23.7685 9.93826 31.0862 8.59847 36.9616 6.81058C41.6735 5.37671 46.5865 7.17078 51.4278 6.26516Z" fill="#FFD1D7"/>
<path d="M19.156 44.7531C20.5507 44.7531 21.8884 44.1991 22.8746 43.2128C23.8608 42.2266 24.4149 40.889 24.4149 39.4943C24.4149 38.0995 23.8608 36.7619 22.8746 35.7757C21.8884 34.7895 20.5507 34.2354 19.156 34.2354C17.7613 34.2354 16.4237 34.7895 15.4374 35.7757C14.4512 36.7619 13.8972 38.0995 13.8972 39.4943C13.8972 40.889 14.4512 42.2266 15.4374 43.2128C16.4237 44.1991 17.7613 44.7531 19.156 44.7531V44.7531ZM45.4503 44.7531C46.845 44.7531 48.1826 44.1991 49.1689 43.2128C50.1551 42.2266 50.7092 40.889 50.7092 39.4943C50.7092 38.0995 50.1551 36.7619 49.1689 35.7757C48.1826 34.7895 46.845 34.2354 45.4503 34.2354C44.0556 34.2354 42.718 34.7895 41.7317 35.7757C40.7455 36.7619 40.1914 38.0995 40.1914 39.4943C40.1914 40.889 40.7455 42.2266 41.7317 43.2128C42.718 44.1991 44.0556 44.7531 45.4503 44.7531V44.7531Z" stroke="#665F5F" stroke-width="1.5" stroke-miterlimit="1.5" stroke-linecap="round" stroke-linejoin="round"/>
<path d="M24.5463 39.4943H37.562V12.1483C37.562 11.7299 37.3958 11.3286 37.0999 11.0327C36.8041 10.7368 36.4028 10.5706 35.9843 10.5706H0.75M12.9768 39.4943H7.58651C7.37933 39.4943 7.17418 39.4535 6.98277 39.3742C6.79136 39.295 6.61744 39.1788 6.47094 39.0323C6.32444 38.8858 6.20823 38.7118 6.12895 38.5204C6.04966 38.329 6.00886 38.1239 6.00886 37.9167V25.0325" stroke="#665F5F" stroke-width="1.5" stroke-linecap="round"/>
<path d="M3.37943 18.4589H13.8971" stroke="#665F5F" stroke-width="1.5" stroke-linecap="round" stroke-linejoin="round"/>
<path d="M37.562 18.4589H52.3131C52.6181 18.4589 52.9165 18.5474 53.1722 18.7135C53.4279 18.8797 53.63 19.1163 53.754 19.3949L58.4607 29.9863C58.5504 30.1874 58.597 30.405 58.5974 30.6252V37.9166C58.5974 38.1238 58.5566 38.329 58.4774 38.5204C58.3981 38.7118 58.2819 38.8857 58.1354 39.0322C57.9889 39.1787 57.8149 39.2949 57.6235 39.3742C57.4321 39.4535 57.227 39.4943 57.0198 39.4943H52.0239M37.562 39.4943H40.1914" stroke="#665F5F" stroke-width="1.5" stroke-linecap="round"/>
</svg>
