<svg width="14" height="12" viewBox="0 0 14 12" fill="none" xmlns="http://www.w3.org/2000/svg">
<path fill-rule="evenodd" clip-rule="evenodd" d="M4.74008 9.76028C5.38695 9.76028 5.91272 10.2345 5.91272 10.8179C5.91272 11.4014 5.38695 11.8742 4.74008 11.8742C4.09321 11.8742 3.56897 11.4014 3.56897 10.8179C3.56897 10.2345 4.09321 9.76028 4.74008 9.76028Z" fill="#665F5F"/>
<path fill-rule="evenodd" clip-rule="evenodd" d="M10.8927 9.76028C11.5396 9.76028 12.0654 10.2345 12.0654 10.8179C12.0654 11.4014 11.5396 11.8742 10.8927 11.8742C10.2459 11.8742 9.72009 11.4014 9.72009 10.8179C9.72009 10.2345 10.2459 9.76028 10.8927 9.76028Z" fill="#665F5F"/>
<path d="M0.600098 0.600082L1.9001 0.803016L3.43947 7.2704C3.48822 7.79746 3.97635 8.2022 4.5626 8.2022H10.4451C11.0051 8.2022 11.4801 7.83128 11.5607 7.33071L12.9439 2.99576C13.017 2.53972 12.6252 2.1316 12.1145 2.1316L3.04635 2.76978" stroke="#665F5F" stroke-width="1.2" stroke-linecap="round" stroke-linejoin="round"/>
</svg>
