<svg width="73" height="56" viewBox="0 0 73 56" fill="none" xmlns="http://www.w3.org/2000/svg">
<path fill-rule="evenodd" clip-rule="evenodd" d="M41.8717 49.0587C35.4328 50.2632 29.3496 57.5163 23.452 54.665C17.786 51.9255 19.2362 43.2064 17.3492 37.2024C15.7277 32.0433 12.5375 27.2468 13.1456 21.8731C13.7614 16.4303 16.7402 11.4439 20.693 7.65187C24.4515 4.04624 29.5005 2.27817 34.6122 1.27948C39.3841 0.347165 44.0164 2.02301 48.8771 2.14545C55.855 2.32123 64.4531 -2.77547 69.3935 2.15565C74.2022 6.95538 68.389 15.3432 68.8879 22.119C69.3382 28.2337 74.8011 34.3021 72.1682 39.8393C69.5311 45.3856 62.2133 46.7254 56.338 48.5133C51.6261 49.9471 46.713 48.1531 41.8717 49.0587Z" fill="#FFD1D7"/>
<path fill-rule="evenodd" clip-rule="evenodd" d="M22.6763 12.8542C17.7944 15.0685 13.6783 16.946 13.5296 17.0264C13.3523 17.1221 13.2272 17.2689 13.167 17.4518C13.0761 17.7277 13.1269 17.8246 17.2058 25.1565C19.4835 29.2508 21.4288 32.6583 21.5423 32.7524C22.0029 33.1338 22.8309 32.8018 22.8309 32.2357C22.8309 32.0644 21.6635 29.9024 18.9171 24.988C16.7645 21.1361 15.0161 17.9751 15.0317 17.9635C15.1386 17.8844 31.3323 10.5611 31.3536 10.5822C31.3684 10.5969 31.5962 11.001 31.8599 11.4802C32.7182 13.0404 33.0843 13.585 33.3384 13.6799C33.8359 13.8658 34.424 13.5302 34.424 13.0605C34.424 12.9334 33.9861 12.0536 33.3708 10.9442C32.405 9.20306 32.2936 9.03652 32.0294 8.93689C31.8708 8.87718 31.6987 8.82831 31.6469 8.82831C31.595 8.82831 27.5583 10.6399 22.6763 12.8542ZM5.02126 12.3182C4.81334 12.3533 3.64966 12.828 2.43541 13.3732C0.459631 14.26 0.213405 14.391 0.0928537 14.619C0.00842578 14.7787 -0.0207244 14.95 0.0148949 15.0777C0.091174 15.3521 0.459212 15.6471 0.728121 15.6494C0.84842 15.6505 1.92422 15.2164 3.11873 14.6848C5.17928 13.7678 5.31537 13.7187 5.77296 13.7282C6.33279 13.7398 6.78568 13.923 7.17631 14.2959C7.34189 14.454 8.97719 17.3062 11.5351 21.8984C17.7966 33.1396 18.1708 33.7914 18.422 33.8946C18.7761 34.0402 19.0454 34 19.3091 33.7621C19.4779 33.6098 19.5546 33.4651 19.5546 33.2988C19.5546 33.1317 18.5001 31.1581 16.1405 26.9094C14.2629 23.5283 12.51 20.3869 12.2454 19.9285C11.9809 19.4701 11.0978 17.8953 10.2831 16.4289C8.68341 13.5496 8.44147 13.217 7.61013 12.754C6.83633 12.3232 5.91334 12.1678 5.02126 12.3182ZM34.718 14.8099C34.4842 14.8963 34.2887 15.1164 34.2223 15.3682C34.1748 15.5483 34.7049 16.547 37.6297 21.7876C39.5345 25.201 41.0763 28.008 41.0559 28.0254C41.0354 28.0427 38.1983 29.3396 34.7512 30.9075C31.3041 32.4752 28.4269 33.8172 28.3575 33.8897C28.0649 34.1948 28.16 34.7835 28.5308 34.9625C28.954 35.1668 29.1635 35.0829 35.9781 31.9794C43.1653 28.7062 43.0523 28.7666 42.9518 28.2544C42.8738 27.8573 35.7817 15.1812 35.5062 14.9467C35.2593 14.7365 35.0264 14.6961 34.718 14.8099ZM25.3795 18.1937C25.1973 18.2748 25.062 18.423 24.9487 18.6655C24.6076 19.3961 23.419 22.8375 23.419 23.0946C23.419 23.4227 23.8019 23.7548 24.1802 23.7548C24.664 23.7548 24.8723 23.4574 25.398 22.016L25.8802 20.6941L27.7664 24.0997C28.8037 25.9728 29.729 27.5803 29.8226 27.6719C30.1587 28.001 30.8322 27.9332 31.0612 27.5474C31.2657 27.2027 31.14 26.9227 29.2575 23.5275C28.2179 21.6526 27.3673 20.1095 27.3673 20.0986C27.3673 20.0876 27.9817 20.2607 28.7325 20.4832C29.4833 20.7057 30.239 20.893 30.4117 20.8993C31.2269 20.9293 31.4531 19.8775 30.699 19.5636C30.3904 19.4351 25.8328 18.0713 25.7206 18.0739C25.6791 18.0748 25.5256 18.1287 25.3795 18.1937ZM35.4283 33.7651C32.4779 35.1035 30.0042 36.258 29.9312 36.3308C29.3829 36.8773 29.9056 37.6936 30.6796 37.4997C30.8303 37.462 33.3414 36.3463 36.2598 35.0204C40.8968 32.9138 41.5831 32.5801 41.7006 32.3752C41.966 31.9122 41.5611 31.3317 40.9727 31.3317C40.8737 31.3317 38.3787 32.4267 35.4283 33.7651ZM21.6288 33.9149C21.3604 33.9503 20.8276 34.0766 20.4447 34.1957C18.5666 34.7796 17.1216 35.9277 16.2774 37.5069C15.6921 38.6017 15.5684 39.1085 15.5744 40.3861C15.5787 41.3147 15.6078 41.5318 15.8078 42.1288C16.837 45.2013 20.0273 47.1441 23.4701 46.7946C26.8969 46.4468 29.4812 44.1217 29.885 41.0233C30.1708 38.8298 29.0572 36.4991 27.0972 35.1883C26.2775 34.6401 25.8686 34.4465 24.9731 34.1825C23.861 33.8546 22.7564 33.7662 21.6288 33.9149ZM24.133 35.4729C25.9855 35.8877 27.4266 37.1381 28.0927 38.9086C28.3166 39.5039 28.3162 41.1931 28.0919 41.7878C27.7595 42.6691 27.3605 43.2426 26.6162 43.9093C25.5082 44.9017 24.2895 45.3598 22.7566 45.3598C20.1854 45.3598 18.0373 43.887 17.3256 41.6363C17.1184 40.9811 17.116 39.7397 17.3207 39.0601C18.0152 36.7534 20.4593 35.1563 23.0409 35.3222C23.3644 35.343 23.8558 35.4109 24.133 35.4729ZM21.538 37.0924C20.0743 37.5606 19.1411 38.6032 18.9787 39.9519C18.772 41.6673 19.8895 43.1735 21.7261 43.655C22.0667 43.7444 22.4013 43.767 22.9785 43.7398C23.6808 43.7066 23.8342 43.6715 24.3937 43.4154C26.0287 42.6669 26.852 41.0497 26.3981 39.478C26.1215 38.5205 25.3137 37.6579 24.2879 37.225C23.8004 37.0192 23.6169 36.9848 22.8801 36.9612C22.1819 36.9389 21.9458 36.9619 21.538 37.0924ZM23.587 38.5357C24.051 38.7249 24.4674 39.0753 24.7055 39.4768C24.8432 39.709 24.8852 39.9129 24.8855 40.3482C24.8858 40.9689 24.7856 41.2079 24.3284 41.6776C23.3499 42.6827 21.4466 42.4485 20.7794 41.2409C20.37 40.5 20.554 39.4499 21.1871 38.9134C21.7997 38.3943 22.8391 38.2307 23.587 38.5357Z" fill="#665F5F"/>
</svg>
