<svg width="25" height="25" viewBox="0 0 25 25" fill="none" xmlns="http://www.w3.org/2000/svg">
<path d="M12.375 8.25031C10.1021 8.25031 8.24721 10.1052 8.24721 12.3781C8.24721 14.651 10.1021 16.5059 12.375 16.5059C14.6479 16.5059 16.5028 14.651 16.5028 12.3781C16.5028 10.1052 14.6479 8.25031 12.375 8.25031ZM24.7553 12.3781C24.7553 10.6688 24.7708 8.97492 24.6748 7.26868C24.5788 5.28685 24.1267 3.52797 22.6775 2.07875C21.2251 0.626438 19.4694 0.177428 17.4875 0.0814331C15.7782 -0.0145621 14.0843 0.000921071 12.3781 0.000921071C10.6688 0.000921071 8.97492 -0.0145621 7.26868 0.0814331C5.28685 0.177428 3.52797 0.629534 2.07875 2.07875C0.626438 3.53106 0.177428 5.28685 0.0814331 7.26868C-0.0145621 8.97801 0.000921071 10.6719 0.000921071 12.3781C0.000921071 14.0843 -0.0145621 15.7813 0.0814331 17.4875C0.177428 19.4694 0.629534 21.2282 2.07875 22.6774C3.53106 24.1298 5.28685 24.5788 7.26868 24.6748C8.97801 24.7708 10.6719 24.7553 12.3781 24.7553C14.0874 24.7553 15.7813 24.7708 17.4875 24.6748C19.4694 24.5788 21.2282 24.1267 22.6775 22.6774C24.1298 21.2251 24.5788 19.4694 24.6748 17.4875C24.7739 15.7813 24.7553 14.0874 24.7553 12.3781ZM12.375 18.7293C8.86034 18.7293 6.02384 15.8928 6.02384 12.3781C6.02384 8.86344 8.86034 6.02694 12.375 6.02694C15.8897 6.02694 18.7262 8.86344 18.7262 12.3781C18.7262 15.8928 15.8897 18.7293 12.375 18.7293ZM18.9863 7.2501C18.1657 7.2501 17.503 6.58743 17.503 5.76682C17.503 4.94622 18.1657 4.28354 18.9863 4.28354C19.8069 4.28354 20.4696 4.94622 20.4696 5.76682C20.4698 5.96168 20.4316 6.15467 20.3572 6.33474C20.2827 6.51481 20.1734 6.67842 20.0357 6.8162C19.8979 6.95399 19.7343 7.06324 19.5542 7.13769C19.3741 7.21215 19.1811 7.25035 18.9863 7.2501Z" fill="#665F5F"/>
</svg>
