<svg width="25" height="25" viewBox="0 0 25 25" fill="none" xmlns="http://www.w3.org/2000/svg">
<path d="M4.52039 0C2.0163 0 0 2.01629 0 4.52039V20.2362C0 22.7403 2.0163 24.7565 4.52039 24.7565H13.0382V15.0783H10.479V11.5938H13.0382V8.61683C13.0382 6.27796 14.5503 4.13048 18.0336 4.13048C19.4439 4.13048 20.4868 4.26587 20.4868 4.26587L20.4048 7.51982C20.4048 7.51982 19.3412 7.50977 18.1806 7.50977C16.9245 7.50977 16.723 8.08853 16.723 9.04933V11.5938H20.5046L20.3398 15.0783H16.723V24.7566H20.2361C22.7402 24.7566 24.7565 22.7403 24.7565 20.2362V4.52042C24.7565 2.01632 22.7402 2.47565e-05 20.2361 2.47565e-05H4.52037L4.52039 0Z" fill="#665F5F"/>
</svg>
