<svg width="133" height="147" viewBox="0 0 133 147" fill="none" xmlns="http://www.w3.org/2000/svg">
<path d="M15.6551 116.916L13.8378 113.788C34.3357 110.958 50.1176 113.713 55.4463 115.444L46.7361 119.676C28.2378 115.653 18.3078 116.16 15.6551 116.916Z" fill="url(#paint0_linear_378_29)"/>
<path d="M33.48 128.316C30.5489 126.034 22.9326 123.317 19.4908 122.244C19.9905 123.026 22.8354 126.156 24.1955 127.623L28.9835 132.229L33.48 128.316Z" fill="url(#paint1_linear_378_29)"/>
<path d="M15.4867 116.763L17.3837 119.663L22.3219 119.88L27.2349 120.613L35.6451 122.488L39.6005 124.119L46.8449 119.88L44.8048 119.309L39.1841 118.127L32.2311 117.231L26.1524 116.763L19.3242 116.497L15.4867 116.763Z" fill="url(#paint2_linear_378_29)"/>
<path d="M64.1565 111.83C39.9564 106.009 19.6169 108.841 12.4722 110.984L13.5958 113.691C37.9341 111.39 51.682 113.917 55.5137 115.468L64.1565 111.83Z" fill="url(#paint3_linear_378_29)"/>
<path d="M45.2079 141.376L40.8527 139.422L46.9538 133.499L54.0082 127.284L64.3251 120.637L76.3174 114.854L86.0171 111.315L94.0047 109.306L102.048 107.849L110.091 107.238H116.595L125.006 107.849L124.3 109.818C93.4482 107.936 66.0866 132.073 55.1889 144.325L52.2128 143.614L45.2079 141.376Z" fill="url(#paint4_linear_378_29)"/>
<path d="M125.071 108.06C82.2929 103.138 51.1806 127.029 40.9717 139.589C35.8154 137.453 31.6973 133.821 29.2703 132.071C65.0349 102.242 105.216 101.968 125.852 106.098L125.071 108.06Z" fill="url(#paint5_linear_378_29)"/>
<path d="M94.2379 66.3121L92.6315 61.2634L94.2379 58.022L96.2172 59.6284L97.4507 63.1567L98.0531 67.5742L94.2379 66.3121Z" fill="url(#paint6_linear_378_29)"/>
<path d="M73.1803 145.318C66.2136 146.149 58.5172 144.972 55.5399 144.28C80.7417 114.467 111.728 108.834 124.071 109.745L123.639 111.043C102.109 112.696 81.0291 134.582 73.1803 145.318Z" fill="url(#paint7_linear_378_29)"/>
<path d="M92.6292 140.383C96.562 133.049 108.179 117.444 122.158 113.702C118.723 120.28 107.803 134.828 92.6292 140.383Z" fill="url(#paint8_linear_378_29)"/>
<path d="M19.6322 122.39L17.284 119.453C29.7033 120.322 37.374 122.795 39.6569 123.923L33.7212 128.201C26.4158 124.267 21.2846 122.688 19.6322 122.39Z" fill="url(#paint9_linear_378_29)"/>
<path d="M123.43 111.179C103.512 111.69 81.6042 134.159 73.1401 145.33C78.0759 145.607 88.2555 142.366 92.7283 140.711L93.2002 139.402L95.6384 135.244L100.829 128.816L103.857 125.351L109.048 120.732L115.34 116.613L121.2 113.802L122.222 113.533L123.43 111.179Z" fill="url(#paint10_linear_378_29)"/>
<path d="M17.8145 53.9941L16.4698 52.9435L21.4334 46.4248L23.9177 48.1186L25.8995 49.875L28.7816 51.2334L32.5998 52.6102L35.8857 53.8768L38.3639 54.4091L42.4391 54.6111L39.8508 55.6941V56.1347L43.3203 58.0622L46.2205 59.8115L47.6918 60.1487L50.052 59.6889L51.4451 58.8153L52.9179 56.9608L54.3586 56.6237V57.1601L53.5157 58.6774L51.4451 60.6391L50.052 61.2215L49.4083 61.7885L49.6842 62.1104L51.8605 62.9993L54.9852 63.7125L58.1457 64.0963L60.7756 65.1023H62.815L65.2477 64.5138L67.0134 63.3661L70.2078 62.6008L72.7224 62.2865L75.4517 61.9722L81.8891 58.6128L82.4146 59.879L76.8614 62.7222L76.7059 63.1443L79.7268 65.8543L82.284 65.5655L83.6585 64.9213L83.8389 63.4108L84.7248 61.7671L86.102 60.7008L87.7235 60.2122L89.6116 60.3454L90.8778 60.8341L92.4549 62.4557L93.4322 64.7436L93.2323 67.241L91.5664 69.5416L88.7897 70.3857L86.5907 69.8572L85.1024 68.3865L84.2361 66.7721H83.8389L82.284 67.241L81.6423 67.6143L81.4695 68.1789L81.8891 69.1168L82.284 69.8572H81.8891L80.4822 68.791L79.3269 67.6143L77.3102 65.7036L75.4517 64.3559L73.1977 64L68.8874 64.7118L62.2937 65.7036L57.6937 66.0038L54.6796 66.0985L54.5228 66.2776L55.6419 68.0379L57.6937 71.1872L58.5643 73.5835H59.3345L61.0119 72.625C62.1895 69.5304 64.1156 68.2775 64.9315 68.0379L65.1027 68.791L64.6748 71.1872L63.2684 73.805L64.2792 74.5256L66.3409 76.2169L67.2016 77.488L66.0907 77.558L64.0661 77.0078L62.8261 76.1575L61.716 75.2482L60.6295 75.0002L59.4346 75.4484L59.0926 76.008V77.5002L59.7144 78.526L61.0201 80.1115L61.362 81.1996L60.7403 81.0441L58.1911 80.1115L58.0046 79.4898L57.6937 76.6919L56.388 72.837L54.7715 69.635L53.2171 67.6143L51.4451 65.718L48.8029 63.5441L45.4847 61.4051L41.9196 59.5951L36.5061 57.5444L33.1235 56.3759L30.2557 55.7439L27.4601 55.6372L23.9177 55.5092L21.9545 55.2745L20.6741 54.869L17.8145 53.9941Z" fill="url(#paint11_linear_378_29)"/>
<path d="M67.559 67.6177H65.9277L65.8266 69.2635L65.6533 70.9237L64.8016 73.3203L66.6351 75.1249L67.9777 77.1749H68.4252L69.638 76.5686L71.3415 75.2259L72.1355 73.6812L72.3088 71.9488L71.7024 70.6494L70.8651 69.9276L69.7968 69.6533H68.714H67.559L66.9816 69.3501L67.4291 68.917L69.5225 68.0075L67.559 67.6177Z" fill="url(#paint12_linear_378_29)"/>
<path d="M59.3164 55.4189L55.7679 56.0235V56.8646V58.7308L56.6616 60.8073L58.633 62.6473L60.8409 63.8038H62.4706L64.4682 63.4884L66.1767 62.3844L67.6224 60.5182L67.8853 59.7822V58.8623L65.4408 56.8646L63.1277 55.8658L59.3164 55.4189Z" fill="url(#paint13_linear_378_29)"/>
<path d="M57.285 51.1313L56.8228 54.1716L57.1001 54.4078L59.9554 54.1716L60.3354 53.9045L59.8938 52.5898L58.9283 51.5011L57.285 51.1313Z" fill="url(#paint14_linear_378_29)"/>
<path d="M53.8164 45.504L51.9989 43.4932L50.4135 43.9959L48.596 45.272L47.2812 47.6308V50.3764L48.4027 53.0059L50.4135 54.63L52.463 55.4421H55.2472L55.5565 53.934L55.9046 50.9177L55.2472 48.2495L53.8164 45.504Z" fill="url(#paint15_linear_378_29)"/>
<path d="M91.2858 59.6188C88.4128 57.809 85.5267 59.336 84.4427 60.3257L83.1137 58.4593L82.9723 56.791L83.1137 55.5468L83.8489 54.0764L85.0648 52.7191L86.4504 51.8425L88.0339 51.6729L89.5609 52.0122L91.0595 53.115L92.0492 54.7833L92.2472 57.0738L91.2858 59.6188Z" fill="url(#paint16_linear_378_29)"/>
<path d="M94.4811 67.7061C93.2821 70.9409 89.7023 71.8062 88.0622 71.8345L88.6843 74.0118L90.5506 75.8216L92.8127 76.6416L95.1032 76.274L96.6584 75.2843L97.3936 73.6725L97.6198 71.8345L97.1108 70.1379L95.8949 68.5826L94.4811 67.7061Z" fill="url(#paint17_linear_378_29)"/>
<path d="M93.3782 58.4595L92.4734 60.2409L92.9258 61.061L93.3782 60.2409L93.8307 59.3644L94.0852 58.9685L95.2728 59.3644V60.2409L93.8307 61.6831V62.1355L94.0852 62.5597L95.9797 61.6831H96.5453L97.026 62.5597L96.7432 63.21L94.6507 63.5494L94.3114 63.7756L94.5093 64.4825L94.9618 64.6805H96.2625L97.4219 65.0481V65.7267L97.1956 66.4902H96.2625L95.2728 65.8964H94.6507V66.4902L96.2625 67.3102L97.4219 68.5261L98.5529 70.1662L99.684 68.5261L100.023 66.8861V65.2743L99.4013 63.7756L97.7329 61.8527L97.9309 60.6086V59.3644L97.4219 58.0071L96.7432 56.8477L95.5273 55.9146L94.3114 55.6035H93.5196L93.3782 58.4595Z" fill="url(#paint18_linear_378_29)"/>
<path d="M65.3822 56.2282L54.7336 45.4198L53.509 41.8525L56.3309 40.5747L64.4771 41.1071L69.9079 46.5912L71.3987 55.6425L65.3822 56.2282Z" fill="url(#paint19_linear_378_29)"/>
<path d="M54.9976 45.2341L56.1882 46.3566L56.3323 43.907L55.8564 42.6558L56.0468 41.7845L57.0937 41.3896L57.7517 42.2408L57.5457 43.907L57.7517 47.3811L58.5652 44.4786V42.4507L58.8836 41.5193L60.0543 41.3896L60.6654 42.0381L60.0543 43.5122L59.0897 47.3811V48.2785L60.6654 45.2607L61.4867 43.112L61.649 41.9469L62.4321 41.7845L63.2725 42.0997L63.5113 42.9496L61.1047 46.8651L60.6176 48.1926L62.6849 45.6182L63.7607 43.907L64.6522 42.8927L65.5948 43.1796L66.0048 44.2241L65.0454 45.0601L62.5063 47.9795L62.1397 48.8293L65.2235 46.5404L66.3611 44.9642L67.3754 45.0601L67.9647 45.8277L67.7865 46.5404L66.5941 47.0749L62.5063 50.287L66.7437 48.4678L67.5423 47.5583L68.8069 47.3364L69.295 48.5788L68.94 49.2887L67.6755 49.4218L62.6395 51.9065L65.8341 51.2188L67.6755 50.6198L68.94 50.287L69.7165 50.7751L69.5612 51.9065L68.8069 52.2615H66.7437L64.4143 52.7495L63.6156 53.2376H66.9212L68.94 52.9492L69.5612 53.5926L69.295 54.7906L68.4741 54.968L66.9212 54.48H65.6344H64.7027L64.8358 54.968L67.2539 56.521L69.1618 58.2071L71.8906 60.2481L74.0647 60.4256L76.5494 59.7156L78.8123 57.8521L79.9438 55.7445L80.2543 52.9492L79.7663 50.7751L79.1229 49.4218L77.3259 47.1367L76.7935 46.2272L77.1041 45.606L77.814 43.9199L78.0802 41.5905L77.814 39.7269L76.4829 37.22L74.7718 35.2756L72.8568 34.023L70.0434 33.136H67.6738L64.3858 34.4683L63.6544 33.6519L61.7156 32.3424L59.4026 31.3389L57.0215 31.0498L54.8275 31.492L52.2764 32.8016L50.5587 35.3697L50.0654 37.9209L50.7457 39.8597L52.7356 42.2408L54.9976 45.2341Z" fill="url(#paint20_linear_378_29)"/>
<path d="M84.0302 62.8621L83.7216 64.8237L84.4049 67.0278L85.4849 68.9232L87.0497 70.1134L89.0774 70.3559L91.1052 69.7828L92.6921 68.24L93.3092 66.3445V64.6254L92.6921 62.8621L91.4798 61.4516L90.3999 60.6581L89.0774 60.3716H87.2701L85.6391 61.0548L84.0302 62.8621Z" fill="url(#paint21_linear_378_29)"/>
<path d="M90.8574 49.9571L90.4753 47.1871V46.7731L92.7677 50.7849L96.3115 47.8604L96.0499 46.0483L95.4708 43.956L93.696 43.2027L92.0334 41.3717L91.0993 39.5845L90.8564 36.9047L91.3235 35.0635L92.2015 34.2415V35.2004L92.4817 35.3998L94.107 33.8119L95.6016 33.1207H97.1335L98.7027 34.5031L99.5434 37.9592L98.7027 41.1537L97.0024 43.3755L97.8452 45.7849H98.1665L102.48 41.3717L102.929 36.9047L102.672 35.2004L102.929 34.839L104.41 38.5935L104.97 38.7684L111.138 30.9336L103.864 42.4461L104.757 43.2027L105.483 42.9606L108.949 41.3717V41.629L107.133 44.0652L106.755 44.6081L107.955 46.3804V46.7731L104.93 45.1175L103.179 44.6081H101.969L99.7406 46.7731L99.0401 48.0149L99.9634 49.9571L98.6899 50.2118H97.0024L95.5696 50.7849L92.7677 53.0137L91.1121 51.167L90.8574 49.9571Z" fill="url(#paint22_linear_378_29)"/>
<path d="M98.9465 40.585L96.986 43.3797L95.4218 44.0262L94.5251 43.5883L92.7106 42.3578L91.6678 40.7936L90.7711 38.5412L90.9587 36.5391L91.4593 34.8498L92.085 34.4327L92.3978 35.5172L92.8984 35.1001L93.816 33.9739L95.0048 33.2439L96.7566 32.9937L98.3834 33.9739L99.1759 36.2262L99.4679 38.5412L98.9465 40.585Z" fill="url(#paint23_linear_378_29)"/>
<path d="M109.204 47.2703L108.095 44.7092L108.923 43.4286L109.845 41.3828H110.844L111.64 41.7888L110.594 42.3042V42.6165L112.812 43.6785L113.046 44.3968L112.499 46.3802L110.438 47.4265L109.204 47.2703Z" fill="url(#paint24_linear_378_29)"/>
<path d="M4.33125 91.3832C4.61844 91.4406 4.89415 91.4751 5.15836 91.4866C5.42258 91.4866 5.65808 91.4751 5.86485 91.4521C6.08312 91.4176 6.29564 91.3717 6.50242 91.3143C6.7092 91.2568 6.88151 91.1936 7.01936 91.1247C7.1687 91.0558 7.3123 90.9811 7.45015 90.9007C7.588 90.8088 7.69713 90.7284 7.77755 90.6595C7.86945 90.5905 7.95561 90.5159 8.03602 90.4355C8.11643 90.355 8.16813 90.3033 8.1911 90.2804C8.22556 90.2459 8.25428 90.2114 8.27726 90.177L8.67358 90.1942C8.46681 90.4125 8.283 90.602 8.12218 90.7628C7.96135 90.9122 7.68565 91.096 7.29507 91.3143C6.91597 91.5325 6.52539 91.6761 6.12333 91.745C5.20431 91.8829 4.30828 91.745 3.43522 91.3315C2.57364 90.9179 1.84418 90.2861 1.24682 89.436C0.649462 88.5745 0.264626 87.598 0.0923114 86.5067C-0.0800033 85.4154 -0.0110772 84.3757 0.299089 83.3878C0.609256 82.3884 1.10897 81.5612 1.79823 80.9064C2.49897 80.2402 3.30885 79.8381 4.22786 79.7002C5.54894 79.4935 6.77812 79.8381 7.9154 80.7341C7.99581 80.8031 8.07048 80.8662 8.13941 80.9237L8.77697 81.3372L8.22557 82.9398C8.30598 82.6985 8.31747 82.4113 8.26003 82.0782C8.20259 81.745 8.10495 81.4981 7.96709 81.3372C7.95561 81.3257 7.92689 81.3028 7.88094 81.2683C7.84647 81.2224 7.80052 81.1764 7.74308 81.1305C7.69713 81.0845 7.66841 81.05 7.65693 81.0271C7.17445 80.5561 6.62304 80.2746 6.00271 80.1827C5.03774 80.0334 4.12448 80.355 3.2629 81.1477C2.41282 81.9403 1.81546 83.0029 1.47083 84.3355C1.43637 84.4734 1.40765 84.6112 1.38467 84.7491C1.3617 84.8754 1.33872 85.0075 1.31575 85.1454C1.16641 86.1448 1.20087 87.104 1.41913 88.023C1.6374 88.9306 2.005 89.683 2.52195 90.2804C3.03889 90.8777 3.64199 91.2453 4.33125 91.3832Z" fill="#665F5F"/>
<path d="M17.6934 91.0213C17.7049 91.2051 17.7222 91.3545 17.7451 91.4693C17.7796 91.5842 17.8313 91.6646 17.9002 91.7106C17.9692 91.745 18.0266 91.768 18.0725 91.7795C18.13 91.791 18.2104 91.7967 18.3138 91.7967H15.8497C15.9531 91.7967 16.0277 91.791 16.0737 91.7795C16.1311 91.768 16.1943 91.7393 16.2632 91.6933C16.3322 91.6474 16.3839 91.567 16.4183 91.4521C16.4528 91.3372 16.47 91.1879 16.47 91.0041V85.1971H11.5418V91.0213C11.5418 91.1592 11.5533 91.2798 11.5763 91.3832C11.5993 91.4866 11.6222 91.567 11.6452 91.6244C11.6797 91.6704 11.7256 91.7106 11.7831 91.745C11.8405 91.768 11.8922 91.7853 11.9381 91.7967C11.9841 91.7967 12.0415 91.7967 12.1105 91.7967H9.68082C9.7842 91.7967 9.85887 91.791 9.90483 91.7795C9.96226 91.768 10.0254 91.7393 10.0944 91.6933C10.1633 91.6474 10.215 91.567 10.2495 91.4521C10.2839 91.3372 10.3011 91.1879 10.3011 91.0041V80.5274C10.3011 80.3321 10.2839 80.177 10.2495 80.0621C10.215 79.9472 10.1633 79.8668 10.0944 79.8209C10.0254 79.7749 9.96226 79.7519 9.90483 79.7519C9.85887 79.7405 9.7842 79.7347 9.68082 79.7347H10.3011H11.5418H12.1449C12.0645 79.7347 12.0013 79.7347 11.9554 79.7347C11.9209 79.7347 11.8692 79.7519 11.8003 79.7864C11.7428 79.8094 11.6969 79.8496 11.6624 79.907C11.628 79.953 11.5993 80.0276 11.5763 80.131C11.5533 80.2344 11.5418 80.3608 11.5418 80.5101V84.7835H16.47V80.5274C16.47 80.3321 16.4528 80.177 16.4183 80.0621C16.3839 79.9472 16.3322 79.8668 16.2632 79.8209C16.1943 79.7749 16.1311 79.7519 16.0737 79.7519C16.0277 79.7405 15.9531 79.7347 15.8497 79.7347H16.47H17.6934H18.3138C18.2104 79.7347 18.13 79.7405 18.0725 79.7519C18.0266 79.7519 17.9692 79.7749 17.9002 79.8209C17.8313 79.8668 17.7796 79.9472 17.7451 80.0621C17.7222 80.177 17.7049 80.3263 17.6934 80.5101V91.0213Z" fill="#665F5F"/>
<path d="M25.5933 91.3832C25.8 91.3832 26.0355 91.2453 26.2998 90.9696C26.5755 90.6939 26.7478 90.4182 26.8167 90.1425L26.4032 91.7967H19.4072C19.5106 91.7967 19.5852 91.791 19.6312 91.7795C19.6886 91.768 19.7518 91.7393 19.8207 91.6933C19.8897 91.6474 19.9414 91.567 19.9758 91.4521C20.0103 91.3372 20.0275 91.1879 20.0275 91.0041V80.5274C20.0275 80.3321 20.0103 80.177 19.9758 80.0621C19.9414 79.9472 19.8897 79.8668 19.8207 79.8209C19.7518 79.7749 19.6886 79.7519 19.6312 79.7519C19.5852 79.7405 19.5106 79.7347 19.4072 79.7347H21.8713C21.8713 79.7347 21.8598 79.7347 21.8368 79.7347C21.8253 79.7347 21.8196 79.7347 21.8196 79.7347H26.0068L26.4032 81.3717C26.3572 81.1994 26.2596 81.0156 26.1102 80.8203C25.9724 80.625 25.8115 80.4642 25.6277 80.3378C25.4554 80.2114 25.3061 80.1483 25.1797 80.1483H21.2854C21.2739 80.2402 21.2682 80.3608 21.2682 80.5101V84.7835H24.5938C24.7891 84.7835 24.9385 84.772 25.0419 84.7491C25.1567 84.7146 25.2372 84.6629 25.2831 84.594C25.3291 84.5136 25.3578 84.4504 25.3693 84.4044C25.3807 84.347 25.3865 84.2666 25.3865 84.1632V85.8174C25.3865 85.714 25.3807 85.6394 25.3693 85.5934C25.3578 85.536 25.3291 85.4728 25.2831 85.4039C25.2372 85.3234 25.1567 85.2718 25.0419 85.2488C24.927 85.2143 24.7776 85.1971 24.5938 85.1971H21.2682V91.0213C21.2682 91.1707 21.2739 91.2913 21.2854 91.3832H25.5933Z" fill="#665F5F"/>
<path d="M35.8525 91.4349C35.8639 91.4349 35.8812 91.4579 35.9041 91.5038C35.9386 91.5383 35.9616 91.5612 35.9731 91.5727C35.9846 91.5842 36.0018 91.6072 36.0248 91.6417C36.0592 91.6761 36.088 91.6991 36.1109 91.7106C36.1339 91.7221 36.1626 91.7393 36.1971 91.7623C36.243 91.7738 36.2832 91.7853 36.3177 91.7967C36.3637 91.7967 36.4154 91.7967 36.4728 91.7967H34.6118H34.5946H33.9915C34.1638 91.7967 34.2844 91.7738 34.3533 91.7278C34.4567 91.6704 34.4739 91.5957 34.405 91.5038L30.0971 85.1971H29.6664V91.0041C29.6664 91.1994 29.6836 91.3545 29.7181 91.4693C29.7525 91.5842 29.8042 91.6646 29.8731 91.7106C29.9421 91.745 29.9995 91.768 30.0455 91.7795C30.1029 91.791 30.1833 91.7967 30.2867 91.7967H27.8226C27.926 91.7967 28.0007 91.791 28.0466 91.7795C28.104 91.768 28.1672 91.745 28.2361 91.7106C28.3051 91.6646 28.3568 91.5842 28.3912 91.4693C28.4257 91.3545 28.4429 91.1994 28.4429 91.0041V80.5274C28.4429 80.3321 28.4257 80.177 28.3912 80.0621C28.3568 79.9472 28.3051 79.8668 28.2361 79.8209C28.1672 79.7749 28.104 79.7519 28.0466 79.7519C28.0007 79.7405 27.926 79.7347 27.8226 79.7347H29.6664H29.6836H30.2867C30.2293 79.7347 30.1833 79.7347 30.1488 79.7347H30.9243C31.7054 79.7347 32.4119 79.8094 33.0437 79.9587C33.262 80.0047 33.4803 80.0679 33.6985 80.1483C34.2614 80.3436 34.7209 80.602 35.077 80.9237C35.4446 81.2338 35.6801 81.5727 35.7835 81.9403C35.8869 82.2965 35.8869 82.6526 35.7835 83.0087C35.6801 83.3648 35.4446 83.7037 35.077 84.0253C34.7209 84.3355 34.2614 84.5882 33.6985 84.7835C33.4803 84.8639 33.2562 84.9271 33.0265 84.9731C33.015 84.9846 33.0035 84.9903 32.992 84.9903C32.5555 85.0937 32.0845 85.1569 31.5791 85.1799L35.8525 91.4349ZM30.9243 84.7835C31.0621 84.7835 31.1885 84.7835 31.3033 84.7835C32.3602 84.7261 33.1758 84.4734 33.7502 84.0253C34.3361 83.5773 34.629 83.0604 34.629 82.4745C34.629 82.2333 34.5831 82.0035 34.4912 81.7853C34.3993 81.5555 34.2499 81.343 34.0432 81.1477C33.8364 80.9524 33.5894 80.7801 33.3022 80.6307C33.015 80.4814 32.6646 80.3665 32.2511 80.2861C31.849 80.1942 31.4067 80.1483 30.9243 80.1483H29.7008C29.6778 80.2517 29.6664 80.378 29.6664 80.5274V84.7835H30.9243Z" fill="#665F5F"/>
<path d="M45.3264 91.4349C45.3379 91.4349 45.3551 91.4579 45.3781 91.5038C45.4126 91.5383 45.4355 91.5612 45.447 91.5727C45.4585 91.5842 45.4757 91.6072 45.4987 91.6417C45.5332 91.6761 45.5619 91.6991 45.5849 91.7106C45.6078 91.7221 45.6366 91.7393 45.671 91.7623C45.717 91.7738 45.7572 91.7853 45.7917 91.7967C45.8376 91.7967 45.8893 91.7967 45.9467 91.7967H44.0857H44.0685H43.4654C43.6377 91.7967 43.7583 91.7738 43.8273 91.7278C43.9307 91.6704 43.9479 91.5957 43.879 91.5038L39.5711 85.1971H39.1403V91.0041C39.1403 91.1994 39.1575 91.3545 39.192 91.4693C39.2265 91.5842 39.2782 91.6646 39.3471 91.7106C39.416 91.745 39.4734 91.768 39.5194 91.7795C39.5768 91.791 39.6572 91.7967 39.7606 91.7967H37.2965C37.3999 91.7967 37.4746 91.791 37.5205 91.7795C37.578 91.768 37.6412 91.745 37.7101 91.7106C37.779 91.6646 37.8307 91.5842 37.8652 91.4693C37.8996 91.3545 37.9169 91.1994 37.9169 91.0041V80.5274C37.9169 80.3321 37.8996 80.177 37.8652 80.0621C37.8307 79.9472 37.779 79.8668 37.7101 79.8209C37.6412 79.7749 37.578 79.7519 37.5205 79.7519C37.4746 79.7405 37.3999 79.7347 37.2965 79.7347H39.1403H39.1575H39.7606C39.7032 79.7347 39.6572 79.7347 39.6228 79.7347H40.3982C41.1794 79.7347 41.8858 79.8094 42.5177 79.9587C42.7359 80.0047 42.9542 80.0679 43.1725 80.1483C43.7354 80.3436 44.1949 80.602 44.551 80.9237C44.9186 81.2338 45.1541 81.5727 45.2575 81.9403C45.3609 82.2965 45.3609 82.6526 45.2575 83.0087C45.1541 83.3648 44.9186 83.7037 44.551 84.0253C44.1949 84.3355 43.7354 84.5882 43.1725 84.7835C42.9542 84.8639 42.7302 84.9271 42.5004 84.9731C42.489 84.9846 42.4775 84.9903 42.466 84.9903C42.0294 85.0937 41.5585 85.1569 41.053 85.1799L45.3264 91.4349ZM40.3982 84.7835C40.5361 84.7835 40.6624 84.7835 40.7773 84.7835C41.8342 84.7261 42.6498 84.4734 43.2242 84.0253C43.81 83.5773 44.103 83.0604 44.103 82.4745C44.103 82.2333 44.057 82.0035 43.9651 81.7853C43.8732 81.5555 43.7239 81.343 43.5171 81.1477C43.3103 80.9524 43.0633 80.7801 42.7761 80.6307C42.489 80.4814 42.1386 80.3665 41.725 80.2861C41.323 80.1942 40.8807 80.1483 40.3982 80.1483H39.1748C39.1518 80.2517 39.1403 80.378 39.1403 80.5274V84.7835H40.3982Z" fill="#665F5F"/>
<path d="M51.811 79.683H53.2929C53.132 79.683 53.0172 79.7002 52.9482 79.7347C52.9367 79.7347 52.9253 79.7405 52.9138 79.7519C52.9138 79.7519 52.9023 79.7577 52.8793 79.7692C52.8793 79.7807 52.8736 79.7864 52.8621 79.7864C52.8506 79.7979 52.8391 79.8151 52.8276 79.8381C52.8161 79.8381 52.8104 79.8438 52.8104 79.8553C52.7989 79.8783 52.7874 79.9013 52.7759 79.9243C52.7644 79.9357 52.7587 79.9415 52.7587 79.9415L50.2084 85.0937V91.0213C50.2084 91.2051 50.2199 91.3545 50.2429 91.4693C50.2774 91.5842 50.329 91.6646 50.398 91.7106C50.4669 91.745 50.5243 91.768 50.5703 91.7795C50.6277 91.791 50.7081 91.7967 50.8115 91.7967H50.2084H49.0367H48.3474C48.4508 91.7967 48.5255 91.791 48.5714 91.7795C48.6289 91.768 48.6921 91.745 48.761 91.7106C48.8299 91.6646 48.8816 91.5842 48.9161 91.4693C48.9505 91.3545 48.9678 91.1994 48.9678 91.0041V91.0213V85.1799L46.4175 80.4584L46.2624 80.131C45.9982 79.8438 45.6708 79.6945 45.2802 79.683H48.02C47.7788 79.683 47.618 79.7347 47.5375 79.8381C47.5146 79.8726 47.5088 79.9128 47.5203 79.9587V79.9759L48.9678 82.6468L50.0189 84.6112L50.2084 84.2321L52.3279 79.907C52.259 79.7577 52.0867 79.683 51.811 79.683Z" fill="#665F5F"/>
<path d="M71.3123 85.1971C71.9326 85.4039 72.461 85.6738 72.8976 86.007C73.3341 86.3401 73.65 86.702 73.8453 87.0925C74.0521 87.4716 74.1554 87.8737 74.1554 88.2987C74.1554 88.7238 74.0521 89.1316 73.8453 89.5222C73.6385 89.9013 73.3111 90.2574 72.8631 90.5905C72.4151 90.9237 71.8809 91.1936 71.2606 91.4004C71.0193 91.4693 70.7723 91.5325 70.5196 91.59C69.8763 91.7278 69.1756 91.7967 68.4174 91.7967H67.642C67.6764 91.7967 67.7224 91.7967 67.7798 91.7967H67.1767H65.936H65.3157C65.4191 91.7967 65.4938 91.791 65.5397 91.7795C65.5972 91.768 65.6603 91.7393 65.7293 91.6933C65.7982 91.6474 65.8499 91.567 65.8844 91.4521C65.9188 91.3372 65.936 91.1879 65.936 91.0041V80.5274C65.936 80.3321 65.9188 80.177 65.8844 80.0621C65.8499 79.9472 65.7982 79.8668 65.7293 79.8209C65.6603 79.7749 65.5972 79.7519 65.5397 79.7519C65.4938 79.7405 65.4191 79.7347 65.3157 79.7347H67.1767H67.7798C67.7224 79.7347 67.6764 79.7347 67.642 79.7347H68.4174C69.1985 79.7347 69.905 79.8094 70.5368 79.9587C70.7551 80.0047 70.9734 80.0679 71.1916 80.1483C71.8924 80.3895 72.4323 80.7284 72.8114 81.1649C73.1905 81.59 73.38 82.0265 73.38 82.4745C73.38 82.911 73.1905 83.3476 72.8114 83.7841C72.4323 84.2091 71.8924 84.5423 71.1916 84.7835C70.9734 84.8639 70.7494 84.9271 70.5196 84.9731C70.5081 84.9846 70.4966 84.9903 70.4851 84.9903C70.5081 84.9903 70.5196 84.9903 70.5196 84.9903C70.7953 85.0477 71.0595 85.1167 71.3123 85.1971ZM67.1939 80.1483C67.1824 80.2517 67.1767 80.378 67.1767 80.5274V84.7835H68.4174C68.9458 84.7835 69.434 84.7318 69.882 84.6284C70.3301 84.5251 70.6977 84.3872 70.9849 84.2149C71.2721 84.0311 71.5133 83.8243 71.7086 83.5946C71.9154 83.3533 72.0417 83.1063 72.0877 82.8536C72.1336 82.6009 72.1336 82.3481 72.0877 82.0954C72.0417 81.8312 71.9154 81.5842 71.7086 81.3545C71.5133 81.1132 71.2721 80.9064 70.9849 80.7341C70.6977 80.5503 70.3301 80.4067 69.882 80.3033C69.434 80.2 68.9458 80.1483 68.4174 80.1483H67.1939ZM68.4174 91.3832C69.1526 91.3832 69.8131 91.297 70.399 91.1247C70.9849 90.9409 71.4559 90.7054 71.812 90.4182C72.1796 90.131 72.461 89.8036 72.6563 89.436C72.8631 89.0569 72.9665 88.6778 72.9665 88.2987C72.9665 87.9082 72.8631 87.5291 72.6563 87.1615C72.461 86.7824 72.1796 86.4492 71.812 86.162C71.4559 85.8749 70.9849 85.6451 70.399 85.4728C69.8131 85.289 69.1526 85.1971 68.4174 85.1971H67.1767V91.0041C67.1767 91.1534 67.1824 91.2798 67.1939 91.3832H68.4174Z" fill="#665F5F"/>
<path d="M74.4365 91.9863H74.4538C74.4538 91.9863 74.448 91.9863 74.4365 91.9863ZM84.741 93.6233C85.2005 93.6577 85.7059 93.6003 86.2573 93.451C86.8087 93.3016 87.2625 93.1408 87.6186 92.9685C87.9862 92.7962 88.4744 92.5492 89.0833 92.2275C88.911 92.3309 88.7099 92.463 88.4802 92.6238C88.2619 92.7962 88.0551 92.957 87.8599 93.1063C87.6761 93.2557 87.4635 93.4165 87.2223 93.5888C86.9925 93.7611 86.7685 93.9105 86.5503 94.0368C86.3435 94.1747 86.1022 94.301 85.8265 94.4159C85.5508 94.5308 85.2751 94.617 84.9994 94.6744C84.7352 94.7318 84.4308 94.7606 84.0862 94.7606C83.753 94.7606 83.4084 94.7203 83.0523 94.6399C82.3745 94.4906 81.4612 94.1058 80.3125 93.4854C79.1752 92.8766 78.2964 92.4917 77.6761 92.3309C76.9064 92.1356 75.8323 92.0207 74.4538 91.9863C74.7065 91.8255 75.1315 91.7278 75.7289 91.6933C75.8553 91.59 75.9184 91.366 75.9184 91.0213V80.5274C75.9184 80.3436 75.9012 80.1942 75.8668 80.0793C75.8323 79.9645 75.7806 79.884 75.7117 79.8381C75.6427 79.7921 75.5796 79.7634 75.5221 79.7519C75.4762 79.7405 75.4015 79.7347 75.2981 79.7347H77.7622C77.6588 79.7347 77.5784 79.7405 77.521 79.7519C77.475 79.7634 77.4176 79.7921 77.3487 79.8381C77.2797 79.8726 77.228 79.9472 77.1936 80.0621C77.1706 80.177 77.1591 80.3263 77.1591 80.5101V91.0386C77.1591 91.1764 77.1649 91.297 77.1763 91.4004C77.1763 91.5498 77.1936 91.6646 77.228 91.745C77.4233 91.768 77.5956 91.791 77.745 91.814C78.1241 91.8599 78.5319 91.9403 78.9684 92.0552C79.4164 92.1701 79.8013 92.2792 80.1229 92.3826C80.4446 92.486 80.8409 92.6181 81.3119 92.7789C81.7944 92.9512 82.1792 93.0834 82.4664 93.1753C83.2705 93.4165 84.0287 93.5658 84.741 93.6233ZM86.533 91.0558C85.7404 91.5957 84.8788 91.8657 83.9483 91.8657C83.0178 91.8657 82.1562 91.5957 81.3636 91.0558C80.5709 90.5044 79.9449 89.7634 79.4854 88.8329C79.0259 87.8909 78.7961 86.8685 78.7961 85.7657C78.7961 84.6629 79.0259 83.6463 79.4854 82.7158C79.9449 81.7738 80.5709 81.0328 81.3636 80.4929C82.1562 79.9415 83.0178 79.6658 83.9483 79.6658C84.8788 79.6658 85.7404 79.9415 86.533 80.4929C87.3257 81.0328 87.946 81.7738 88.394 82.7158C88.8535 83.6463 89.0833 84.6629 89.0833 85.7657C89.0833 86.8685 88.8535 87.8909 88.394 88.8329C87.946 89.7634 87.3257 90.5044 86.533 91.0558ZM84.3619 80.5618C83.6496 80.2631 82.9546 80.2172 82.2769 80.424C81.5991 80.6307 81.0477 81.073 80.6226 81.7508C80.1976 82.4171 79.9506 83.1925 79.8817 84.077C79.8128 84.9616 79.9219 85.9151 80.2091 86.9375C80.5192 87.9024 80.9673 88.7468 81.5531 89.4705C82.139 90.1827 82.7938 90.6882 83.5175 90.9869C84.2412 91.2855 84.942 91.3315 85.6198 91.1247C86.2975 90.9064 86.8489 90.4642 87.274 89.7979C87.699 89.1316 87.9403 88.3562 87.9977 87.4716C88.0666 86.5756 87.9575 85.6221 87.6703 84.6112C87.3716 83.6348 86.9236 82.7904 86.3263 82.0782C85.7404 81.3545 85.0856 80.849 84.3619 80.5618Z" fill="#665F5F"/>
<path d="M98.4909 82.216C98.4909 82.2965 98.4851 82.3711 98.4736 82.44C98.4736 82.4171 98.4736 82.3826 98.4736 82.3367C98.4851 82.2792 98.4909 82.239 98.4909 82.216ZM98.3702 87.0925C98.9561 87.8278 99.1572 88.6032 98.9734 89.4188C98.801 90.2229 98.3013 90.8548 97.4742 91.3143C97.0721 91.544 96.5207 91.6933 95.82 91.7623C95.1307 91.8197 94.43 91.814 93.7177 91.745C93.017 91.6646 92.3622 91.5383 91.7534 91.366L90.1508 90.9007V88.9708C90.1508 89.258 90.2427 89.5739 90.4265 89.9185C90.6103 90.2516 90.8056 90.4814 91.0124 90.6078C91.0469 90.6193 91.179 90.6824 91.4087 90.7973C91.6385 90.9007 91.7878 90.9639 91.8568 90.9869C92.4886 91.1477 93.1376 91.2453 93.8039 91.2798C94.4817 91.3143 95.1192 91.2855 95.7166 91.1936C96.314 91.0902 96.8079 90.8777 97.1985 90.5561C97.6006 90.2344 97.8131 89.8209 97.8361 89.3154C97.8476 88.9708 97.7786 88.6434 97.6293 88.3332C97.4799 88.0116 97.2904 87.7416 97.0606 87.5233C96.8424 87.2936 96.5495 87.0638 96.1818 86.8341C95.8257 86.6043 95.5041 86.4205 95.2169 86.2827C94.9297 86.1333 94.5736 85.961 94.1485 85.7657C93.735 85.5704 93.4191 85.4153 93.2008 85.3005C92.7872 85.0822 92.4713 84.9099 92.2531 84.7835C92.0463 84.6572 91.7878 84.4619 91.4777 84.1977C91.1675 83.9334 90.932 83.6635 90.7712 83.3878C90.4495 82.7904 90.4036 82.1758 90.6333 81.544C90.8631 80.9122 91.2766 80.4469 91.874 80.1483C92.4943 79.8381 93.3099 79.6945 94.3208 79.7175C95.7223 79.7634 97.1124 80.0334 98.4909 80.5274C98.4909 80.9064 98.4909 81.4693 98.4909 82.216C98.4679 82.0322 98.4162 81.8542 98.3358 81.6819C98.2554 81.4981 98.1462 81.3372 98.0084 81.1994C97.882 81.05 97.7384 80.9237 97.5776 80.8203C97.164 80.5446 96.5495 80.3436 95.7338 80.2172C95.5385 80.1942 95.349 80.1712 95.1652 80.1483C94.9814 80.1253 94.7344 80.1023 94.4242 80.0793C94.1256 80.0564 93.8499 80.0506 93.5971 80.0621C93.3444 80.0736 93.0802 80.1081 92.8045 80.1655C92.5403 80.2114 92.3163 80.2861 92.1324 80.3895C91.9601 80.4929 91.8223 80.6365 91.7189 80.8203C91.627 81.0041 91.5983 81.2224 91.6327 81.4751C91.6672 81.7048 91.7706 81.9633 91.9429 82.2505C92.2186 82.6985 92.569 83.1063 92.994 83.4739C93.4305 83.8415 93.8843 84.1575 94.3553 84.4217C94.8263 84.6744 95.2973 84.9271 95.7683 85.1799C96.2393 85.4211 96.7103 85.7083 97.1813 86.0414C97.6523 86.3631 98.0486 86.7135 98.3702 87.0925Z" fill="#665F5F"/>
<path d="M108.52 82.216C108.52 82.2965 108.514 82.3711 108.503 82.44C108.503 82.4171 108.503 82.3826 108.503 82.3367C108.514 82.2792 108.52 82.239 108.52 82.216ZM108.399 87.0925C108.985 87.8278 109.186 88.6032 109.003 89.4188C108.83 90.2229 108.331 90.8548 107.503 91.3143C107.101 91.544 106.55 91.6933 105.849 91.7623C105.16 91.8197 104.459 91.814 103.747 91.745C103.046 91.6646 102.391 91.5383 101.783 91.366L100.18 90.9007V88.9708C100.18 89.258 100.272 89.5739 100.456 89.9185C100.64 90.2516 100.835 90.4814 101.042 90.6078C101.076 90.6193 101.208 90.6824 101.438 90.7973C101.668 90.9007 101.817 90.9639 101.886 90.9869C102.518 91.1477 103.167 91.2453 103.833 91.2798C104.511 91.3143 105.148 91.2855 105.746 91.1936C106.343 91.0902 106.837 90.8777 107.228 90.5561C107.63 90.2344 107.842 89.8209 107.865 89.3154C107.877 88.9708 107.808 88.6434 107.659 88.3332C107.509 88.0116 107.32 87.7416 107.09 87.5233C106.872 87.2936 106.579 87.0638 106.211 86.8341C105.855 86.6043 105.533 86.4205 105.246 86.2827C104.959 86.1333 104.603 85.961 104.178 85.7657C103.764 85.5704 103.448 85.4153 103.23 85.3005C102.816 85.0822 102.501 84.9099 102.282 84.7835C102.076 84.6572 101.817 84.4619 101.507 84.1977C101.197 83.9334 100.961 83.6635 100.8 83.3878C100.479 82.7904 100.433 82.1758 100.663 81.544C100.892 80.9122 101.306 80.4469 101.903 80.1483C102.524 79.8381 103.339 79.6945 104.35 79.7175C105.752 79.7634 107.142 80.0334 108.52 80.5274C108.52 80.9064 108.52 81.4693 108.52 82.216C108.497 82.0322 108.445 81.8542 108.365 81.6819C108.285 81.4981 108.175 81.3372 108.038 81.1994C107.911 81.05 107.768 80.9237 107.607 80.8203C107.193 80.5446 106.579 80.3436 105.763 80.2172C105.568 80.1942 105.378 80.1712 105.194 80.1483C105.011 80.1253 104.764 80.1023 104.453 80.0793C104.155 80.0564 103.879 80.0506 103.626 80.0621C103.374 80.0736 103.109 80.1081 102.834 80.1655C102.57 80.2114 102.346 80.2861 102.162 80.3895C101.989 80.4929 101.852 80.6365 101.748 80.8203C101.656 81.0041 101.628 81.2224 101.662 81.4751C101.696 81.7048 101.8 81.9633 101.972 82.2505C102.248 82.6985 102.598 83.1063 103.023 83.4739C103.46 83.8415 103.914 84.1575 104.385 84.4217C104.856 84.6744 105.327 84.9271 105.798 85.1799C106.269 85.4211 106.74 85.7083 107.211 86.0414C107.682 86.3631 108.078 86.7135 108.399 87.0925Z" fill="#665F5F"/>
<path d="M112.811 80.4757C113.604 79.9357 114.466 79.6658 115.396 79.6658C116.338 79.6658 117.2 79.9357 117.981 80.4757C118.773 81.0156 119.399 81.7565 119.859 82.6985C120.318 83.629 120.548 84.6514 120.548 85.7657C120.548 86.8685 120.318 87.8909 119.859 88.8329C119.399 89.7634 118.773 90.4986 117.981 91.0386C117.2 91.5785 116.338 91.8484 115.396 91.8484C114.466 91.8484 113.604 91.5785 112.811 91.0386C112.03 90.4986 111.41 89.7634 110.95 88.8329C110.491 87.8909 110.261 86.8685 110.261 85.7657C110.261 84.6514 110.491 83.629 110.95 82.6985C111.41 81.7565 112.03 81.0156 112.811 80.4757ZM117.085 91.1075C117.751 90.9007 118.297 90.4642 118.722 89.7979C119.158 89.1201 119.405 88.339 119.463 87.4544C119.532 86.5584 119.422 85.6049 119.135 84.594C118.676 83.1121 117.918 81.9633 116.861 81.1477C115.804 80.3321 114.764 80.0851 113.742 80.4067C113.064 80.625 112.507 81.0673 112.07 81.7336C111.645 82.3998 111.398 83.181 111.329 84.077C111.272 84.9616 111.387 85.9093 111.674 86.9202C112.134 88.4021 112.892 89.5509 113.949 90.3665C115.005 91.1821 116.051 91.4291 117.085 91.1075Z" fill="#665F5F"/>
<path d="M132.265 91.0041C132.265 91.1994 132.277 91.3545 132.3 91.4693C132.334 91.5842 132.386 91.6646 132.455 91.7106C132.535 91.745 132.598 91.768 132.644 91.7795C132.702 91.791 132.782 91.7967 132.885 91.7967H130.404C130.484 91.7967 130.548 91.7967 130.594 91.7967C130.64 91.7853 130.691 91.768 130.749 91.745C130.818 91.7221 130.869 91.6876 130.904 91.6417C130.938 91.5842 130.967 91.5038 130.99 91.4004C131.013 91.297 131.024 91.1649 131.024 91.0041V81.096L127.526 90.7112V90.7284L127.182 91.6417L127.13 91.7967H126.596L126.579 91.745L126.493 91.5038L126.32 91.0386L122.788 81.32V91.0041C122.788 91.1879 122.799 91.3372 122.822 91.4521C122.857 91.567 122.908 91.6474 122.977 91.6933C123.046 91.7393 123.104 91.768 123.15 91.7795C123.207 91.791 123.287 91.7967 123.391 91.7967H121.754C121.857 91.7967 121.932 91.791 121.978 91.7795C122.035 91.768 122.099 91.7393 122.167 91.6933C122.236 91.6474 122.288 91.567 122.323 91.4521C122.357 91.3372 122.374 91.1879 122.374 91.0041V80.1827L122.323 80.0449C122.265 79.9415 122.133 79.8668 121.926 79.8209C121.731 79.7634 121.553 79.7347 121.392 79.7347H124.132C123.891 79.7347 123.73 79.7864 123.649 79.8898C123.615 79.9243 123.609 79.9702 123.632 80.0276L127.302 90.1253L130.973 80.0449C130.938 79.9415 130.887 79.8668 130.818 79.8209C130.749 79.7749 130.686 79.7519 130.628 79.7519C130.582 79.7405 130.507 79.7347 130.404 79.7347H132.885C132.782 79.7347 132.702 79.7405 132.644 79.7519C132.598 79.7519 132.535 79.7749 132.455 79.8209C132.386 79.8668 132.334 79.9472 132.3 80.0621C132.277 80.177 132.265 80.3263 132.265 80.5101V91.0041Z" fill="#665F5F"/>
<path d="M108.966 74.618H128.139C126.214 64.3509 121.632 54.9971 115.117 47.2693M48.5459 74.618L7.66724 74.639C12.9019 46.6565 37.8804 25.4526 67.905 25.4526C77.0566 25.4526 85.7394 27.4226 93.5373 30.9541C93.7465 31.0488 93.9551 31.1447 94.1631 31.2417M125.573 105.858C117.092 129.07 94.474 145.674 67.905 145.674C43.2518 145.674 22.0006 131.378 12.2882 110.772" stroke="#665F5F" stroke-width="0.7" stroke-linecap="round" stroke-linejoin="round"/>
<path d="M6.867 96.7406H4.71307V98.4505H6.76759V98.8879H4.71307V100.942H4.24915V96.3032H6.867V96.7406Z" fill="#665F5F"/>
<path d="M10.5098 100.505H12.6306V100.942H10.0459V96.3032H10.5098V100.505Z" fill="#665F5F"/>
<path d="M19.188 100.326C18.7241 100.79 18.1563 101.022 17.4848 101.022C16.8132 101.022 16.2454 100.79 15.7815 100.326C15.3176 99.8577 15.0856 99.29 15.0856 98.6228C15.0856 97.9556 15.3176 97.3901 15.7815 96.9261C16.2454 96.4578 16.8132 96.2236 17.4848 96.2236C18.1563 96.2236 18.7241 96.4578 19.188 96.9261C19.6519 97.3901 19.8839 97.9556 19.8839 98.6228C19.8839 99.29 19.6519 99.8577 19.188 100.326ZM16.1062 100.008C16.4774 100.383 16.9369 100.571 17.4848 100.571C18.0326 100.571 18.4921 100.383 18.8633 100.008C19.2344 99.628 19.42 99.1662 19.42 98.6228C19.42 98.0793 19.2344 97.6198 18.8633 97.2443C18.4921 96.8643 18.0326 96.6743 17.4848 96.6743C16.9369 96.6743 16.4774 96.8643 16.1062 97.2443C15.7351 97.6198 15.5495 98.0793 15.5495 98.6228C15.5495 99.1662 15.7351 99.628 16.1062 100.008Z" fill="#665F5F"/>
<path d="M25.913 100.942L24.8261 99.0867H23.5271V100.942H23.0632V96.3032H24.9189C25.3033 96.3032 25.6302 96.4401 25.8997 96.7141C26.1737 96.9836 26.3107 97.3105 26.3107 97.6949C26.3107 98.0086 26.2157 98.2892 26.0257 98.5366C25.8401 98.7796 25.6015 98.9431 25.3099 99.0271L26.4432 100.942H25.913ZM23.5271 96.7406V98.6493H24.9189C25.1751 98.6493 25.3939 98.5565 25.575 98.3709C25.7562 98.181 25.8467 97.9556 25.8467 97.6949C25.8467 97.4298 25.7562 97.2045 25.575 97.0189C25.3939 96.8334 25.1751 96.7406 24.9189 96.7406H23.5271Z" fill="#665F5F"/>
<path d="M29.4942 96.3032H29.9581V100.942H29.4942V96.3032Z" fill="#665F5F"/>
<path d="M34.8008 101.022C34.3767 101.022 34.0122 100.923 33.7073 100.724C33.4068 100.52 33.197 100.242 33.0777 99.8886L33.4753 99.6567C33.5593 99.9439 33.7139 100.169 33.9393 100.333C34.1646 100.492 34.454 100.571 34.8075 100.571C35.1521 100.571 35.4194 100.496 35.6094 100.346C35.8038 100.191 35.901 99.988 35.901 99.7362C35.901 99.4932 35.8126 99.3098 35.6359 99.1861C35.4592 99.0624 35.1676 98.9343 34.7611 98.8017C34.2795 98.6427 33.9613 98.5145 33.8067 98.4173C33.4532 98.2053 33.2765 97.8982 33.2765 97.4961C33.2765 97.1029 33.4135 96.7936 33.6874 96.5683C33.9613 96.3385 34.2994 96.2236 34.7014 96.2236C35.0637 96.2236 35.3774 96.3186 35.6425 96.5086C35.9076 96.6942 36.1042 96.9328 36.2324 97.2244L35.8413 97.4431C35.6293 96.9306 35.2493 96.6743 34.7014 96.6743C34.4142 96.6743 34.1823 96.745 34.0055 96.8864C33.8288 97.0278 33.7404 97.2244 33.7404 97.4762C33.7404 97.706 33.82 97.8783 33.979 97.9932C34.1381 98.108 34.401 98.2251 34.7677 98.3444C34.9356 98.4019 35.0549 98.4438 35.1256 98.4704C35.2007 98.4924 35.3067 98.5322 35.4437 98.5896C35.5851 98.6427 35.6889 98.6913 35.7552 98.7355C35.8215 98.7752 35.901 98.8327 35.9938 98.9078C36.091 98.9785 36.1595 99.0514 36.1992 99.1265C36.2434 99.1972 36.281 99.2855 36.3119 99.3916C36.3472 99.4932 36.3649 99.6037 36.3649 99.7229C36.3649 100.116 36.2213 100.432 35.9341 100.671C35.6469 100.905 35.2692 101.022 34.8008 101.022Z" fill="#665F5F"/>
<path d="M42.2951 96.3032V96.7406H40.8702V100.942H40.4062V96.7406H38.9813V96.3032H42.2951Z" fill="#665F5F"/>
<path d="M49.3867 96.3032H49.8507V100.942H49.3867V96.3032Z" fill="#665F5F"/>
<path d="M56.2824 96.3032H56.7464V100.942H56.3487L53.764 97.1647V100.942H53.3001V96.3032H53.6977L56.2824 100.081V96.3032Z" fill="#665F5F"/>
<path d="M64.6973 100.505H66.8181V100.942H64.2333V96.3032H64.6973V100.505Z" fill="#665F5F"/>
<path d="M73.3755 100.326C72.9116 100.79 72.3438 101.022 71.6722 101.022C71.0006 101.022 70.4329 100.79 69.969 100.326C69.5051 99.8577 69.2731 99.29 69.2731 98.6228C69.2731 97.9556 69.5051 97.3901 69.969 96.9261C70.4329 96.4578 71.0006 96.2236 71.6722 96.2236C72.3438 96.2236 72.9116 96.4578 73.3755 96.9261C73.8394 97.3901 74.0714 97.9556 74.0714 98.6228C74.0714 99.29 73.8394 99.8577 73.3755 100.326ZM70.2937 100.008C70.6649 100.383 71.1244 100.571 71.6722 100.571C72.2201 100.571 72.6796 100.383 73.0508 100.008C73.4219 99.628 73.6075 99.1662 73.6075 98.6228C73.6075 98.0793 73.4219 97.6198 73.0508 97.2443C72.6796 96.8643 72.2201 96.6743 71.6722 96.6743C71.1244 96.6743 70.6649 96.8643 70.2937 97.2443C69.9226 97.6198 69.737 98.0793 69.737 98.6228C69.737 99.1662 69.9226 99.628 70.2937 100.008Z" fill="#665F5F"/>
<path d="M78.5404 101.022C78.1163 101.022 77.7518 100.923 77.4469 100.724C77.1465 100.52 76.9366 100.242 76.8173 99.8886L77.2149 99.6567C77.2989 99.9439 77.4535 100.169 77.6789 100.333C77.9042 100.492 78.1936 100.571 78.5471 100.571C78.8917 100.571 79.159 100.496 79.349 100.346C79.5434 100.191 79.6406 99.988 79.6406 99.7362C79.6406 99.4932 79.5522 99.3098 79.3755 99.1861C79.1988 99.0624 78.9072 98.9343 78.5007 98.8017C78.0191 98.6427 77.701 98.5145 77.5463 98.4173C77.1928 98.2053 77.0161 97.8982 77.0161 97.4961C77.0161 97.1029 77.1531 96.7936 77.427 96.5683C77.701 96.3385 78.039 96.2236 78.441 96.2236C78.8033 96.2236 79.117 96.3186 79.3821 96.5086C79.6472 96.6942 79.8438 96.9328 79.972 97.2244L79.581 97.4431C79.3689 96.9306 78.9889 96.6743 78.441 96.6743C78.1538 96.6743 77.9219 96.745 77.7451 96.8864C77.5684 97.0278 77.48 97.2244 77.48 97.4762C77.48 97.706 77.5596 97.8783 77.7186 97.9932C77.8777 98.108 78.1406 98.2251 78.5073 98.3444C78.6752 98.4019 78.7945 98.4438 78.8652 98.4704C78.9403 98.4924 79.0463 98.5322 79.1833 98.5896C79.3247 98.6427 79.4285 98.6913 79.4948 98.7355C79.5611 98.7752 79.6406 98.8327 79.7334 98.9078C79.8306 98.9785 79.8991 99.0514 79.9388 99.1265C79.983 99.1972 80.0206 99.2855 80.0515 99.3916C80.0869 99.4932 80.1045 99.6037 80.1045 99.7229C80.1045 100.116 79.9609 100.432 79.6737 100.671C79.3866 100.905 79.0088 101.022 78.5404 101.022Z" fill="#665F5F"/>
<path d="M90.418 100.942L89.9873 99.8025H87.7869L87.3561 100.942H86.8657L88.6485 96.3032H89.1257L90.9085 100.942H90.418ZM87.9526 99.3651H89.8216L88.8871 96.8798L87.9526 99.3651Z" fill="#665F5F"/>
<path d="M96.8724 96.3032H97.3364V100.942H96.9387L94.354 97.1647V100.942H93.8901V96.3032H94.2877L96.8724 100.081V96.3032Z" fill="#665F5F"/>
<path d="M105.214 98.7355V98.974C105.214 99.5484 105.009 100.034 104.598 100.432C104.187 100.825 103.637 101.022 102.948 101.022C102.245 101.022 101.664 100.79 101.205 100.326C100.745 99.8621 100.515 99.2944 100.515 98.6228C100.515 97.9512 100.745 97.3834 101.205 96.9195C101.664 96.4556 102.245 96.2236 102.948 96.2236C103.376 96.2236 103.77 96.3275 104.127 96.5351C104.485 96.7428 104.761 97.0189 104.956 97.3636L104.545 97.6022C104.399 97.3194 104.183 97.094 103.896 96.9261C103.608 96.7582 103.292 96.6743 102.948 96.6743C102.369 96.6743 101.896 96.8621 101.529 97.2376C101.163 97.6132 100.979 98.0749 100.979 98.6228C100.979 99.1707 101.163 99.6324 101.529 100.008C101.896 100.383 102.369 100.571 102.948 100.571C103.469 100.571 103.887 100.441 104.2 100.18C104.514 99.9151 104.693 99.5794 104.737 99.1729H102.895V98.7355H105.214Z" fill="#665F5F"/>
<path d="M108.86 100.505H111.113V100.942H108.396V96.3032H111.08V96.7406H108.86V98.3842H110.914V98.8216H108.86V100.505Z" fill="#665F5F"/>
<path d="M114.76 100.505H116.881V100.942H114.296V96.3032H114.76V100.505Z" fill="#665F5F"/>
<path d="M120.395 100.505H122.648V100.942H119.931V96.3032H122.615V96.7406H120.395V98.3842H122.45V98.8216H120.395V100.505Z" fill="#665F5F"/>
<path d="M127.289 101.022C126.865 101.022 126.501 100.923 126.196 100.724C125.896 100.52 125.686 100.242 125.566 99.8886L125.964 99.6567C126.048 99.9439 126.203 100.169 126.428 100.333C126.653 100.492 126.943 100.571 127.296 100.571C127.641 100.571 127.908 100.496 128.098 100.346C128.292 100.191 128.39 99.988 128.39 99.7362C128.39 99.4932 128.301 99.3098 128.125 99.1861C127.948 99.0624 127.656 98.9343 127.25 98.8017C126.768 98.6427 126.45 98.5145 126.295 98.4173C125.942 98.2053 125.765 97.8982 125.765 97.4961C125.765 97.1029 125.902 96.7936 126.176 96.5683C126.45 96.3385 126.788 96.2236 127.19 96.2236C127.552 96.2236 127.866 96.3186 128.131 96.5086C128.396 96.6942 128.593 96.9328 128.721 97.2244L128.33 97.4431C128.118 96.9306 127.738 96.6743 127.19 96.6743C126.903 96.6743 126.671 96.745 126.494 96.8864C126.317 97.0278 126.229 97.2244 126.229 97.4762C126.229 97.706 126.309 97.8783 126.468 97.9932C126.627 98.108 126.89 98.2251 127.256 98.3444C127.424 98.4019 127.544 98.4438 127.614 98.4704C127.689 98.4924 127.795 98.5322 127.932 98.5896C128.074 98.6427 128.178 98.6913 128.244 98.7355C128.31 98.7752 128.39 98.8327 128.482 98.9078C128.58 98.9785 128.648 99.0514 128.688 99.1265C128.732 99.1972 128.77 99.2855 128.801 99.3916C128.836 99.4932 128.854 99.6037 128.854 99.7229C128.854 100.116 128.71 100.432 128.423 100.671C128.136 100.905 127.758 101.022 127.289 101.022Z" fill="#665F5F"/>
<mask id="path-29-inside-1_378_29" fill="white">
<path fill-rule="evenodd" clip-rule="evenodd" d="M111.093 32.862C110.949 32.9887 110.599 33.396 110.314 33.7672C109.433 34.9145 107.597 37.1113 106.422 38.4223C105.805 39.1105 105.225 39.7935 105.134 39.9402C104.862 40.3739 104.399 40.0412 104.333 39.3647C104.251 38.5251 103.11 36.4813 102.723 36.4813C102.514 36.4813 102.482 36.7646 102.608 37.4915C102.798 38.5887 102.687 40.814 102.38 42.0476C102.199 42.7732 102.059 42.9423 100.15 44.7385C98.6873 46.1149 98.0718 46.6168 97.9658 46.5192C97.8849 46.4445 97.6822 45.9727 97.5155 45.4708L97.2123 44.5584L98.0044 43.7247C99.6316 42.0122 100.091 39.6045 99.2226 37.3342C98.7844 36.1884 98.6354 35.9698 98.0005 35.5415C97.0891 34.9268 96.3703 34.8224 95.2262 35.1387C94.44 35.3561 94.2079 35.5078 93.4314 36.3111C92.9408 36.8188 92.5022 37.2009 92.4566 37.1605C92.411 37.1201 92.3817 36.8019 92.3916 36.4535L92.4096 35.82L91.9957 36.1108C90.8 36.9513 90.3081 39.3583 90.9753 41.1047C91.6519 42.8755 93.1912 44.4332 94.7514 44.9253C95.4114 45.1336 95.4408 45.1669 95.7586 46.0662C95.9385 46.5758 96.1023 47.3167 96.1226 47.713L96.1596 48.4334L94.5662 49.6974C93.6899 50.3926 92.9215 50.9644 92.8589 50.9681C92.7962 50.9716 92.6305 50.7345 92.4907 50.4412C92.0078 49.4284 90.7685 47.4849 90.5804 47.4457C90.2912 47.3853 90.1352 48.0434 90.3514 48.4125C90.4569 48.5928 90.5999 49.3514 90.6691 50.0986C90.7949 51.4553 90.7964 51.4582 91.7993 52.4332L92.8034 53.4094L93.4326 53.0216C93.7786 52.8083 94.4735 52.2756 94.9766 51.8377C96.0782 50.879 96.5384 50.7359 98.4646 50.753C99.2748 50.7602 100.012 50.7001 100.104 50.6192C100.195 50.5385 100.083 50.1858 99.8548 49.8358C98.9818 48.496 98.9509 48.6467 100.4 47.1767C101.507 46.0535 101.799 45.829 102.307 45.7134C103.133 45.5253 104.323 45.7753 104.858 46.2493C105.411 46.738 107.585 47.773 108.089 47.7871C108.407 47.796 108.417 47.7026 108.156 47.1375C107.988 46.7748 107.656 46.2515 107.418 45.975L106.986 45.4721L107.84 44.7163C108.675 43.977 109.267 43.0428 109.159 42.6364C109.074 42.3185 107.12 42.9663 106.228 43.608C105.386 44.2139 104.759 44.2721 104.219 43.7941C103.977 43.5795 104.086 43.3871 105.268 41.947C106.791 40.0904 108.296 38.0361 109.928 35.5882C111.297 33.5338 111.883 32.1626 111.093 32.862ZM110.822 42.49C109.83 42.3334 109.571 42.4899 109.261 43.4328C109.115 43.8764 108.734 44.5412 108.414 44.9103L107.831 45.5816L108.385 46.8745C109.003 48.3152 109.071 48.3584 110.508 48.2245C111.723 48.111 112.67 47.4016 113.065 46.3076C113.224 45.8656 113.285 45.2921 113.2 45.0332C113.06 44.6061 112.941 44.528 111.912 44.1892C111.288 43.9839 110.778 43.7579 110.778 43.6872C110.778 43.6163 111.048 43.4968 111.378 43.4217C112.363 43.1975 112.057 42.6849 110.822 42.49ZM74.4544 36.7168C72.8727 35.7462 71.6406 35.2944 69.9228 35.055C68.5535 34.8642 67.1623 35.0809 65.6733 35.717L64.4627 36.2341L63.7021 35.5608C62.6476 34.6274 60.4145 33.6374 58.7147 33.3499C56.3532 32.9503 53.6328 33.6518 52.0364 35.072C50.6761 36.2821 49.7725 38.2521 49.973 39.5708C50.2022 41.0779 50.6647 41.7834 52.5773 43.5428C53.7705 44.6406 54.5046 45.4361 54.8078 45.9599C55.4308 47.0359 56.0538 47.5729 56.3621 47.3C56.6655 47.0315 56.6389 44.7648 56.3265 44.2613C55.9455 43.647 55.9771 43.3439 56.4484 43.0941C56.6837 42.9694 56.9766 42.8883 57.0989 42.9139C57.4771 42.9929 57.7075 43.5128 57.5573 43.9474C57.2947 44.706 57.3246 48.101 57.596 48.3412C57.7403 48.469 57.8925 48.5433 57.9341 48.5064C57.9759 48.4695 58.2406 47.571 58.5222 46.5098C58.8493 45.2777 58.9712 44.3587 58.8598 43.9672C58.6581 43.2594 59.0216 42.8122 59.7716 42.8453C60.4071 42.8734 60.6171 43.418 60.2053 43.9705C59.8503 44.447 58.7132 48.3803 58.7895 48.8673C58.8966 49.5492 59.3027 49.1846 60.0261 47.757C60.4313 46.9572 61.0031 45.9171 61.2967 45.4456C61.6534 44.8726 61.7921 44.4258 61.7152 44.0983C61.5784 43.5174 61.9043 43.1701 62.5585 43.199C62.9303 43.2154 63.078 43.3118 63.2496 43.65C63.4267 43.9991 63.3819 44.1564 63.0125 44.4834C62.6136 44.8365 60.7925 47.7215 60.2923 48.7928C60.0516 49.3079 60.4398 49.3615 60.9612 48.8854C61.8136 48.1065 64.0224 45.3454 64.057 45.0153C64.0768 44.8275 64.281 44.5416 64.5109 44.38C64.8612 44.1336 65.0051 44.142 65.4031 44.4321C65.7885 44.7133 65.8438 44.8575 65.6984 45.2018C65.5816 45.4782 65.3512 45.7001 65.036 45.8395C64.5825 46.0401 62.3364 48.4056 61.9139 49.1274C61.7228 49.4539 61.8584 49.6473 62.2248 49.5707C62.7117 49.4689 66.0126 46.9804 66.1771 46.591C66.3908 46.0851 67.1122 45.9009 67.508 46.2513C68.1007 46.776 67.77 47.4362 66.8275 47.6099C66.5565 47.66 65.7323 48.1224 64.9963 48.6376C61.8848 50.8154 61.9403 50.7698 62.1639 50.9677C62.3879 51.166 62.8843 50.989 65.6186 49.7364C66.656 49.2612 67.4125 48.8176 67.5617 48.5972C67.7943 48.2533 68.5231 48.0945 68.789 48.3299C68.945 48.468 69.0628 49.5194 68.9348 49.6327C68.8743 49.6862 68.49 49.7494 68.0806 49.7731C67.2688 49.82 62.6846 51.7505 62.4964 52.1247C62.2995 52.5161 62.5727 52.535 63.7406 52.2108C64.3708 52.0358 65.5401 51.7691 66.3389 51.6181C67.1376 51.4671 67.9144 51.24 68.065 51.1136C68.4186 50.8168 69.1049 50.7351 69.3583 50.9594C69.6351 51.2045 69.5643 51.9096 69.2336 52.2023C69.0638 52.3526 68.6901 52.3875 68.2647 52.2924C67.8322 52.1958 66.819 52.2947 65.5661 52.5556C63.5105 52.9837 63.0542 53.1729 63.3808 53.462C63.6204 53.674 67.3218 53.6263 68.2639 53.3989C69.0731 53.2036 69.4345 53.4097 69.3986 54.046C69.3602 54.73 68.772 54.9991 68.1338 54.625C67.5709 54.2951 64.8904 54.1575 64.5689 54.4421C64.2759 54.7014 64.8569 55.3071 65.7606 55.6843C66.36 55.9343 67.3114 56.6015 68.8535 57.8527C71.2145 59.7683 71.5605 59.9476 73.1316 60.0672C74.8752 60.2002 77.0179 59.4822 78.3215 58.3282C79.0447 57.6881 79.9785 56.1914 80.2302 55.2693C80.8935 52.8388 79.9406 49.9351 77.8814 48.1123C76.9356 47.2751 76.8006 46.9211 77.269 46.5065C77.4233 46.3698 77.7005 45.8588 77.8853 45.3707C78.8479 42.8257 78.1169 40.1396 75.8649 37.9481C75.3058 37.4038 74.6711 36.8497 74.4544 36.7168ZM95.6637 55.6735C94.766 55.3099 93.9175 55.1598 93.5589 55.3011C93.3688 55.376 93.2874 55.761 93.3197 56.4336C93.3735 57.5476 93.1955 58.1989 92.5788 59.1468C92.1924 59.7406 92.2426 60.1026 92.7783 60.5873C93.0389 60.8231 93.6114 60.1939 93.7199 59.5521C93.843 58.8255 94.418 58.4994 94.8702 58.8997C95.333 59.3093 95.2029 59.6628 94.3213 60.3908C93.6703 60.9283 93.5355 61.1234 93.592 61.4473C93.7336 62.2602 94.2905 62.2493 95.5176 61.4096C96.2564 60.904 96.5459 60.9368 96.6885 61.5422C96.8458 62.2112 96.5642 62.4118 95.3936 62.4644C94.2384 62.5162 94.1297 62.5839 94.2479 63.1769C94.384 63.8614 94.6273 63.9705 95.9245 63.9296C97.0328 63.8947 97.1377 63.9251 97.309 64.3304C97.5654 64.9376 96.8581 65.4671 96.3054 65.0818C95.2915 64.3745 94.4297 64.336 94.4297 64.9977C94.4297 65.4398 94.5998 65.5916 95.2778 65.7553C95.9699 65.9222 97.3507 67.1446 97.8124 67.9989C98.4069 69.0988 98.496 69.1252 99.1172 68.3864C100.231 67.0618 100.601 65.4344 100.142 63.8779C99.9583 63.2553 99.6551 62.7956 98.9378 62.0534L97.979 61.0611L98.1221 60.1273C98.3843 58.4162 97.2177 56.3028 95.6637 55.6735ZM90.2248 52.3969C88.2875 51.3953 86.1693 51.6327 84.5802 53.0294C82.8361 54.5624 82.3299 56.6893 83.2731 58.5224C83.9254 59.7903 84.3114 60.1113 84.7339 59.7373C85.8885 58.7152 88.9314 58.27 90.3479 58.9157C90.7292 59.0896 91.1422 59.2357 91.2657 59.2402C91.6718 59.2554 92.3853 57.5928 92.4534 56.4733C92.4897 55.8711 92.4024 55.0582 92.2589 54.6668C91.9701 53.8783 91.0029 52.7993 90.2248 52.3969ZM90.1679 59.7687C88.049 59.1071 85.7532 59.6372 84.587 61.0571C83.9699 61.8084 83.4791 62.9481 83.5367 63.4958C83.5929 64.0311 83.3184 64.1484 81.4819 64.374L79.7608 64.5854L78.3256 63.4607C77.5363 62.8423 76.8905 62.2904 76.8904 62.2344C76.8905 62.1783 78.1512 61.5616 79.6918 60.8638C81.2325 60.166 82.5541 59.5412 82.6287 59.4752C82.7778 59.3432 82.252 57.9812 82.0518 57.9812C81.9833 57.9812 81.2356 58.319 80.3903 58.7319C75.3604 61.1892 74.9339 61.3466 73.2457 61.3677C72.3775 61.3786 70.6493 61.5603 69.4051 61.7717C67.4748 62.0995 67.0242 62.2414 66.3325 62.7392C65.241 63.5247 63.8755 63.9228 62.0591 63.9228C60.8526 63.9228 60.0141 63.6478 59.0514 63.2213C58.2015 62.8447 57.5761 62.8619 56.6349 62.82C54.8771 62.7417 53.5516 62.5076 51.6056 61.9319C50.0215 61.4633 49.4745 61.1907 49.7063 60.9856C49.7716 60.9277 50.2054 60.7539 50.6705 60.5992C51.8993 60.1905 54.1578 58.1915 54.526 57.1868C54.6682 56.7983 54.8352 56.3406 54.7672 56.2804C54.699 56.2201 53.9321 56.2267 53.4816 56.2804C52.6902 56.3746 52.8447 56.5245 52.1714 57.3718C51.6073 58.0817 51.3194 58.3066 50.5275 58.7178C48.8314 59.5988 46.7802 59.6455 45.5576 58.8311C44.6491 58.226 41.8813 56.7683 40.941 56.3996C40.5575 56.2493 40.185 56.0743 40.1131 56.0107C39.8941 55.8168 40.3414 55.5474 41.3831 55.2455C42.3073 54.9776 43.0194 54.5683 42.8391 54.4087C42.7961 54.3707 41.7088 54.35 40.4229 54.3629C37.799 54.389 36.1637 54.0557 33.6965 52.9921C32.2669 52.3759 27.318 51.3813 25.2463 49.6262C23.9981 48.5689 21.4728 46.9819 21.3793 47.0234C21.2866 47.0644 20.1627 48.2982 19.4653 49.0918C18.2614 50.3906 16.4438 52.8369 16.4438 52.8369C15.5134 54.1603 22.2346 55.3706 22.3275 55.4502C22.4205 55.5297 29.9317 55.7238 30.766 55.8816C35.1935 56.7194 43.034 59.514 46.6624 61.5476C48.014 62.305 50.6958 64.1976 51.7789 65.1582C54.852 67.8834 56.9758 71.6982 57.5937 75.6019C57.7477 76.5755 57.8933 77.445 57.917 77.5341C57.9667 77.7202 60.7809 78.7341 61.2396 78.731C61.9183 78.7265 61.2238 77.2993 60.0257 76.2366C59.4099 75.6904 59.3204 75.5089 59.2749 74.7166C59.2178 73.719 59.3262 73.557 60.2188 73.3056C60.999 73.0858 61.9115 73.4172 62.8753 74.2704C63.7858 75.0763 64.9714 75.4779 66.5107 75.5019L67.5731 75.5184L67.1604 74.821C66.7606 74.1456 66.0074 73.4976 64.3114 72.37L63.6173 71.9086L64.1879 71.0143C65.0361 69.6856 65.6077 66.7099 65.0379 66.5907C64.7414 66.5287 63.4379 67.2513 62.7713 67.8471C62.4569 68.1282 61.9279 68.8617 61.5959 69.477C60.8852 70.7941 60.6486 71.0286 59.6474 71.4083C58.7868 71.7348 58.6606 71.6691 58.4137 70.7677C58.1502 69.8064 57.2884 68.4035 56.0118 66.8584C55.392 66.1081 54.8246 65.3947 54.751 65.2729C54.6604 65.1228 55.1891 65.0478 56.3941 65.0399C60.5064 65.013 64.6739 64.6044 69.8671 63.7191C73.6505 63.0742 74.5149 63.1341 76.41 64.1721C77.4564 64.7453 77.9992 65.1757 79.5377 66.6526C81.4743 68.5117 81.9551 68.81 82.3919 68.4233C82.5844 68.2529 82.5155 68.0664 82.0705 67.5517C81.2393 66.5911 81.3312 66.3924 82.8082 65.9561C83.7826 65.6685 84.0786 65.6492 84.1749 65.8672C84.2427 66.0203 84.5473 66.5201 84.852 66.9781C86.0216 68.7366 88.1066 69.3924 90.3654 68.7122C91.4799 68.3765 91.7323 68.2338 92.296 67.6199C92.6528 67.2315 93.0922 66.5754 93.2729 66.1618C94.3041 63.801 92.7349 60.57 90.1679 59.7687ZM95.1061 66.4266C94.3496 66.0134 94.2608 66.0412 93.9675 66.7831C93.2969 68.4799 91.2645 69.7348 88.9785 69.8638L87.7966 69.9304L87.8721 70.4075C88.1386 72.0928 89.9987 74.0034 91.8502 74.4936C93.7448 74.9953 95.7952 74.482 96.8606 73.2395C98.6411 71.1627 97.8004 67.8983 95.1061 66.4266ZM51.9203 44.4248C51.6266 44.4 50.9001 44.5868 50.3055 44.8399C47.4475 46.0569 46.2019 49.2806 47.5438 51.988C48.2494 53.4111 49.7608 54.706 51.2997 55.2058C52.513 55.5998 54.9068 55.6735 55.2962 55.3288C55.6716 54.9965 56.1001 52.6837 56.0186 51.4292C55.8763 49.2376 54.9101 47.1094 53.2453 45.3202C52.5851 44.6106 52.3658 44.4625 51.9203 44.4248ZM66.5031 57.0992C64.8464 55.9761 62.4641 55.2392 60.1978 55.149C58.558 55.0838 56.2295 55.4474 55.7887 55.8375C55.3333 56.2407 55.5079 58.395 56.088 59.5293C56.782 60.887 58.6233 62.3723 60.2081 62.8534C61.4796 63.2394 63.1361 63.2092 64.4962 62.7752C66.2164 62.2262 68.1237 60.2092 68.1997 58.8582C68.2221 58.461 67.6746 57.8932 66.5031 57.0992ZM58.2871 51.3842C57.8285 51.2718 57.3286 51.2544 57.1763 51.3458C57.0184 51.4404 56.87 52.0024 56.8307 52.6533C56.793 53.2812 56.7897 53.4605 56.7098 53.7599C56.6434 54.0087 56.5866 54.2775 56.651 54.4654C56.8019 54.6596 56.9031 54.6573 57.5994 54.5375C58.0569 54.459 58.8729 54.3866 59.4124 54.3769C59.9521 54.3672 60.451 54.3084 60.5211 54.2464C60.5912 54.1843 60.5408 53.7679 60.409 53.3211C60.109 52.3035 59.4009 51.6571 58.2871 51.3842ZM68.6826 66.2596C67.763 66.078 65.9655 66.0792 65.7605 66.2614C65.7082 66.3079 65.6709 66.8756 65.6779 67.5227C65.6856 68.2527 65.4863 69.2423 65.1532 70.1285L64.616 71.5578L65.9684 72.7653C66.9281 73.6222 67.4021 74.1584 67.6009 74.6123C67.8738 75.2356 67.8934 75.2496 68.367 75.162C68.6344 75.1127 69.3054 74.8371 69.8583 74.5497C71.7377 73.5732 72.8776 71.5308 72.4163 69.9666C71.9722 68.4602 70.6122 67.7353 68.669 67.9688C66.7609 68.1982 66.7755 67.7123 68.6923 67.1965C70.2375 66.7805 70.2353 66.5661 68.6826 66.2596Z"/>
</mask>
<path fill-rule="evenodd" clip-rule="evenodd" d="M111.093 32.862C110.949 32.9887 110.599 33.396 110.314 33.7672C109.433 34.9145 107.597 37.1113 106.422 38.4223C105.805 39.1105 105.225 39.7935 105.134 39.9402C104.862 40.3739 104.399 40.0412 104.333 39.3647C104.251 38.5251 103.11 36.4813 102.723 36.4813C102.514 36.4813 102.482 36.7646 102.608 37.4915C102.798 38.5887 102.687 40.814 102.38 42.0476C102.199 42.7732 102.059 42.9423 100.15 44.7385C98.6873 46.1149 98.0718 46.6168 97.9658 46.5192C97.8849 46.4445 97.6822 45.9727 97.5155 45.4708L97.2123 44.5584L98.0044 43.7247C99.6316 42.0122 100.091 39.6045 99.2226 37.3342C98.7844 36.1884 98.6354 35.9698 98.0005 35.5415C97.0891 34.9268 96.3703 34.8224 95.2262 35.1387C94.44 35.3561 94.2079 35.5078 93.4314 36.3111C92.9408 36.8188 92.5022 37.2009 92.4566 37.1605C92.411 37.1201 92.3817 36.8019 92.3916 36.4535L92.4096 35.82L91.9957 36.1108C90.8 36.9513 90.3081 39.3583 90.9753 41.1047C91.6519 42.8755 93.1912 44.4332 94.7514 44.9253C95.4114 45.1336 95.4408 45.1669 95.7586 46.0662C95.9385 46.5758 96.1023 47.3167 96.1226 47.713L96.1596 48.4334L94.5662 49.6974C93.6899 50.3926 92.9215 50.9644 92.8589 50.9681C92.7962 50.9716 92.6305 50.7345 92.4907 50.4412C92.0078 49.4284 90.7685 47.4849 90.5804 47.4457C90.2912 47.3853 90.1352 48.0434 90.3514 48.4125C90.4569 48.5928 90.5999 49.3514 90.6691 50.0986C90.7949 51.4553 90.7964 51.4582 91.7993 52.4332L92.8034 53.4094L93.4326 53.0216C93.7786 52.8083 94.4735 52.2756 94.9766 51.8377C96.0782 50.879 96.5384 50.7359 98.4646 50.753C99.2748 50.7602 100.012 50.7001 100.104 50.6192C100.195 50.5385 100.083 50.1858 99.8548 49.8358C98.9818 48.496 98.9509 48.6467 100.4 47.1767C101.507 46.0535 101.799 45.829 102.307 45.7134C103.133 45.5253 104.323 45.7753 104.858 46.2493C105.411 46.738 107.585 47.773 108.089 47.7871C108.407 47.796 108.417 47.7026 108.156 47.1375C107.988 46.7748 107.656 46.2515 107.418 45.975L106.986 45.4721L107.84 44.7163C108.675 43.977 109.267 43.0428 109.159 42.6364C109.074 42.3185 107.12 42.9663 106.228 43.608C105.386 44.2139 104.759 44.2721 104.219 43.7941C103.977 43.5795 104.086 43.3871 105.268 41.947C106.791 40.0904 108.296 38.0361 109.928 35.5882C111.297 33.5338 111.883 32.1626 111.093 32.862ZM110.822 42.49C109.83 42.3334 109.571 42.4899 109.261 43.4328C109.115 43.8764 108.734 44.5412 108.414 44.9103L107.831 45.5816L108.385 46.8745C109.003 48.3152 109.071 48.3584 110.508 48.2245C111.723 48.111 112.67 47.4016 113.065 46.3076C113.224 45.8656 113.285 45.2921 113.2 45.0332C113.06 44.6061 112.941 44.528 111.912 44.1892C111.288 43.9839 110.778 43.7579 110.778 43.6872C110.778 43.6163 111.048 43.4968 111.378 43.4217C112.363 43.1975 112.057 42.6849 110.822 42.49ZM74.4544 36.7168C72.8727 35.7462 71.6406 35.2944 69.9228 35.055C68.5535 34.8642 67.1623 35.0809 65.6733 35.717L64.4627 36.2341L63.7021 35.5608C62.6476 34.6274 60.4145 33.6374 58.7147 33.3499C56.3532 32.9503 53.6328 33.6518 52.0364 35.072C50.6761 36.2821 49.7725 38.2521 49.973 39.5708C50.2022 41.0779 50.6647 41.7834 52.5773 43.5428C53.7705 44.6406 54.5046 45.4361 54.8078 45.9599C55.4308 47.0359 56.0538 47.5729 56.3621 47.3C56.6655 47.0315 56.6389 44.7648 56.3265 44.2613C55.9455 43.647 55.9771 43.3439 56.4484 43.0941C56.6837 42.9694 56.9766 42.8883 57.0989 42.9139C57.4771 42.9929 57.7075 43.5128 57.5573 43.9474C57.2947 44.706 57.3246 48.101 57.596 48.3412C57.7403 48.469 57.8925 48.5433 57.9341 48.5064C57.9759 48.4695 58.2406 47.571 58.5222 46.5098C58.8493 45.2777 58.9712 44.3587 58.8598 43.9672C58.6581 43.2594 59.0216 42.8122 59.7716 42.8453C60.4071 42.8734 60.6171 43.418 60.2053 43.9705C59.8503 44.447 58.7132 48.3803 58.7895 48.8673C58.8966 49.5492 59.3027 49.1846 60.0261 47.757C60.4313 46.9572 61.0031 45.9171 61.2967 45.4456C61.6534 44.8726 61.7921 44.4258 61.7152 44.0983C61.5784 43.5174 61.9043 43.1701 62.5585 43.199C62.9303 43.2154 63.078 43.3118 63.2496 43.65C63.4267 43.9991 63.3819 44.1564 63.0125 44.4834C62.6136 44.8365 60.7925 47.7215 60.2923 48.7928C60.0516 49.3079 60.4398 49.3615 60.9612 48.8854C61.8136 48.1065 64.0224 45.3454 64.057 45.0153C64.0768 44.8275 64.281 44.5416 64.5109 44.38C64.8612 44.1336 65.0051 44.142 65.4031 44.4321C65.7885 44.7133 65.8438 44.8575 65.6984 45.2018C65.5816 45.4782 65.3512 45.7001 65.036 45.8395C64.5825 46.0401 62.3364 48.4056 61.9139 49.1274C61.7228 49.4539 61.8584 49.6473 62.2248 49.5707C62.7117 49.4689 66.0126 46.9804 66.1771 46.591C66.3908 46.0851 67.1122 45.9009 67.508 46.2513C68.1007 46.776 67.77 47.4362 66.8275 47.6099C66.5565 47.66 65.7323 48.1224 64.9963 48.6376C61.8848 50.8154 61.9403 50.7698 62.1639 50.9677C62.3879 51.166 62.8843 50.989 65.6186 49.7364C66.656 49.2612 67.4125 48.8176 67.5617 48.5972C67.7943 48.2533 68.5231 48.0945 68.789 48.3299C68.945 48.468 69.0628 49.5194 68.9348 49.6327C68.8743 49.6862 68.49 49.7494 68.0806 49.7731C67.2688 49.82 62.6846 51.7505 62.4964 52.1247C62.2995 52.5161 62.5727 52.535 63.7406 52.2108C64.3708 52.0358 65.5401 51.7691 66.3389 51.6181C67.1376 51.4671 67.9144 51.24 68.065 51.1136C68.4186 50.8168 69.1049 50.7351 69.3583 50.9594C69.6351 51.2045 69.5643 51.9096 69.2336 52.2023C69.0638 52.3526 68.6901 52.3875 68.2647 52.2924C67.8322 52.1958 66.819 52.2947 65.5661 52.5556C63.5105 52.9837 63.0542 53.1729 63.3808 53.462C63.6204 53.674 67.3218 53.6263 68.2639 53.3989C69.0731 53.2036 69.4345 53.4097 69.3986 54.046C69.3602 54.73 68.772 54.9991 68.1338 54.625C67.5709 54.2951 64.8904 54.1575 64.5689 54.4421C64.2759 54.7014 64.8569 55.3071 65.7606 55.6843C66.36 55.9343 67.3114 56.6015 68.8535 57.8527C71.2145 59.7683 71.5605 59.9476 73.1316 60.0672C74.8752 60.2002 77.0179 59.4822 78.3215 58.3282C79.0447 57.6881 79.9785 56.1914 80.2302 55.2693C80.8935 52.8388 79.9406 49.9351 77.8814 48.1123C76.9356 47.2751 76.8006 46.9211 77.269 46.5065C77.4233 46.3698 77.7005 45.8588 77.8853 45.3707C78.8479 42.8257 78.1169 40.1396 75.8649 37.9481C75.3058 37.4038 74.6711 36.8497 74.4544 36.7168ZM95.6637 55.6735C94.766 55.3099 93.9175 55.1598 93.5589 55.3011C93.3688 55.376 93.2874 55.761 93.3197 56.4336C93.3735 57.5476 93.1955 58.1989 92.5788 59.1468C92.1924 59.7406 92.2426 60.1026 92.7783 60.5873C93.0389 60.8231 93.6114 60.1939 93.7199 59.5521C93.843 58.8255 94.418 58.4994 94.8702 58.8997C95.333 59.3093 95.2029 59.6628 94.3213 60.3908C93.6703 60.9283 93.5355 61.1234 93.592 61.4473C93.7336 62.2602 94.2905 62.2493 95.5176 61.4096C96.2564 60.904 96.5459 60.9368 96.6885 61.5422C96.8458 62.2112 96.5642 62.4118 95.3936 62.4644C94.2384 62.5162 94.1297 62.5839 94.2479 63.1769C94.384 63.8614 94.6273 63.9705 95.9245 63.9296C97.0328 63.8947 97.1377 63.9251 97.309 64.3304C97.5654 64.9376 96.8581 65.4671 96.3054 65.0818C95.2915 64.3745 94.4297 64.336 94.4297 64.9977C94.4297 65.4398 94.5998 65.5916 95.2778 65.7553C95.9699 65.9222 97.3507 67.1446 97.8124 67.9989C98.4069 69.0988 98.496 69.1252 99.1172 68.3864C100.231 67.0618 100.601 65.4344 100.142 63.8779C99.9583 63.2553 99.6551 62.7956 98.9378 62.0534L97.979 61.0611L98.1221 60.1273C98.3843 58.4162 97.2177 56.3028 95.6637 55.6735ZM90.2248 52.3969C88.2875 51.3953 86.1693 51.6327 84.5802 53.0294C82.8361 54.5624 82.3299 56.6893 83.2731 58.5224C83.9254 59.7903 84.3114 60.1113 84.7339 59.7373C85.8885 58.7152 88.9314 58.27 90.3479 58.9157C90.7292 59.0896 91.1422 59.2357 91.2657 59.2402C91.6718 59.2554 92.3853 57.5928 92.4534 56.4733C92.4897 55.8711 92.4024 55.0582 92.2589 54.6668C91.9701 53.8783 91.0029 52.7993 90.2248 52.3969ZM90.1679 59.7687C88.049 59.1071 85.7532 59.6372 84.587 61.0571C83.9699 61.8084 83.4791 62.9481 83.5367 63.4958C83.5929 64.0311 83.3184 64.1484 81.4819 64.374L79.7608 64.5854L78.3256 63.4607C77.5363 62.8423 76.8905 62.2904 76.8904 62.2344C76.8905 62.1783 78.1512 61.5616 79.6918 60.8638C81.2325 60.166 82.5541 59.5412 82.6287 59.4752C82.7778 59.3432 82.252 57.9812 82.0518 57.9812C81.9833 57.9812 81.2356 58.319 80.3903 58.7319C75.3604 61.1892 74.9339 61.3466 73.2457 61.3677C72.3775 61.3786 70.6493 61.5603 69.4051 61.7717C67.4748 62.0995 67.0242 62.2414 66.3325 62.7392C65.241 63.5247 63.8755 63.9228 62.0591 63.9228C60.8526 63.9228 60.0141 63.6478 59.0514 63.2213C58.2015 62.8447 57.5761 62.8619 56.6349 62.82C54.8771 62.7417 53.5516 62.5076 51.6056 61.9319C50.0215 61.4633 49.4745 61.1907 49.7063 60.9856C49.7716 60.9277 50.2054 60.7539 50.6705 60.5992C51.8993 60.1905 54.1578 58.1915 54.526 57.1868C54.6682 56.7983 54.8352 56.3406 54.7672 56.2804C54.699 56.2201 53.9321 56.2267 53.4816 56.2804C52.6902 56.3746 52.8447 56.5245 52.1714 57.3718C51.6073 58.0817 51.3194 58.3066 50.5275 58.7178C48.8314 59.5988 46.7802 59.6455 45.5576 58.8311C44.6491 58.226 41.8813 56.7683 40.941 56.3996C40.5575 56.2493 40.185 56.0743 40.1131 56.0107C39.8941 55.8168 40.3414 55.5474 41.3831 55.2455C42.3073 54.9776 43.0194 54.5683 42.8391 54.4087C42.7961 54.3707 41.7088 54.35 40.4229 54.3629C37.799 54.389 36.1637 54.0557 33.6965 52.9921C32.2669 52.3759 27.318 51.3813 25.2463 49.6262C23.9981 48.5689 21.4728 46.9819 21.3793 47.0234C21.2866 47.0644 20.1627 48.2982 19.4653 49.0918C18.2614 50.3906 16.4438 52.8369 16.4438 52.8369C15.5134 54.1603 22.2346 55.3706 22.3275 55.4502C22.4205 55.5297 29.9317 55.7238 30.766 55.8816C35.1935 56.7194 43.034 59.514 46.6624 61.5476C48.014 62.305 50.6958 64.1976 51.7789 65.1582C54.852 67.8834 56.9758 71.6982 57.5937 75.6019C57.7477 76.5755 57.8933 77.445 57.917 77.5341C57.9667 77.7202 60.7809 78.7341 61.2396 78.731C61.9183 78.7265 61.2238 77.2993 60.0257 76.2366C59.4099 75.6904 59.3204 75.5089 59.2749 74.7166C59.2178 73.719 59.3262 73.557 60.2188 73.3056C60.999 73.0858 61.9115 73.4172 62.8753 74.2704C63.7858 75.0763 64.9714 75.4779 66.5107 75.5019L67.5731 75.5184L67.1604 74.821C66.7606 74.1456 66.0074 73.4976 64.3114 72.37L63.6173 71.9086L64.1879 71.0143C65.0361 69.6856 65.6077 66.7099 65.0379 66.5907C64.7414 66.5287 63.4379 67.2513 62.7713 67.8471C62.4569 68.1282 61.9279 68.8617 61.5959 69.477C60.8852 70.7941 60.6486 71.0286 59.6474 71.4083C58.7868 71.7348 58.6606 71.6691 58.4137 70.7677C58.1502 69.8064 57.2884 68.4035 56.0118 66.8584C55.392 66.1081 54.8246 65.3947 54.751 65.2729C54.6604 65.1228 55.1891 65.0478 56.3941 65.0399C60.5064 65.013 64.6739 64.6044 69.8671 63.7191C73.6505 63.0742 74.5149 63.1341 76.41 64.1721C77.4564 64.7453 77.9992 65.1757 79.5377 66.6526C81.4743 68.5117 81.9551 68.81 82.3919 68.4233C82.5844 68.2529 82.5155 68.0664 82.0705 67.5517C81.2393 66.5911 81.3312 66.3924 82.8082 65.9561C83.7826 65.6685 84.0786 65.6492 84.1749 65.8672C84.2427 66.0203 84.5473 66.5201 84.852 66.9781C86.0216 68.7366 88.1066 69.3924 90.3654 68.7122C91.4799 68.3765 91.7323 68.2338 92.296 67.6199C92.6528 67.2315 93.0922 66.5754 93.2729 66.1618C94.3041 63.801 92.7349 60.57 90.1679 59.7687ZM95.1061 66.4266C94.3496 66.0134 94.2608 66.0412 93.9675 66.7831C93.2969 68.4799 91.2645 69.7348 88.9785 69.8638L87.7966 69.9304L87.8721 70.4075C88.1386 72.0928 89.9987 74.0034 91.8502 74.4936C93.7448 74.9953 95.7952 74.482 96.8606 73.2395C98.6411 71.1627 97.8004 67.8983 95.1061 66.4266ZM51.9203 44.4248C51.6266 44.4 50.9001 44.5868 50.3055 44.8399C47.4475 46.0569 46.2019 49.2806 47.5438 51.988C48.2494 53.4111 49.7608 54.706 51.2997 55.2058C52.513 55.5998 54.9068 55.6735 55.2962 55.3288C55.6716 54.9965 56.1001 52.6837 56.0186 51.4292C55.8763 49.2376 54.9101 47.1094 53.2453 45.3202C52.5851 44.6106 52.3658 44.4625 51.9203 44.4248ZM66.5031 57.0992C64.8464 55.9761 62.4641 55.2392 60.1978 55.149C58.558 55.0838 56.2295 55.4474 55.7887 55.8375C55.3333 56.2407 55.5079 58.395 56.088 59.5293C56.782 60.887 58.6233 62.3723 60.2081 62.8534C61.4796 63.2394 63.1361 63.2092 64.4962 62.7752C66.2164 62.2262 68.1237 60.2092 68.1997 58.8582C68.2221 58.461 67.6746 57.8932 66.5031 57.0992ZM58.2871 51.3842C57.8285 51.2718 57.3286 51.2544 57.1763 51.3458C57.0184 51.4404 56.87 52.0024 56.8307 52.6533C56.793 53.2812 56.7897 53.4605 56.7098 53.7599C56.6434 54.0087 56.5866 54.2775 56.651 54.4654C56.8019 54.6596 56.9031 54.6573 57.5994 54.5375C58.0569 54.459 58.8729 54.3866 59.4124 54.3769C59.9521 54.3672 60.451 54.3084 60.5211 54.2464C60.5912 54.1843 60.5408 53.7679 60.409 53.3211C60.109 52.3035 59.4009 51.6571 58.2871 51.3842ZM68.6826 66.2596C67.763 66.078 65.9655 66.0792 65.7605 66.2614C65.7082 66.3079 65.6709 66.8756 65.6779 67.5227C65.6856 68.2527 65.4863 69.2423 65.1532 70.1285L64.616 71.5578L65.9684 72.7653C66.9281 73.6222 67.4021 74.1584 67.6009 74.6123C67.8738 75.2356 67.8934 75.2496 68.367 75.162C68.6344 75.1127 69.3054 74.8371 69.8583 74.5497C71.7377 73.5732 72.8776 71.5308 72.4163 69.9666C71.9722 68.4602 70.6122 67.7353 68.669 67.9688C66.7609 68.1982 66.7755 67.7123 68.6923 67.1965C70.2375 66.7805 70.2353 66.5661 68.6826 66.2596Z" stroke="#665F5F" stroke-width="1.4" mask="url(#path-29-inside-1_378_29)"/>
<path d="M33.6917 128.27C30.4545 126.595 23.0878 123.066 19.5181 122.345" stroke="#665F5F" stroke-width="0.7"/>
<path d="M39.8509 124.017C37.2699 122.858 28.8622 120.233 17.4183 119.511" stroke="#665F5F" stroke-width="0.7"/>
<path d="M46.8154 119.769C41.041 118.309 26.7362 115.673 15.7123 116.806" stroke="#665F5F" stroke-width="0.7"/>
<path d="M55.679 115.449C51.1732 113.947 36.3591 111.311 13.6814 113.681" stroke="#665F5F" stroke-width="0.7"/>
<path d="M73.02 145.423C81.7321 134.048 104.183 111.268 123.365 111.174" stroke="#665F5F" stroke-width="0.7"/>
<path d="M92.4452 140.633C95.962 133.729 106.925 118.407 122.175 113.417" stroke="#665F5F" stroke-width="0.7"/>
<path d="M55.268 144.492C65.3389 132.333 93.3776 108.17 123.974 109.77" stroke="#665F5F" stroke-width="0.7"/>
<path d="M40.8585 139.608C51.5021 126.99 83.1731 102.973 124.708 107.843" stroke="#665F5F" stroke-width="0.7"/>
<path d="M29.0045 132.149C42.4489 119.939 80.9205 97.6719 125.605 106.049" stroke="#665F5F" stroke-width="0.7"/>
<path d="M64.2366 111.82C54.1458 109.646 34.1613 105.912 12.4722 110.929" stroke="#665F5F" stroke-width="0.7"/>
<defs>
<linearGradient id="paint0_linear_378_29" x1="14.2647" y1="114.277" x2="54.5348" y2="117.398" gradientUnits="userSpaceOnUse">
<stop stop-color="#D0989F"/>
<stop offset="1" stop-color="white" stop-opacity="0"/>
</linearGradient>
<linearGradient id="paint1_linear_378_29" x1="19.6343" y1="124.643" x2="33.2502" y2="124.896" gradientUnits="userSpaceOnUse">
<stop stop-color="#D0989F"/>
<stop offset="1" stop-color="white" stop-opacity="0"/>
</linearGradient>
<linearGradient id="paint2_linear_378_29" x1="15.8084" y1="118.329" x2="46.25" y2="119.987" gradientUnits="userSpaceOnUse">
<stop stop-color="#D0989F"/>
<stop offset="1" stop-color="white" stop-opacity="0"/>
</linearGradient>
<linearGradient id="paint3_linear_378_29" x1="13.0025" y1="110.08" x2="62.8607" y2="114.89" gradientUnits="userSpaceOnUse">
<stop stop-color="#D0989F"/>
<stop offset="1" stop-color="white" stop-opacity="0"/>
</linearGradient>
<linearGradient id="paint4_linear_378_29" x1="41.7161" y1="116.151" x2="123.578" y2="118.609" gradientUnits="userSpaceOnUse">
<stop stop-color="#D0989F"/>
<stop offset="1" stop-color="white" stop-opacity="0"/>
</linearGradient>
<linearGradient id="paint5_linear_378_29" x1="30.2612" y1="112.713" x2="124.175" y2="116.106" gradientUnits="userSpaceOnUse">
<stop stop-color="#D0989F"/>
<stop offset="1" stop-color="white" stop-opacity="0"/>
</linearGradient>
<linearGradient id="paint6_linear_378_29" x1="97.8236" y1="62.0093" x2="93.4634" y2="64.132" gradientUnits="userSpaceOnUse">
<stop stop-color="#665F5F"/>
<stop offset="1" stop-color="#D9D9D9" stop-opacity="0"/>
</linearGradient>
<linearGradient id="paint7_linear_378_29" x1="56.2431" y1="118.294" x2="122.926" y2="119.977" gradientUnits="userSpaceOnUse">
<stop stop-color="#D0989F"/>
<stop offset="1" stop-color="white" stop-opacity="0"/>
</linearGradient>
<linearGradient id="paint8_linear_378_29" x1="92.9322" y1="120.114" x2="121.676" y2="120.535" gradientUnits="userSpaceOnUse">
<stop stop-color="#D0989F"/>
<stop offset="1" stop-color="white" stop-opacity="0"/>
</linearGradient>
<linearGradient id="paint9_linear_378_29" x1="17.5135" y1="121.555" x2="39.2719" y2="122.292" gradientUnits="userSpaceOnUse">
<stop stop-color="#D0989F"/>
<stop offset="1" stop-color="white" stop-opacity="0"/>
</linearGradient>
<linearGradient id="paint10_linear_378_29" x1="73.6561" y1="119.39" x2="122.602" y2="120.344" gradientUnits="userSpaceOnUse">
<stop stop-color="#D0989F"/>
<stop offset="1" stop-color="white" stop-opacity="0"/>
</linearGradient>
<linearGradient id="paint11_linear_378_29" x1="17.2594" y1="54.7819" x2="92.1294" y2="56.9754" gradientUnits="userSpaceOnUse">
<stop stop-color="#665F5F"/>
<stop offset="1" stop-color="#665F5F" stop-opacity="0"/>
</linearGradient>
<linearGradient id="paint12_linear_378_29" x1="72.6013" y1="72.3963" x2="64.5635" y2="75.4004" gradientUnits="userSpaceOnUse">
<stop stop-color="#FFD1D7"/>
<stop offset="0.461804" stop-color="#E6B9BF"/>
<stop offset="1" stop-color="#B46E77"/>
</linearGradient>
<linearGradient id="paint13_linear_378_29" x1="68.3574" y1="59.6114" x2="58.318" y2="66.5145" gradientUnits="userSpaceOnUse">
<stop stop-color="#FFD1D7"/>
<stop offset="0.461804" stop-color="#E6B9BF"/>
<stop offset="1" stop-color="#B46E77"/>
</linearGradient>
<linearGradient id="paint14_linear_378_29" x1="60.4723" y1="52.7696" x2="57.071" y2="54.5046" gradientUnits="userSpaceOnUse">
<stop stop-color="#FFD1D7"/>
<stop offset="0.461804" stop-color="#E6B9BF"/>
<stop offset="1" stop-color="#B46E77"/>
</linearGradient>
<linearGradient id="paint15_linear_378_29" x1="56.2405" y1="49.4676" x2="46.8279" y2="52.6997" gradientUnits="userSpaceOnUse">
<stop stop-color="#FFD1D7"/>
<stop offset="0.461804" stop-color="#E6B9BF"/>
<stop offset="1" stop-color="#B46E77"/>
</linearGradient>
<linearGradient id="paint16_linear_378_29" x1="92.6086" y1="55.9993" x2="83.6271" y2="60.5798" gradientUnits="userSpaceOnUse">
<stop stop-color="#FFD1D7"/>
<stop offset="0.461804" stop-color="#E6B9BF"/>
<stop offset="1" stop-color="#B46E77"/>
</linearGradient>
<linearGradient id="paint17_linear_378_29" x1="97.9922" y1="72.1738" x2="88.7289" y2="76.8882" gradientUnits="userSpaceOnUse">
<stop stop-color="#FFD1D7"/>
<stop offset="0.461804" stop-color="#E6B9BF"/>
<stop offset="1" stop-color="#B46E77"/>
</linearGradient>
<linearGradient id="paint18_linear_378_29" x1="100.318" y1="62.8849" x2="93.4921" y2="64.735" gradientUnits="userSpaceOnUse">
<stop stop-color="#FFD1D7"/>
<stop offset="0.461804" stop-color="#E6B9BF"/>
<stop offset="1" stop-color="#B46E77"/>
</linearGradient>
<linearGradient id="paint19_linear_378_29" x1="68.3638" y1="43.9823" x2="59.9514" y2="51.2233" gradientUnits="userSpaceOnUse">
<stop stop-color="#665F5F"/>
<stop offset="1" stop-color="#D9D9D9" stop-opacity="0"/>
</linearGradient>
<linearGradient id="paint20_linear_378_29" x1="81.4306" y1="45.7377" x2="64.626" y2="59.8686" gradientUnits="userSpaceOnUse">
<stop stop-color="#FFD1D7"/>
<stop offset="0.461804" stop-color="#E6B9BF"/>
<stop offset="1" stop-color="#B46E77"/>
</linearGradient>
<linearGradient id="paint21_linear_378_29" x1="83.7216" y1="65.843" x2="93.9983" y2="61.3828" gradientUnits="userSpaceOnUse">
<stop stop-color="#C9C9C9"/>
<stop offset="0.761209" stop-color="#E9BCC2"/>
</linearGradient>
<linearGradient id="paint22_linear_378_29" x1="90.4753" y1="53.0136" x2="96.9217" y2="40.6061" gradientUnits="userSpaceOnUse">
<stop stop-color="#665F5F"/>
<stop offset="1" stop-color="#665F5F" stop-opacity="0"/>
</linearGradient>
<linearGradient id="paint23_linear_378_29" x1="95.1195" y1="32.9937" x2="96.3395" y2="43.6508" gradientUnits="userSpaceOnUse">
<stop stop-color="#FFD1D7"/>
<stop offset="0.617708" stop-color="#D9ADB2"/>
<stop offset="1" stop-color="#BAB8B8"/>
</linearGradient>
<linearGradient id="paint24_linear_378_29" x1="113.239" y1="44.4047" x2="108.018" y2="46.7971" gradientUnits="userSpaceOnUse">
<stop stop-color="#FFD1D7"/>
<stop offset="0.461804" stop-color="#E6B9BF"/>
<stop offset="1" stop-color="#B46E77"/>
</linearGradient>
</defs>
</svg>
