<svg width="25" height="25" viewBox="0 0 25 25" fill="none" xmlns="http://www.w3.org/2000/svg">
<path d="M20.1147 0C21.3933 0 22.4866 0.453977 23.3946 1.36193C24.3025 2.26989 24.7565 3.36319 24.7565 4.64185V20.1147C24.7565 21.3933 24.3025 22.4866 23.3946 23.3946C22.4866 24.3025 21.3933 24.7565 20.1147 24.7565H8.42947C9.34279 23.4456 9.92303 22.3174 10.1702 21.3718C10.2669 21.0065 10.5516 19.8837 11.0244 18.0033C11.25 18.4223 11.6449 18.7823 12.209 19.0832C12.7731 19.384 13.3775 19.5344 14.0223 19.5344C15.9671 19.5344 17.5547 18.742 18.785 17.1571C20.0153 15.5722 20.6304 13.5656 20.6304 11.1372C20.6304 10.2346 20.4424 9.3616 20.0663 8.51811C19.6902 7.67463 19.1718 6.92785 18.511 6.27778C17.8502 5.6277 17.0309 5.10657 16.0531 4.71438C15.0753 4.32218 14.0169 4.12609 12.8779 4.12609C11.7604 4.12609 10.7155 4.2792 9.74305 4.58544C8.77062 4.89167 7.94863 5.30267 7.27706 5.81843C6.6055 6.33419 6.02796 6.92248 5.54443 7.5833C5.0609 8.24412 4.70363 8.9318 4.47261 9.64634C4.2416 10.3609 4.12609 11.0727 4.12609 11.7819C4.12609 12.8779 4.3383 13.845 4.76273 14.6831C5.18716 15.5212 5.81306 16.1122 6.64042 16.456C6.78011 16.5097 6.90636 16.5097 7.01918 16.456C7.13201 16.4023 7.20991 16.3002 7.25289 16.1498C7.36034 15.677 7.44093 15.3493 7.49465 15.1666C7.55912 14.9195 7.50002 14.6938 7.31736 14.4897C6.78011 13.8235 6.51148 13.0176 6.51148 12.072C6.51148 10.4603 7.06754 9.08223 8.17965 7.93788C9.29176 6.79354 10.745 6.22137 12.5394 6.22137C14.1404 6.22137 15.3896 6.65654 16.2868 7.52689C17.184 8.39723 17.6326 9.52546 17.6326 10.9116C17.6326 12.7167 17.2699 14.2533 16.5446 15.5212C15.8194 16.7891 14.8872 17.423 13.7483 17.423C13.1036 17.423 12.5824 17.1893 12.1849 16.7219C11.7873 16.2545 11.6637 15.6985 11.8141 15.0538C11.9001 14.6884 12.0425 14.1915 12.2413 13.5629C12.44 12.9343 12.5985 12.3863 12.7167 11.9189C12.8349 11.4515 12.894 11.0513 12.894 10.7182C12.894 10.1917 12.7517 9.75379 12.4669 9.40458C12.1822 9.05537 11.7765 8.88076 11.25 8.88076C10.5946 8.88076 10.0385 9.1843 9.58187 9.7914C9.12521 10.3985 8.89688 11.148 8.89688 12.0398C8.89688 12.8134 9.02582 13.4635 9.2837 13.99L7.70418 20.6627C7.4463 21.7372 7.40869 23.1018 7.59136 24.7565H4.64185C3.36319 24.7565 2.26989 24.3025 1.36193 23.3946C0.453977 22.4866 0 21.3933 0 20.1147V4.64185C0 3.36319 0.453977 2.26989 1.36193 1.36193C2.26989 0.453977 3.36319 0 4.64185 0H20.1147Z" fill="#665F5F"/>
</svg>
