<svg width="79" height="87" viewBox="0 0 79 87" fill="none" xmlns="http://www.w3.org/2000/svg">
<path d="M9.28366 69.4964L8.20599 67.6412C20.3616 65.9633 29.7205 67.5969 32.8805 68.6234L27.7152 71.1334C16.7455 68.7471 10.8568 69.0478 9.28366 69.4964Z" fill="url(#paint0_linear_4645_2)"/>
<path d="M19.854 76.2569C18.1158 74.9034 13.5992 73.2921 11.5582 72.6557C11.8545 73.1197 13.5416 74.9759 14.3481 75.846L17.1875 78.5771L19.854 76.2569Z" fill="url(#paint1_linear_4645_2)"/>
<path d="M9.1839 69.4057L10.3089 71.1254L13.2373 71.254L16.1508 71.689L21.1382 72.8008L23.4838 73.7676L27.7799 71.254L26.5701 70.9156L23.2369 70.2147L19.1136 69.683L15.5088 69.4057L11.4596 69.2479L9.1839 69.4057Z" fill="url(#paint2_linear_4645_2)"/>
<path d="M38.0459 66.4802C23.6948 63.0284 11.6331 64.7075 7.39618 65.9785L8.06251 67.584C22.4956 66.2193 30.6483 67.7178 32.9205 68.6376L38.0459 66.4802Z" fill="url(#paint3_linear_4645_2)"/>
<path d="M26.8089 84.0016L24.2262 82.8428L27.8443 79.3301L32.0276 75.6446L38.1458 71.7031L45.2574 68.2735L51.0095 66.1748L55.7463 64.9836L60.5161 64.1193L65.2859 63.757H69.1427L74.1307 64.1193L73.7121 65.2872C55.4163 64.1712 39.1904 78.4849 32.7279 85.7504L30.9629 85.329L26.8089 84.0016Z" fill="url(#paint4_linear_4645_2)"/>
<path d="M74.1695 64.2444C48.8012 61.3256 30.3511 75.4933 24.297 82.942C21.2393 81.6754 18.7971 79.5215 17.3578 78.4837C38.5669 60.7945 62.3953 60.632 74.6322 63.0809L74.1695 64.2444Z" fill="url(#paint5_linear_4645_2)"/>
<path d="M55.8844 39.4874L54.9318 36.4934L55.8844 34.5712L57.0582 35.5238L57.7897 37.6161L58.1469 40.2358L55.8844 39.4874Z" fill="url(#paint6_linear_4645_2)"/>
<path d="M43.3972 86.3395C39.2658 86.8321 34.7018 86.1343 32.9362 85.7238C47.8813 68.0442 66.2569 64.7038 73.5766 65.2436L73.3202 66.0138C60.5526 66.994 48.0517 79.9727 43.3972 86.3395Z" fill="url(#paint7_linear_4645_2)"/>
<path d="M54.9307 83.413C57.2629 79.0638 64.1518 69.8097 72.4415 67.5902C70.4045 71.4916 63.9289 80.1186 54.9307 83.413Z" fill="url(#paint8_linear_4645_2)"/>
<path d="M11.642 72.7427L10.2495 71.0009C17.6144 71.5159 22.1632 72.9825 23.517 73.6515L19.9971 76.1884C15.6648 73.8559 12.6219 72.9194 11.642 72.7427Z" fill="url(#paint9_linear_4645_2)"/>
<path d="M73.1964 66.0942C61.3846 66.3969 48.3929 79.7217 43.3735 86.3462C46.3005 86.5106 52.3372 84.5885 54.9896 83.6069L55.2695 82.8307L56.7154 80.3653L59.7937 76.5529L61.5894 74.4983L64.6677 71.7589L68.399 69.3163L71.8737 67.6498L72.4801 67.49L73.1964 66.0942Z" fill="url(#paint10_linear_4645_2)"/>
<path d="M10.5641 32.1823L9.76666 31.5593L12.7102 27.6936L14.1834 28.6981L15.3587 29.7396L17.0678 30.5452L19.3321 31.3616L21.2806 32.1128L22.7502 32.4285L25.1669 32.5482L23.632 33.1905V33.4517L25.6895 34.5948L27.4093 35.6322L28.2818 35.8321L29.6815 35.5594L30.5076 35.0414L31.3811 33.9417L32.2354 33.7417V34.0598L31.7355 34.9596L30.5076 36.1229L29.6815 36.4683L29.2998 36.8046L29.4634 36.9954L30.7539 37.5226L32.607 37.9455L34.4812 38.1731L36.0408 38.7697H37.2502L38.6928 38.4207L39.7399 37.7401L41.6342 37.2863L43.1255 37.0999L44.7439 36.9135L48.5614 34.9213L48.8731 35.6722L45.5799 37.3583L45.4877 37.6086L47.2792 39.2156L48.7956 39.0444L49.6108 38.6624L49.7177 37.7666L50.2431 36.7919L51.0598 36.1596L52.0214 35.8698L53.141 35.9488L53.8919 36.2386L54.8272 37.2002L55.4067 38.557L55.2882 40.038L54.3002 41.4023L52.6537 41.9028L51.3496 41.5895L50.467 40.7173L49.9533 39.7599H49.7177L48.7956 40.038L48.4151 40.2594L48.3126 40.5942L48.5614 41.1504L48.7956 41.5895H48.5614L47.7272 40.9572L47.0421 40.2594L45.8461 39.1263L44.7439 38.3271L43.4073 38.116L40.8512 38.5381L36.9411 39.1263L34.2132 39.3043L32.4257 39.3605L32.3328 39.4667L32.9964 40.5105L34.2132 42.3782L34.7294 43.7992H35.1862L36.1809 43.2308C36.8792 41.3956 38.0215 40.6527 38.5053 40.5105L38.6068 40.9572L38.3531 42.3782L37.5191 43.9305L38.1185 44.3579L39.3411 45.3609L39.8515 46.1146L39.1927 46.1562L37.9921 45.8299L37.2568 45.3256L36.5985 44.7864L35.9542 44.6393L35.2456 44.9051L35.0428 45.2369V46.1219L35.4115 46.7302L36.1858 47.6704L36.3885 48.3157L36.0198 48.2235L34.5081 47.6704L34.3975 47.3017L34.2132 45.6425L33.4389 43.3565L32.4802 41.4577L31.5585 40.2594L30.5076 39.1348L28.9408 37.8456L26.973 36.5772L24.8589 35.5038L21.6486 34.2878L19.6426 33.5948L17.9419 33.22L16.2841 33.1568L14.1834 33.0808L13.0192 32.9416L12.2599 32.7012L10.5641 32.1823Z" fill="url(#paint11_linear_4645_2)"/>
<path d="M40.0636 40.2614H39.0961L39.0362 41.2374L38.9335 42.222L38.4283 43.6432L39.5156 44.7134L40.3118 45.9291H40.5772L41.2964 45.5695L42.3066 44.7733L42.7775 43.8572L42.8803 42.8299L42.5207 42.0593L42.0241 41.6313L41.3906 41.4686H40.7485H40.0636L39.7211 41.2888L39.9865 41.032L41.2279 40.4926L40.0636 40.2614Z" fill="url(#paint12_linear_4645_2)"/>
<path d="M35.1756 33.0273L33.0713 33.3858V33.8846V34.9913L33.6013 36.2227L34.7703 37.3138L36.0797 37.9997H37.0461L38.2307 37.8126L39.2439 37.158L40.1012 36.0513L40.2571 35.6148V35.0693L38.8074 33.8846L37.4358 33.2923L35.1756 33.0273Z" fill="url(#paint13_linear_4645_2)"/>
<path d="M33.9711 30.4849L33.697 32.2878L33.8614 32.4279L35.5547 32.2878L35.78 32.1294L35.5181 31.3498L34.9456 30.7041L33.9711 30.4849Z" fill="url(#paint14_linear_4645_2)"/>
<path d="M31.9139 27.1477L30.8361 25.9553L29.8959 26.2534L28.8181 27.0101L28.0385 28.409V30.0371L28.7035 31.5965L29.8959 32.5596L31.1113 33.0412H32.7624L32.9458 32.1469L33.1522 30.3582L32.7624 28.7759L31.9139 27.1477Z" fill="url(#paint15_linear_4645_2)"/>
<path d="M54.134 35.5181C52.4302 34.4449 50.7187 35.3504 50.0759 35.9373L49.2878 34.8305L49.2039 33.8412L49.2878 33.1033L49.7238 32.2314L50.4448 31.4265L51.2665 30.9066L52.2055 30.806L53.1111 31.0072L53.9998 31.6612L54.5867 32.6506L54.7041 34.0089L54.134 35.5181Z" fill="url(#paint16_linear_4645_2)"/>
<path d="M56.0289 40.314C55.3179 42.2323 53.1949 42.7455 52.2224 42.7622L52.5913 44.0534L53.698 45.1266L55.0395 45.6129L56.3978 45.3949L57.3201 44.808L57.756 43.8522L57.8902 42.7622L57.5884 41.7561L56.8673 40.8338L56.0289 40.314Z" fill="url(#paint17_linear_4645_2)"/>
<path d="M55.375 34.8306L54.8384 35.8871L55.1067 36.3734L55.375 35.8871L55.6433 35.3672L55.7943 35.1325L56.4985 35.3672V35.8871L55.6433 36.7423V37.0106L55.7943 37.2621L56.9178 36.7423H57.2531L57.5382 37.2621L57.3705 37.6478L56.1296 37.849L55.9284 37.9832L56.0458 38.4024L56.3141 38.5198H57.0855L57.773 38.7378V39.1402L57.6388 39.593H57.0855L56.4985 39.2408H56.1296V39.593L57.0855 40.0793L57.773 40.8003L58.4437 41.7729L59.1145 40.8003L59.3157 39.8277V38.8719L58.9468 37.9832L57.9574 36.8429L58.0748 36.1051V35.3672L57.773 34.5623L57.3705 33.8748L56.6495 33.3215L55.9284 33.137H55.4589L55.375 34.8306Z" fill="url(#paint18_linear_4645_2)"/>
<path d="M38.7726 33.5073L32.4578 27.0977L31.7316 24.9822L33.405 24.2245L38.2358 24.5402L41.4564 27.7924L42.3405 33.1599L38.7726 33.5073Z" fill="url(#paint19_linear_4645_2)"/>
<path d="M32.6144 26.9875L33.3204 27.6532L33.4059 26.2006L33.1237 25.4585L33.2366 24.9419L33.8574 24.7077L34.2476 25.2124L34.1255 26.2006L34.2476 28.2607L34.73 26.5395V25.3369L34.9188 24.7846L35.6131 24.7077L35.9755 25.0922L35.6131 25.9664L35.041 28.2607V28.7929L35.9755 27.0033L36.4625 25.7291L36.5588 25.0381L37.0232 24.9419L37.5216 25.1288L37.6631 25.6328L36.236 27.9547L35.9472 28.7419L37.1731 27.2153L37.8111 26.2006L38.3397 25.599L38.8987 25.7691L39.1418 26.3886L38.5729 26.8844L37.0672 28.6156L36.8498 29.1195L38.6785 27.7622L39.3531 26.8275L39.9546 26.8844L40.3041 27.3395L40.1984 27.7622L39.4913 28.0792L37.0672 29.984L39.58 28.9052L40.0536 28.3658L40.8035 28.2342L41.093 28.971L40.8825 29.392L40.1326 29.4709L37.1461 30.9444L39.0406 30.5365L40.1326 30.1813L40.8825 29.984L41.3429 30.2734L41.2508 30.9444L40.8035 31.1549H39.58L38.1986 31.4443L37.725 31.7337H39.6853L40.8825 31.5627L41.2508 31.9442L41.093 32.6547L40.6062 32.7599L39.6853 32.4705H38.9222H38.3696L38.4486 32.7599L39.8826 33.6809L41.014 34.6807L42.6322 35.8911L43.9215 35.9963L45.395 35.5753L46.7369 34.4702L47.4079 33.2204L47.5921 31.5627L47.3026 30.2734L46.9211 29.4709L45.8555 28.1158L45.5397 27.5764L45.7239 27.2081L46.1449 26.2082L46.3028 24.8268L46.1449 23.7217L45.3555 22.235L44.3408 21.0819L43.2052 20.3392L41.5368 19.8131H40.1316L38.1817 20.6032L37.748 20.1191L36.5983 19.3425L35.2266 18.7474L33.8146 18.576L32.5135 18.8382L31.0007 19.6148L29.982 21.1378L29.6895 22.6506L30.093 23.8004L31.273 25.2124L32.6144 26.9875Z" fill="url(#paint20_linear_4645_2)"/>
<path d="M49.8314 37.4415L49.6484 38.6047L50.0536 39.9118L50.6941 41.0358L51.6221 41.7416L52.8245 41.8854L54.027 41.5456L54.9681 40.6306L55.334 39.5066V38.4871L54.9681 37.4415L54.2492 36.605L53.6088 36.1344L52.8245 35.9645H51.7528L50.7856 36.3697L49.8314 37.4415Z" fill="url(#paint21_linear_4645_2)"/>
<path d="M53.8798 29.7885L53.6532 28.1459V27.9004L55.0127 30.2795L57.1142 28.5452L56.9591 27.4706L56.6156 26.2298L55.5632 25.7831L54.5772 24.6973L54.0233 23.6374L53.8792 22.0483L54.1562 20.9564L54.6769 20.469V21.0376L54.8431 21.1558L55.8069 20.2141L56.6932 19.8042H57.6016L58.5322 20.6241L59.0307 22.6736L58.5322 24.568L57.5239 25.8856L58.0237 27.3143H58.2142L60.7724 24.6973L61.0385 22.0483L60.8864 21.0376L61.0385 20.8232L61.9166 23.0497L62.2485 23.1535L65.9067 18.5073L61.5931 25.3344L62.1226 25.7831L62.5533 25.6395L64.6083 24.6973V24.8498L63.5314 26.2946L63.3071 26.6165L64.0191 27.6675V27.9004L62.2253 26.9186L61.1869 26.6165H60.4694L59.1477 27.9004L58.7323 28.6368L59.2798 29.7885L58.5246 29.9396H57.5239L56.6742 30.2795L55.0127 31.6011L54.0308 30.506L53.8798 29.7885Z" fill="url(#paint22_linear_4645_2)"/>
<path d="M58.6768 24.2305L57.5142 25.8878L56.5866 26.2712L56.0548 26.0115L54.9788 25.2818L54.3604 24.3542L53.8286 23.0185L53.9399 21.8312L54.2368 20.8294L54.6078 20.5821L54.7933 21.2252L55.0901 20.9778L55.6343 20.31L56.3393 19.8771L57.3782 19.7287L58.3428 20.31L58.8128 21.6457L58.986 23.0185L58.6768 24.2305Z" fill="url(#paint23_linear_4645_2)"/>
<path d="M64.7602 28.1951L64.1027 26.6762L64.5935 25.9169L65.1399 24.7037H65.7326L66.2049 24.9444L65.5844 25.2501V25.4353L66.8995 26.065L67.0384 26.491L66.7143 27.6672L65.4918 28.2877L64.7602 28.1951Z" fill="url(#paint24_linear_4645_2)"/>
<path d="M2.56851 54.3551C2.73882 54.3891 2.90232 54.4096 3.059 54.4164C3.21568 54.4164 3.35534 54.4096 3.47796 54.396C3.6074 54.3755 3.73343 54.3483 3.85605 54.3142C3.97867 54.2801 4.08086 54.2427 4.16261 54.2018C4.25117 54.1609 4.33632 54.1167 4.41807 54.069C4.49982 54.0145 4.56454 53.9668 4.61222 53.9259C4.66672 53.885 4.71781 53.8408 4.7655 53.7931C4.81319 53.7454 4.84384 53.7147 4.85747 53.7011C4.8779 53.6807 4.89494 53.6602 4.90856 53.6398L5.14359 53.65C5.02096 53.7794 4.91197 53.8918 4.81659 53.9872C4.72122 54.0758 4.55772 54.1848 4.3261 54.3142C4.10129 54.4436 3.86967 54.5288 3.63124 54.5697C3.08625 54.6514 2.55488 54.5697 2.03714 54.3244C1.52622 54.0792 1.09363 53.7045 0.739386 53.2004C0.385143 52.6895 0.156928 52.1104 0.0547423 51.4632C-0.0474434 50.8161 -0.006569 50.1995 0.177365 49.6137C0.361299 49.021 0.657638 48.5305 1.06638 48.1422C1.48194 47.7471 1.96221 47.5086 2.5072 47.4269C3.29062 47.3043 4.01955 47.5086 4.69397 48.04C4.74166 48.0809 4.78594 48.1184 4.82681 48.1524L5.2049 48.3977L4.87791 49.348C4.92559 49.2049 4.9324 49.0346 4.89834 48.8371C4.86428 48.6395 4.80637 48.493 4.72463 48.3977C4.71781 48.3908 4.70078 48.3772 4.67353 48.3568C4.6531 48.3295 4.62585 48.3023 4.59178 48.275C4.56454 48.2478 4.5475 48.2274 4.54069 48.2137C4.25457 47.9344 3.92758 47.7675 3.55971 47.713C2.98747 47.6245 2.44589 47.8152 1.93496 48.2853C1.43084 48.7553 1.0766 49.3855 0.872228 50.1757C0.85179 50.2574 0.834759 50.3392 0.821135 50.4209C0.80751 50.4959 0.793885 50.5742 0.78026 50.656C0.6917 51.2486 0.712137 51.8175 0.841572 52.3625C0.971007 52.9006 1.189 53.3469 1.49556 53.7011C1.80212 54.0553 2.15977 54.2733 2.56851 54.3551Z" fill="#665F5F"/>
<path d="M10.4925 54.1405C10.4993 54.2495 10.5096 54.3381 10.5232 54.4062C10.5436 54.4743 10.5743 54.522 10.6152 54.5492C10.656 54.5697 10.6901 54.5833 10.7173 54.5901C10.7514 54.5969 10.7991 54.6003 10.8604 54.6003H9.39914C9.46045 54.6003 9.50473 54.5969 9.53198 54.5901C9.56604 54.5833 9.60351 54.5663 9.64439 54.539C9.68526 54.5118 9.71592 54.4641 9.73635 54.396C9.75679 54.3278 9.76701 54.2393 9.76701 54.1303V50.6866H6.8445V54.1405C6.8445 54.2222 6.85131 54.2938 6.86494 54.3551C6.87856 54.4164 6.89219 54.4641 6.90581 54.4981C6.92625 54.5254 6.9535 54.5492 6.98756 54.5697C7.02162 54.5833 7.05228 54.5935 7.07953 54.6003C7.10678 54.6003 7.14084 54.6003 7.18171 54.6003H5.74089C5.80221 54.6003 5.84649 54.5969 5.87374 54.5901C5.9078 54.5833 5.94527 54.5663 5.98614 54.539C6.02701 54.5118 6.05767 54.4641 6.07811 54.396C6.09854 54.3278 6.10876 54.2393 6.10876 54.1303V47.9174C6.10876 47.8016 6.09854 47.7096 6.07811 47.6415C6.05767 47.5734 6.02701 47.5257 5.98614 47.4984C5.94527 47.4712 5.9078 47.4576 5.87374 47.4576C5.84649 47.4507 5.80221 47.4473 5.74089 47.4473H6.10876H6.8445H7.20215C7.15446 47.4473 7.11699 47.4473 7.08974 47.4473C7.06931 47.4473 7.03865 47.4576 6.99778 47.478C6.96372 47.4916 6.93647 47.5155 6.91603 47.5495C6.89559 47.5768 6.87856 47.6211 6.86494 47.6824C6.85131 47.7437 6.8445 47.8186 6.8445 47.9072V50.4414H9.76701V47.9174C9.76701 47.8016 9.75679 47.7096 9.73635 47.6415C9.71592 47.5734 9.68526 47.5257 9.64439 47.4984C9.60351 47.4712 9.56604 47.4576 9.53198 47.4576C9.50473 47.4507 9.46045 47.4473 9.39914 47.4473H9.76701H10.4925H10.8604C10.7991 47.4473 10.7514 47.4507 10.7173 47.4576C10.6901 47.4576 10.656 47.4712 10.6152 47.4984C10.5743 47.5257 10.5436 47.5734 10.5232 47.6415C10.5096 47.7096 10.4993 47.7982 10.4925 47.9072V54.1405Z" fill="#665F5F"/>
<path d="M15.1773 54.3551C15.2999 54.3551 15.4395 54.2733 15.5962 54.1098C15.7597 53.9463 15.8619 53.7828 15.9028 53.6193L15.6575 54.6003H11.5088C11.5701 54.6003 11.6144 54.5969 11.6416 54.5901C11.6757 54.5833 11.7132 54.5663 11.754 54.539C11.7949 54.5118 11.8256 54.4641 11.846 54.396C11.8664 54.3278 11.8767 54.2393 11.8767 54.1303V47.9174C11.8767 47.8016 11.8664 47.7096 11.846 47.6415C11.8256 47.5734 11.7949 47.5257 11.754 47.4984C11.7132 47.4712 11.6757 47.4576 11.6416 47.4576C11.6144 47.4507 11.5701 47.4473 11.5088 47.4473H12.97C12.97 47.4473 12.9632 47.4473 12.9496 47.4473C12.9428 47.4473 12.9394 47.4473 12.9394 47.4473H15.4225L15.6575 48.4181C15.6303 48.3159 15.5724 48.2069 15.4838 48.0911C15.4021 47.9753 15.3067 47.8799 15.1977 47.805C15.0955 47.73 15.007 47.6926 14.932 47.6926H12.6226C12.6158 47.7471 12.6124 47.8186 12.6124 47.9072V50.4414H14.5846C14.7004 50.4414 14.789 50.4346 14.8503 50.4209C14.9184 50.4005 14.9661 50.3698 14.9933 50.329C15.0206 50.2813 15.0376 50.2438 15.0444 50.2166C15.0512 50.1825 15.0546 50.1348 15.0546 50.0735V51.0545C15.0546 50.9932 15.0512 50.9489 15.0444 50.9216C15.0376 50.8876 15.0206 50.8501 14.9933 50.8092C14.9661 50.7616 14.9184 50.7309 14.8503 50.7173C14.7821 50.6968 14.6936 50.6866 14.5846 50.6866H12.6124V54.1405C12.6124 54.2291 12.6158 54.3006 12.6226 54.3551H15.1773Z" fill="#665F5F"/>
<path d="M21.2611 54.3857C21.268 54.3857 21.2782 54.3994 21.2918 54.4266C21.3122 54.4471 21.3259 54.4607 21.3327 54.4675C21.3395 54.4743 21.3497 54.4879 21.3633 54.5084C21.3838 54.5288 21.4008 54.5424 21.4144 54.5492C21.428 54.556 21.4451 54.5663 21.4655 54.5799C21.4928 54.5867 21.5166 54.5935 21.537 54.6003C21.5643 54.6003 21.5949 54.6003 21.629 54.6003H20.5254H20.5152H20.1575C20.2597 54.6003 20.3312 54.5867 20.3721 54.5595C20.4334 54.5254 20.4437 54.4811 20.4028 54.4266L17.8481 50.6866H17.5927V54.1303C17.5927 54.2461 17.6029 54.3381 17.6233 54.4062C17.6438 54.4743 17.6744 54.522 17.7153 54.5492C17.7562 54.5697 17.7902 54.5833 17.8175 54.5901C17.8515 54.5969 17.8992 54.6003 17.9605 54.6003H16.4993C16.5606 54.6003 16.6049 54.5969 16.6321 54.5901C16.6662 54.5833 16.7037 54.5697 16.7445 54.5492C16.7854 54.522 16.8161 54.4743 16.8365 54.4062C16.8569 54.3381 16.8672 54.2461 16.8672 54.1303V47.9174C16.8672 47.8016 16.8569 47.7096 16.8365 47.6415C16.8161 47.5734 16.7854 47.5257 16.7445 47.4984C16.7037 47.4712 16.6662 47.4576 16.6321 47.4576C16.6049 47.4507 16.5606 47.4473 16.4993 47.4473H17.5927H17.6029H17.9605C17.9265 47.4473 17.8992 47.4473 17.8788 47.4473H18.3386C18.8019 47.4473 19.2208 47.4916 19.5955 47.5802C19.7249 47.6074 19.8544 47.6449 19.9838 47.6926C20.3176 47.8084 20.5901 47.9617 20.8013 48.1524C21.0193 48.3364 21.159 48.5373 21.2203 48.7553C21.2816 48.9665 21.2816 49.1777 21.2203 49.3889C21.159 49.6 21.0193 49.801 20.8013 49.9918C20.5901 50.1757 20.3176 50.3256 19.9838 50.4414C19.8544 50.4891 19.7215 50.5265 19.5853 50.5538C19.5785 50.5606 19.5717 50.564 19.5649 50.564C19.306 50.6253 19.0267 50.6628 18.7269 50.6764L21.2611 54.3857ZM18.3386 50.4414C18.4204 50.4414 18.4953 50.4414 18.5634 50.4414C19.1902 50.4073 19.6739 50.2574 20.0145 49.9918C20.3619 49.7261 20.5356 49.4195 20.5356 49.0721C20.5356 48.929 20.5084 48.7928 20.4539 48.6633C20.3994 48.5271 20.3108 48.4011 20.1882 48.2853C20.0656 48.1694 19.9191 48.0673 19.7488 47.9787C19.5785 47.8901 19.3707 47.822 19.1255 47.7743C18.887 47.7198 18.6247 47.6926 18.3386 47.6926H17.6131C17.5995 47.7539 17.5927 47.8288 17.5927 47.9174V50.4414H18.3386Z" fill="#665F5F"/>
<path d="M26.8794 54.3857C26.8862 54.3857 26.8964 54.3994 26.91 54.4266C26.9304 54.4471 26.9441 54.4607 26.9509 54.4675C26.9577 54.4743 26.9679 54.4879 26.9815 54.5084C27.002 54.5288 27.019 54.5424 27.0326 54.5492C27.0463 54.556 27.0633 54.5663 27.0837 54.5799C27.111 54.5867 27.1348 54.5935 27.1553 54.6003C27.1825 54.6003 27.2132 54.6003 27.2472 54.6003H26.1436H26.1334H25.7757C25.8779 54.6003 25.9495 54.5867 25.9903 54.5595C26.0516 54.5254 26.0619 54.4811 26.021 54.4266L23.4664 50.6866H23.2109V54.1303C23.2109 54.2461 23.2211 54.3381 23.2415 54.4062C23.262 54.4743 23.2926 54.522 23.3335 54.5492C23.3744 54.5697 23.4084 54.5833 23.4357 54.5901C23.4698 54.5969 23.5174 54.6003 23.5788 54.6003H22.1175C22.1788 54.6003 22.2231 54.5969 22.2503 54.5901C22.2844 54.5833 22.3219 54.5697 22.3627 54.5492C22.4036 54.522 22.4343 54.4743 22.4547 54.4062C22.4752 54.3381 22.4854 54.2461 22.4854 54.1303V47.9174C22.4854 47.8016 22.4752 47.7096 22.4547 47.6415C22.4343 47.5734 22.4036 47.5257 22.3627 47.4984C22.3219 47.4712 22.2844 47.4576 22.2503 47.4576C22.2231 47.4507 22.1788 47.4473 22.1175 47.4473H23.2109H23.2211H23.5788C23.5447 47.4473 23.5174 47.4473 23.497 47.4473H23.9568C24.4201 47.4473 24.839 47.4916 25.2137 47.5802C25.3432 47.6074 25.4726 47.6449 25.602 47.6926C25.9358 47.8084 26.2083 47.9617 26.4195 48.1524C26.6375 48.3364 26.7772 48.5373 26.8385 48.7553C26.8998 48.9665 26.8998 49.1777 26.8385 49.3889C26.7772 49.6 26.6375 49.801 26.4195 49.9918C26.2083 50.1757 25.9358 50.3256 25.602 50.4414C25.4726 50.4891 25.3398 50.5265 25.2035 50.5538C25.1967 50.5606 25.1899 50.564 25.1831 50.564C24.9242 50.6253 24.6449 50.6628 24.3451 50.6764L26.8794 54.3857ZM23.9568 50.4414C24.0386 50.4414 24.1135 50.4414 24.1817 50.4414C24.8084 50.4073 25.2921 50.2574 25.6327 49.9918C25.9801 49.7261 26.1538 49.4195 26.1538 49.0721C26.1538 48.929 26.1266 48.7928 26.0721 48.6633C26.0176 48.5271 25.929 48.4011 25.8064 48.2853C25.6838 48.1694 25.5373 48.0673 25.367 47.9787C25.1967 47.8901 24.9889 47.822 24.7437 47.7743C24.5052 47.7198 24.243 47.6926 23.9568 47.6926H23.2313C23.2177 47.7539 23.2109 47.8288 23.2109 47.9174V50.4414H23.9568Z" fill="#665F5F"/>
<path d="M30.7248 47.4167H31.6036C31.5082 47.4167 31.4401 47.4269 31.3992 47.4473C31.3924 47.4473 31.3856 47.4507 31.3788 47.4576C31.3788 47.4576 31.372 47.461 31.3584 47.4678C31.3584 47.4746 31.355 47.478 31.3481 47.478C31.3413 47.4848 31.3345 47.495 31.3277 47.5086C31.3209 47.5086 31.3175 47.5121 31.3175 47.5189C31.3107 47.5325 31.3039 47.5461 31.297 47.5597C31.2902 47.5666 31.2868 47.57 31.2868 47.57L29.7745 50.6253V54.1405C29.7745 54.2495 29.7813 54.3381 29.7949 54.4062C29.8154 54.4743 29.846 54.522 29.8869 54.5492C29.9278 54.5697 29.9618 54.5833 29.9891 54.5901C30.0231 54.5969 30.0708 54.6003 30.1321 54.6003H29.7745H29.0796H28.6709C28.7322 54.6003 28.7765 54.5969 28.8037 54.5901C28.8378 54.5833 28.8752 54.5697 28.9161 54.5492C28.957 54.522 28.9876 54.4743 29.0081 54.4062C29.0285 54.3381 29.0387 54.2461 29.0387 54.1303V54.1405V50.6764L27.5264 47.8765L27.4344 47.6824C27.2777 47.5121 27.0836 47.4235 26.852 47.4167H28.4767C28.3337 47.4167 28.2383 47.4473 28.1906 47.5086C28.177 47.5291 28.1736 47.5529 28.1804 47.5802V47.5904L29.0387 49.1743L29.6621 50.3392L29.7745 50.1144L31.0314 47.5495C30.9905 47.461 30.8883 47.4167 30.7248 47.4167Z" fill="#665F5F"/>
<path d="M42.2894 50.6866C42.6573 50.8092 42.9707 50.9693 43.2295 51.1669C43.4884 51.3645 43.6757 51.579 43.7916 51.8107C43.9142 52.0355 43.9755 52.2739 43.9755 52.526C43.9755 52.778 43.9142 53.0199 43.7916 53.2515C43.6689 53.4763 43.4748 53.6875 43.2091 53.885C42.9434 54.0826 42.6266 54.2427 42.2588 54.3653C42.1157 54.4062 41.9692 54.4436 41.8194 54.4777C41.4379 54.5595 41.0223 54.6003 40.5727 54.6003H40.1129C40.1333 54.6003 40.1606 54.6003 40.1946 54.6003H39.837H39.1012H38.7334C38.7947 54.6003 38.839 54.5969 38.8662 54.5901C38.9003 54.5833 38.9377 54.5663 38.9786 54.539C39.0195 54.5118 39.0501 54.4641 39.0706 54.396C39.091 54.3278 39.1012 54.2393 39.1012 54.1303V47.9174C39.1012 47.8016 39.091 47.7096 39.0706 47.6415C39.0501 47.5734 39.0195 47.5257 38.9786 47.4984C38.9377 47.4712 38.9003 47.4576 38.8662 47.4576C38.839 47.4507 38.7947 47.4473 38.7334 47.4473H39.837H40.1946C40.1606 47.4473 40.1333 47.4473 40.1129 47.4473H40.5727C41.0359 47.4473 41.4549 47.4916 41.8296 47.5802C41.959 47.6074 42.0885 47.6449 42.2179 47.6926C42.6335 47.8356 42.9536 48.0366 43.1784 48.2955C43.4032 48.5475 43.5157 48.8064 43.5157 49.0721C43.5157 49.331 43.4032 49.5898 43.1784 49.8487C42.9536 50.1008 42.6335 50.2983 42.2179 50.4414C42.0885 50.4891 41.9556 50.5265 41.8194 50.5538C41.8126 50.5606 41.8057 50.564 41.7989 50.564C41.8126 50.564 41.8194 50.564 41.8194 50.564C41.9829 50.5981 42.1396 50.6389 42.2894 50.6866ZM39.8472 47.6926C39.8404 47.7539 39.837 47.8288 39.837 47.9174V50.4414H40.5727C40.8861 50.4414 41.1756 50.4107 41.4413 50.3494C41.707 50.2881 41.925 50.2063 42.0953 50.1042C42.2656 49.9952 42.4086 49.8725 42.5244 49.7363C42.6471 49.5932 42.722 49.4468 42.7493 49.2969C42.7765 49.147 42.7765 48.9972 42.7493 48.8473C42.722 48.6906 42.6471 48.5441 42.5244 48.4079C42.4086 48.2648 42.2656 48.1422 42.0953 48.04C41.925 47.931 41.707 47.8459 41.4413 47.7845C41.1756 47.7232 40.8861 47.6926 40.5727 47.6926H39.8472ZM40.5727 54.3551C41.0087 54.3551 41.4004 54.304 41.7478 54.2018C42.0953 54.0928 42.3746 53.9532 42.5858 53.7828C42.8038 53.6125 42.9707 53.4184 43.0865 53.2004C43.2091 52.9756 43.2704 52.7508 43.2704 52.526C43.2704 52.2943 43.2091 52.0695 43.0865 51.8515C42.9707 51.6267 42.8038 51.4292 42.5858 51.2589C42.3746 51.0886 42.0953 50.9523 41.7478 50.8501C41.4004 50.7411 41.0087 50.6866 40.5727 50.6866H39.837V54.1303C39.837 54.2188 39.8404 54.2938 39.8472 54.3551H40.5727Z" fill="#665F5F"/>
<path d="M44.1422 54.7127H44.1524C44.1524 54.7127 44.149 54.7127 44.1422 54.7127ZM50.2529 55.6835C50.5254 55.7039 50.8251 55.6699 51.1521 55.5813C51.4791 55.4928 51.7482 55.3974 51.9594 55.2952C52.1774 55.193 52.4669 55.0465 52.828 54.8558C52.7258 54.9171 52.6066 54.9954 52.4703 55.0908C52.3409 55.193 52.2182 55.2884 52.1024 55.3769C51.9934 55.4655 51.8674 55.5609 51.7244 55.6631C51.5881 55.7652 51.4553 55.8538 51.3258 55.9287C51.2032 56.0105 51.0601 56.0854 50.8966 56.1536C50.7331 56.2217 50.5697 56.2728 50.4062 56.3068C50.2495 56.3409 50.0689 56.3579 49.8646 56.3579C49.667 56.3579 49.4626 56.3341 49.2515 56.2864C48.8495 56.1978 48.3079 55.9696 47.6267 55.6017C46.9523 55.2407 46.4311 55.0125 46.0633 54.9171C45.6068 54.8013 44.9699 54.7332 44.1524 54.7127C44.3023 54.6174 44.5543 54.5595 44.9086 54.539C44.9835 54.4777 45.021 54.3449 45.021 54.1405V47.9174C45.021 47.8084 45.0108 47.7198 44.9903 47.6517C44.9699 47.5836 44.9392 47.5359 44.8983 47.5086C44.8575 47.4814 44.82 47.4644 44.7859 47.4576C44.7587 47.4507 44.7144 47.4473 44.6531 47.4473H46.1144C46.053 47.4473 46.0054 47.4507 45.9713 47.4576C45.9441 47.4644 45.91 47.4814 45.8691 47.5086C45.8282 47.5291 45.7976 47.5734 45.7771 47.6415C45.7635 47.7096 45.7567 47.7982 45.7567 47.9072V54.1507C45.7567 54.2325 45.7601 54.304 45.7669 54.3653C45.7669 54.4539 45.7771 54.522 45.7976 54.5697C45.9134 54.5833 46.0156 54.5969 46.1041 54.6105C46.329 54.6378 46.5708 54.6855 46.8297 54.7536C47.0953 54.8217 47.3236 54.8864 47.5143 54.9478C47.7051 55.0091 47.9401 55.0874 48.2194 55.1828C48.5055 55.285 48.7337 55.3633 48.904 55.4178C49.3809 55.5609 49.8305 55.6494 50.2529 55.6835ZM51.3156 54.1609C50.8456 54.4811 50.3346 54.6412 49.7828 54.6412C49.231 54.6412 48.7201 54.4811 48.25 54.1609C47.78 53.8339 47.4087 53.3945 47.1362 52.8427C46.8637 52.2841 46.7275 51.6778 46.7275 51.0238C46.7275 50.3698 46.8637 49.7669 47.1362 49.2151C47.4087 48.6565 47.78 48.2171 48.25 47.897C48.7201 47.57 49.231 47.4065 49.7828 47.4065C50.3346 47.4065 50.8456 47.57 51.3156 47.897C51.7857 48.2171 52.1535 48.6565 52.4192 49.2151C52.6917 49.7669 52.828 50.3698 52.828 51.0238C52.828 51.6778 52.6917 52.2841 52.4192 52.8427C52.1535 53.3945 51.7857 53.8339 51.3156 54.1609ZM50.0281 47.9378C49.6057 47.7607 49.1936 47.7335 48.7916 47.8561C48.3897 47.9787 48.0627 48.241 47.8106 48.6429C47.5586 49.038 47.4121 49.4979 47.3712 50.0224C47.3304 50.547 47.3951 51.1124 47.5654 51.7187C47.7493 52.2909 48.015 52.7916 48.3624 53.2208C48.7099 53.6432 49.0982 53.9429 49.5274 54.1201C49.9565 54.2972 50.3721 54.3244 50.774 54.2018C51.176 54.0724 51.503 53.8101 51.755 53.415C52.0071 53.0199 52.1501 52.56 52.1842 52.0355C52.2251 51.5041 52.1603 50.9387 51.99 50.3392C51.8129 49.7601 51.5472 49.2594 51.193 48.8371C50.8456 48.4079 50.4572 48.1081 50.0281 47.9378Z" fill="#665F5F"/>
<path d="M58.4068 48.9188C58.4068 48.9665 58.4034 49.0108 58.3966 49.0516C58.3966 49.038 58.3966 49.0176 58.3966 48.9903C58.4034 48.9563 58.4068 48.9324 58.4068 48.9188ZM58.3353 51.8107C58.6827 52.2467 58.8019 52.7065 58.6929 53.1902C58.5908 53.667 58.2944 54.0417 57.8039 54.3142C57.5655 54.4505 57.2385 54.539 56.8229 54.5799C56.4142 54.614 55.9986 54.6105 55.5763 54.5697C55.1607 54.522 54.7724 54.4471 54.4114 54.3449L53.461 54.069V52.9245C53.461 53.0948 53.5155 53.2821 53.6245 53.4865C53.7335 53.6841 53.8493 53.8203 53.972 53.8952C53.9924 53.9021 54.0707 53.9395 54.207 54.0077C54.3432 54.069 54.4318 54.1064 54.4727 54.1201C54.8473 54.2154 55.2322 54.2733 55.6274 54.2938C56.0293 54.3142 56.4074 54.2972 56.7616 54.2427C57.1159 54.1814 57.4088 54.0553 57.6404 53.8646C57.8789 53.6738 58.0049 53.4286 58.0185 53.1289C58.0253 52.9245 57.9844 52.7303 57.8959 52.5464C57.8073 52.3557 57.6949 52.1956 57.5587 52.0661C57.4292 51.9299 57.2555 51.7936 57.0375 51.6574C56.8263 51.5211 56.6356 51.4121 56.4653 51.3304C56.295 51.2418 56.0838 51.1396 55.8317 51.0238C55.5865 50.908 55.3991 50.8161 55.2697 50.7479C55.0245 50.6185 54.8371 50.5163 54.7077 50.4414C54.5851 50.3664 54.4318 50.2506 54.2479 50.0939C54.0639 49.9373 53.9243 49.7772 53.8289 49.6137C53.6382 49.2594 53.6109 48.895 53.7471 48.5203C53.8834 48.1456 54.1286 47.8697 54.4829 47.6926C54.8508 47.5086 55.3344 47.4235 55.9339 47.4371C56.765 47.4644 57.5893 47.6245 58.4068 47.9174C58.4068 48.1422 58.4068 48.476 58.4068 48.9188C58.3932 48.8098 58.3625 48.7042 58.3148 48.602C58.2672 48.493 58.2024 48.3977 58.1207 48.3159C58.0458 48.2274 57.9606 48.1524 57.8652 48.0911C57.62 47.9276 57.2555 47.8084 56.7718 47.7335C56.656 47.7198 56.5436 47.7062 56.4346 47.6926C56.3256 47.679 56.1792 47.6653 55.9952 47.6517C55.8181 47.6381 55.6546 47.6347 55.5047 47.6415C55.3549 47.6483 55.1982 47.6687 55.0347 47.7028C54.878 47.73 54.7452 47.7743 54.6362 47.8356C54.534 47.897 54.4522 47.9821 54.3909 48.0911C54.3364 48.2001 54.3194 48.3295 54.3398 48.4794C54.3603 48.6157 54.4216 48.7689 54.5238 48.9392C54.6873 49.2049 54.895 49.4468 55.1471 49.6648C55.406 49.8828 55.6751 50.0701 55.9544 50.2268C56.2337 50.3767 56.513 50.5265 56.7923 50.6764C57.0716 50.8195 57.3509 50.9898 57.6302 51.1873C57.9095 51.3781 58.1445 51.5859 58.3353 51.8107Z" fill="#665F5F"/>
<path d="M64.3543 48.9188C64.3543 48.9665 64.3509 49.0108 64.3441 49.0516C64.3441 49.038 64.3441 49.0176 64.3441 48.9903C64.3509 48.9563 64.3543 48.9324 64.3543 48.9188ZM64.2828 51.8107C64.6302 52.2467 64.7495 52.7065 64.6405 53.1902C64.5383 53.667 64.2419 54.0417 63.7514 54.3142C63.513 54.4505 63.186 54.539 62.7705 54.5799C62.3617 54.614 61.9462 54.6105 61.5238 54.5697C61.1082 54.522 60.7199 54.4471 60.3589 54.3449L59.4086 54.069V52.9245C59.4086 53.0948 59.4631 53.2821 59.572 53.4865C59.681 53.6841 59.7969 53.8203 59.9195 53.8952C59.9399 53.9021 60.0183 53.9395 60.1545 54.0077C60.2908 54.069 60.3793 54.1064 60.4202 54.1201C60.7949 54.2154 61.1798 54.2733 61.5749 54.2938C61.9768 54.3142 62.3549 54.2972 62.7092 54.2427C63.0634 54.1814 63.3563 54.0553 63.5879 53.8646C63.8264 53.6738 63.9524 53.4286 63.966 53.1289C63.9728 52.9245 63.932 52.7303 63.8434 52.5464C63.7548 52.3557 63.6424 52.1956 63.5062 52.0661C63.3768 51.9299 63.203 51.7936 62.9851 51.6574C62.7739 51.5211 62.5831 51.4121 62.4128 51.3304C62.2425 51.2418 62.0313 51.1396 61.7793 51.0238C61.534 50.908 61.3467 50.8161 61.2172 50.7479C60.972 50.6185 60.7847 50.5163 60.6552 50.4414C60.5326 50.3664 60.3793 50.2506 60.1954 50.0939C60.0114 49.9373 59.8718 49.7772 59.7764 49.6137C59.5857 49.2594 59.5584 48.895 59.6947 48.5203C59.8309 48.1456 60.0762 47.8697 60.4304 47.6926C60.7983 47.5086 61.282 47.4235 61.8814 47.4371C62.7126 47.4644 63.5369 47.6245 64.3543 47.9174C64.3543 48.1422 64.3543 48.476 64.3543 48.9188C64.3407 48.8098 64.3101 48.7042 64.2624 48.602C64.2147 48.493 64.15 48.3977 64.0682 48.3159C63.9933 48.2274 63.9081 48.1524 63.8128 48.0911C63.5675 47.9276 63.203 47.8084 62.7194 47.7335C62.6036 47.7198 62.4912 47.7062 62.3822 47.6926C62.2732 47.679 62.1267 47.6653 61.9428 47.6517C61.7656 47.6381 61.6021 47.6347 61.4523 47.6415C61.3024 47.6483 61.1457 47.6687 60.9822 47.7028C60.8255 47.73 60.6927 47.7743 60.5837 47.8356C60.4815 47.897 60.3998 47.9821 60.3384 48.0911C60.2839 48.2001 60.2669 48.3295 60.2874 48.4794C60.3078 48.6157 60.3691 48.7689 60.4713 48.9392C60.6348 49.2049 60.8426 49.4468 61.0946 49.6648C61.3535 49.8828 61.6226 50.0701 61.9019 50.2268C62.1812 50.3767 62.4605 50.5265 62.7398 50.6764C63.0191 50.8195 63.2984 50.9898 63.5777 51.1873C63.857 51.3781 64.0921 51.5859 64.2828 51.8107Z" fill="#665F5F"/>
<path d="M66.8991 47.8867C67.3691 47.5666 67.8801 47.4065 68.4319 47.4065C68.9905 47.4065 69.5014 47.5666 69.9646 47.8867C70.4347 48.2069 70.806 48.6463 71.0785 49.2049C71.351 49.7567 71.4872 50.363 71.4872 51.0238C71.4872 51.6778 71.351 52.2841 71.0785 52.8427C70.806 53.3945 70.4347 53.8305 69.9646 54.1507C69.5014 54.4709 68.9905 54.631 68.4319 54.631C67.8801 54.631 67.3691 54.4709 66.8991 54.1507C66.4358 53.8305 66.068 53.3945 65.7955 52.8427C65.523 52.2841 65.3867 51.6778 65.3867 51.0238C65.3867 50.363 65.523 49.7567 65.7955 49.2049C66.068 48.6463 66.4358 48.2069 66.8991 47.8867ZM69.4333 54.1916C69.8284 54.069 70.152 53.8101 70.404 53.415C70.6629 53.013 70.8094 52.5498 70.8434 52.0253C70.8843 51.4939 70.8196 50.9285 70.6493 50.329C70.3768 49.4502 69.9272 48.7689 69.3004 48.2853C68.6737 47.8016 68.0572 47.6551 67.4509 47.8459C67.049 47.9753 66.7186 48.2376 66.4597 48.6327C66.2076 49.0278 66.0612 49.491 66.0203 50.0224C65.9862 50.547 66.0543 51.109 66.2247 51.7085C66.4972 52.5873 66.9468 53.2685 67.5735 53.7522C68.2002 54.2359 68.8202 54.3823 69.4333 54.1916Z" fill="#665F5F"/>
<path d="M78.4355 54.1303C78.4355 54.2461 78.4423 54.3381 78.456 54.4062C78.4764 54.4743 78.5071 54.522 78.5479 54.5492C78.5956 54.5697 78.6331 54.5833 78.6603 54.5901C78.6944 54.5969 78.7421 54.6003 78.8034 54.6003H77.3319C77.3796 54.6003 77.4171 54.6003 77.4443 54.6003C77.4716 54.5935 77.5022 54.5833 77.5363 54.5697C77.5772 54.556 77.6078 54.5356 77.6283 54.5084C77.6487 54.4743 77.6657 54.4266 77.6793 54.3653C77.693 54.304 77.6998 54.2256 77.6998 54.1303V48.2546L75.6254 53.9566V53.9668L75.421 54.5084L75.3904 54.6003H75.0736L75.0634 54.5697L75.0123 54.4266L74.9101 54.1507L72.8153 48.3874V54.1303C72.8153 54.2393 72.8221 54.3278 72.8357 54.396C72.8562 54.4641 72.8868 54.5118 72.9277 54.539C72.9686 54.5663 73.0027 54.5833 73.0299 54.5901C73.064 54.5969 73.1116 54.6003 73.173 54.6003H72.2022C72.2635 54.6003 72.3078 54.5969 72.335 54.5901C72.3691 54.5833 72.4066 54.5663 72.4474 54.539C72.4883 54.5118 72.519 54.4641 72.5394 54.396C72.5598 54.3278 72.5701 54.2393 72.5701 54.1303V47.713L72.5394 47.6313C72.5053 47.57 72.427 47.5257 72.3044 47.4984C72.1886 47.4644 72.083 47.4473 71.9876 47.4473H73.6124C73.4693 47.4473 73.3739 47.478 73.3262 47.5393C73.3058 47.5597 73.3024 47.587 73.316 47.6211L75.4926 53.6091L77.6691 47.6313C77.6487 47.57 77.618 47.5257 77.5772 47.4984C77.5363 47.4712 77.4988 47.4576 77.4648 47.4576C77.4375 47.4507 77.3932 47.4473 77.3319 47.4473H78.8034C78.7421 47.4473 78.6944 47.4507 78.6603 47.4576C78.6331 47.4576 78.5956 47.4712 78.5479 47.4984C78.5071 47.5257 78.4764 47.5734 78.456 47.6415C78.4423 47.7096 78.4355 47.7982 78.4355 47.9072V54.1303Z" fill="#665F5F"/>
<path d="M64.6189 44.413H75.989C74.8477 38.3244 72.1301 32.7775 68.2668 28.1948M28.789 44.413L4.54724 44.4255C7.65152 27.8313 22.4642 15.2571 40.2693 15.2571C45.6964 15.2571 50.8454 16.4253 55.4697 18.5195C55.5938 18.5757 55.7175 18.6326 55.8408 18.6901M74.4675 62.9388C69.4378 76.7041 56.0252 86.5506 40.2693 86.5506C25.6495 86.5506 13.0472 78.0729 7.28754 65.8532" stroke="#665F5F" stroke-width="0.3" stroke-linecap="round" stroke-linejoin="round"/>
<path d="M4.07246 57.532H2.79513V58.546H4.0135V58.8054H2.79513V60.0237H2.52002V57.2726H4.07246V57.532Z" fill="#665F5F"/>
<path d="M6.23269 59.7644H7.49036V60.0237H5.95758V57.2726H6.23269V59.7644Z" fill="#665F5F"/>
<path d="M11.379 59.6582C11.1039 59.9334 10.7672 60.0709 10.369 60.0709C9.97071 60.0709 9.63402 59.9334 9.3589 59.6582C9.08379 59.3805 8.94623 59.0438 8.94623 58.6482C8.94623 58.2525 9.08379 57.9172 9.3589 57.642C9.63402 57.3643 9.97071 57.2254 10.369 57.2254C10.7672 57.2254 11.1039 57.3643 11.379 57.642C11.6542 57.9172 11.7917 58.2525 11.7917 58.6482C11.7917 59.0438 11.6542 59.3805 11.379 59.6582ZM9.55148 59.4696C9.77158 59.6923 10.0441 59.8037 10.369 59.8037C10.6939 59.8037 10.9664 59.6923 11.1865 59.4696C11.4065 59.2443 11.5166 58.9704 11.5166 58.6482C11.5166 58.3259 11.4065 58.0534 11.1865 57.8307C10.9664 57.6054 10.6939 57.4927 10.369 57.4927C10.0441 57.4927 9.77158 57.6054 9.55148 57.8307C9.33139 58.0534 9.22135 58.3259 9.22135 58.6482C9.22135 58.9704 9.33139 59.2443 9.55148 59.4696Z" fill="#665F5F"/>
<path d="M15.3671 60.0237L14.7225 58.9233H13.9522V60.0237H13.6771V57.2726H14.7775C15.0055 57.2726 15.1994 57.3538 15.3592 57.5163C15.5217 57.6761 15.6029 57.87 15.6029 58.0979C15.6029 58.284 15.5466 58.4504 15.4339 58.5971C15.3238 58.7412 15.1823 58.8381 15.0094 58.8879L15.6815 60.0237H15.3671ZM13.9522 57.532V58.6639H14.7775C14.9295 58.6639 15.0592 58.6089 15.1666 58.4988C15.2741 58.3862 15.3278 58.2525 15.3278 58.0979C15.3278 57.9407 15.2741 57.8071 15.1666 57.6971C15.0592 57.587 14.9295 57.532 14.7775 57.532H13.9522Z" fill="#665F5F"/>
<path d="M17.4908 57.2726H17.7659V60.0237H17.4908V57.2726Z" fill="#665F5F"/>
<path d="M20.6377 60.0709C20.3862 60.0709 20.17 60.012 19.9892 59.8941C19.8111 59.7735 19.6866 59.6085 19.6158 59.3988L19.8517 59.2613C19.9014 59.4316 19.9932 59.5652 20.1268 59.6622C20.2604 59.7565 20.432 59.8037 20.6416 59.8037C20.846 59.8037 21.0045 59.7591 21.1172 59.67C21.2325 59.5783 21.2901 59.4578 21.2901 59.3084C21.2901 59.1643 21.2377 59.0556 21.1329 58.9822C21.0281 58.9089 20.8552 58.8329 20.6141 58.7543C20.3285 58.66 20.1399 58.584 20.0482 58.5263C19.8386 58.4006 19.7338 58.2185 19.7338 57.98C19.7338 57.7468 19.815 57.5634 19.9774 57.4298C20.1399 57.2936 20.3403 57.2254 20.5788 57.2254C20.7936 57.2254 20.9796 57.2818 21.1368 57.3944C21.2941 57.5045 21.4106 57.646 21.4866 57.8189L21.2548 57.9486C21.129 57.6447 20.9037 57.4927 20.5788 57.4927C20.4084 57.4927 20.2709 57.5346 20.1661 57.6185C20.0613 57.7023 20.0089 57.8189 20.0089 57.9682C20.0089 58.1045 20.056 58.2067 20.1504 58.2748C20.2447 58.3429 20.4006 58.4124 20.6181 58.4831C20.7176 58.5172 20.7884 58.5421 20.8303 58.5578C20.8748 58.5709 20.9377 58.5945 21.0189 58.6285C21.1028 58.66 21.1644 58.6888 21.2037 58.715C21.243 58.7386 21.2901 58.7726 21.3451 58.8172C21.4028 58.8591 21.4434 58.9023 21.467 58.9469C21.4932 58.9888 21.5155 59.0412 21.5338 59.1041C21.5548 59.1643 21.5652 59.2298 21.5652 59.3006C21.5652 59.5338 21.4801 59.7211 21.3098 59.8626C21.1395 60.0015 20.9154 60.0709 20.6377 60.0709Z" fill="#665F5F"/>
<path d="M25.0819 57.2726V57.532H24.2369V60.0237H23.9618V57.532H23.1168V57.2726H25.0819Z" fill="#665F5F"/>
<path d="M29.2874 57.2726H29.5625V60.0237H29.2874V57.2726Z" fill="#665F5F"/>
<path d="M33.3767 57.2726H33.6518V60.0237H33.416L31.8832 57.7835V60.0237H31.6081V57.2726H31.8439L33.3767 59.5128V57.2726Z" fill="#665F5F"/>
<path d="M38.3668 59.7644H39.6245V60.0237H38.0917V57.2726H38.3668V59.7644Z" fill="#665F5F"/>
<path d="M43.5132 59.6582C43.2381 59.9334 42.9014 60.0709 42.5031 60.0709C42.1048 60.0709 41.7681 59.9334 41.493 59.6582C41.2179 59.3805 41.0804 59.0438 41.0804 58.6482C41.0804 58.2525 41.2179 57.9172 41.493 57.642C41.7681 57.3643 42.1048 57.2254 42.5031 57.2254C42.9014 57.2254 43.2381 57.3643 43.5132 57.642C43.7883 57.9172 43.9258 58.2525 43.9258 58.6482C43.9258 59.0438 43.7883 59.3805 43.5132 59.6582ZM41.6856 59.4696C41.9057 59.6923 42.1782 59.8037 42.5031 59.8037C42.828 59.8037 43.1005 59.6923 43.3206 59.4696C43.5407 59.2443 43.6507 58.9704 43.6507 58.6482C43.6507 58.3259 43.5407 58.0534 43.3206 57.8307C43.1005 57.6054 42.828 57.4927 42.5031 57.4927C42.1782 57.4927 41.9057 57.6054 41.6856 57.8307C41.4655 58.0534 41.3555 58.3259 41.3555 58.6482C41.3555 58.9704 41.4655 59.2443 41.6856 59.4696Z" fill="#665F5F"/>
<path d="M46.5761 60.0709C46.3245 60.0709 46.1084 60.012 45.9276 59.8941C45.7494 59.7735 45.625 59.6085 45.5542 59.3988L45.79 59.2613C45.8398 59.4316 45.9315 59.5652 46.0651 59.6622C46.1988 59.7565 46.3704 59.8037 46.58 59.8037C46.7844 59.8037 46.9429 59.7591 47.0555 59.67C47.1708 59.5783 47.2285 59.4578 47.2285 59.3084C47.2285 59.1643 47.1761 59.0556 47.0713 58.9822C46.9665 58.9089 46.7935 58.8329 46.5525 58.7543C46.2669 58.66 46.0782 58.584 45.9865 58.5263C45.7769 58.4006 45.6721 58.2185 45.6721 57.98C45.6721 57.7468 45.7533 57.5634 45.9158 57.4298C46.0782 57.2936 46.2787 57.2254 46.5171 57.2254C46.732 57.2254 46.918 57.2818 47.0752 57.3944C47.2324 57.5045 47.349 57.646 47.425 57.8189L47.1931 57.9486C47.0673 57.6447 46.842 57.4927 46.5171 57.4927C46.3468 57.4927 46.2092 57.5346 46.1044 57.6185C45.9996 57.7023 45.9472 57.8189 45.9472 57.9682C45.9472 58.1045 45.9944 58.2067 46.0887 58.2748C46.183 58.3429 46.3389 58.4124 46.5564 58.4831C46.656 58.5172 46.7267 58.5421 46.7686 58.5578C46.8132 58.5709 46.8761 58.5945 46.9573 58.6285C47.0411 58.66 47.1027 58.6888 47.142 58.715C47.1813 58.7386 47.2285 58.7726 47.2835 58.8172C47.3411 58.8591 47.3818 58.9023 47.4053 58.9469C47.4315 58.9888 47.4538 59.0412 47.4722 59.1041C47.4931 59.1643 47.5036 59.2298 47.5036 59.3006C47.5036 59.5338 47.4184 59.7211 47.2481 59.8626C47.0778 60.0015 46.8538 60.0709 46.5761 60.0709Z" fill="#665F5F"/>
<path d="M53.6197 60.0237L53.3642 59.3478H52.0594L51.8039 60.0237H51.5131L52.5703 57.2726H52.8533L53.9105 60.0237H53.6197ZM52.1576 59.0884H53.266L52.7118 57.6145L52.1576 59.0884Z" fill="#665F5F"/>
<path d="M57.4473 57.2726H57.7224V60.0237H57.4866L55.9538 57.7835V60.0237H55.6787V57.2726H55.9145L57.4473 59.5128V57.2726Z" fill="#665F5F"/>
<path d="M62.3942 58.715V58.8565C62.3942 59.1971 62.2723 59.4853 62.0287 59.7211C61.785 59.9543 61.4588 60.0709 61.05 60.0709C60.6334 60.0709 60.2889 59.9334 60.0164 59.6582C59.7439 59.3831 59.6077 59.0464 59.6077 58.6482C59.6077 58.2499 59.7439 57.9132 60.0164 57.6381C60.2889 57.363 60.6334 57.2254 61.05 57.2254C61.3042 57.2254 61.5374 57.287 61.7496 57.4102C61.9618 57.5333 62.1256 57.6971 62.2409 57.9014L61.9972 58.0429C61.9108 57.8752 61.7824 57.7416 61.6121 57.642C61.4418 57.5425 61.2544 57.4927 61.05 57.4927C60.7068 57.4927 60.4264 57.604 60.209 57.8268C59.9915 58.0495 59.8828 58.3233 59.8828 58.6482C59.8828 58.9731 59.9915 59.2469 60.209 59.4696C60.4264 59.6923 60.7068 59.8037 61.05 59.8037C61.3592 59.8037 61.6068 59.7264 61.7928 59.5718C61.9789 59.4146 62.085 59.2154 62.1112 58.9744H61.0186V58.715H62.3942Z" fill="#665F5F"/>
<path d="M64.556 59.7644H65.8923V60.0237H64.2809V57.2726H65.8727V57.532H64.556V58.5067H65.7744V58.7661H64.556V59.7644Z" fill="#665F5F"/>
<path d="M68.055 59.7644H69.3127V60.0237H67.7799V57.2726H68.055V59.7644Z" fill="#665F5F"/>
<path d="M71.3966 59.7644H72.7329V60.0237H71.1215V57.2726H72.7132V57.532H71.3966V58.5067H72.615V58.7661H71.3966V59.7644Z" fill="#665F5F"/>
<path d="M75.4851 60.0709C75.2336 60.0709 75.0174 60.012 74.8366 59.8941C74.6585 59.7735 74.534 59.6085 74.4633 59.3988L74.6991 59.2613C74.7489 59.4316 74.8406 59.5652 74.9742 59.6622C75.1078 59.7565 75.2794 59.8037 75.489 59.8037C75.6934 59.8037 75.8519 59.7591 75.9646 59.67C76.0799 59.5783 76.1375 59.4578 76.1375 59.3084C76.1375 59.1643 76.0851 59.0556 75.9803 58.9822C75.8755 58.9089 75.7026 58.8329 75.4615 58.7543C75.1759 58.66 74.9873 58.584 74.8956 58.5263C74.686 58.4006 74.5812 58.2185 74.5812 57.98C74.5812 57.7468 74.6624 57.5634 74.8248 57.4298C74.9873 57.2936 75.1877 57.2254 75.4262 57.2254C75.641 57.2254 75.827 57.2818 75.9842 57.3944C76.1415 57.5045 76.2581 57.646 76.334 57.8189L76.1022 57.9486C75.9764 57.6447 75.7511 57.4927 75.4262 57.4927C75.2559 57.4927 75.1183 57.5346 75.0135 57.6185C74.9087 57.7023 74.8563 57.8189 74.8563 57.9682C74.8563 58.1045 74.9034 58.2067 74.9978 58.2748C75.0921 58.3429 75.248 58.4124 75.4655 58.4831C75.565 58.5172 75.6358 58.5421 75.6777 58.5578C75.7222 58.5709 75.7851 58.5945 75.8663 58.6285C75.9502 58.66 76.0118 58.6888 76.0511 58.715C76.0904 58.7386 76.1375 58.7726 76.1926 58.8172C76.2502 58.8591 76.2908 58.9023 76.3144 58.9469C76.3406 58.9888 76.3629 59.0412 76.3812 59.1041C76.4022 59.1643 76.4126 59.2298 76.4126 59.3006C76.4126 59.5338 76.3275 59.7211 76.1572 59.8626C75.9869 60.0015 75.7628 60.0709 75.4851 60.0709Z" fill="#665F5F"/>
<mask id="path-29-inside-1_4645_2" fill="white">
<path fill-rule="evenodd" clip-rule="evenodd" d="M65.8662 16.4877C65.7813 16.5629 65.5737 16.8044 65.4046 17.0245C64.8823 17.7049 63.793 19.0076 63.0964 19.7851C62.7307 20.1932 62.3869 20.5983 62.3325 20.6852C62.1712 20.9424 61.8967 20.7451 61.8576 20.344C61.8092 19.8461 61.1323 18.634 60.9028 18.634C60.779 18.634 60.76 18.802 60.8346 19.2331C60.9474 19.8838 60.8813 21.2034 60.6994 21.935C60.5923 22.3653 60.5093 22.4656 59.3772 23.5307C58.5097 24.3469 58.1447 24.6446 58.0818 24.5867C58.0338 24.5424 57.9137 24.2626 57.8148 23.965L57.635 23.4239L58.1047 22.9295C59.0697 21.9139 59.3419 20.4861 58.8271 19.1399C58.5673 18.4604 58.4789 18.3307 58.1024 18.0768C57.5619 17.7122 57.1357 17.6503 56.4572 17.8379C55.991 17.9668 55.8533 18.0567 55.3928 18.5331C55.1019 18.8342 54.8418 19.0608 54.8148 19.0368C54.7877 19.0129 54.7704 18.8242 54.7762 18.6176L54.7869 18.2419L54.5414 18.4144C53.8324 18.9127 53.5407 20.3401 53.9363 21.3758C54.3376 22.4259 55.2504 23.3497 56.1756 23.6415C56.567 23.765 56.5844 23.7847 56.7729 24.3181C56.8796 24.6203 56.9768 25.0596 56.9888 25.2946L57.0107 25.7219L56.0658 26.4715C55.5461 26.8837 55.0905 27.2228 55.0534 27.225C55.0162 27.2271 54.9179 27.0864 54.835 26.9125C54.5486 26.3119 53.8137 25.1594 53.7022 25.1362C53.5306 25.1003 53.4382 25.4906 53.5663 25.7095C53.6289 25.8164 53.7137 26.2663 53.7548 26.7093C53.8294 27.5139 53.8302 27.5156 54.425 28.0938L55.0204 28.6727L55.3935 28.4427C55.5987 28.3163 56.0108 28.0004 56.3091 27.7406C56.9624 27.1722 57.2354 27.0873 58.3776 27.0974C58.8581 27.1017 59.2955 27.0661 59.3497 27.0181C59.4038 26.9702 59.3373 26.7611 59.202 26.5535C58.6843 25.759 58.666 25.8483 59.5251 24.9766C60.1816 24.3105 60.3551 24.1774 60.6561 24.1088C61.1459 23.9973 61.8518 24.1455 62.1693 24.4266C62.4967 24.7165 63.7861 25.3302 64.085 25.3386C64.2738 25.3439 64.2794 25.2885 64.1246 24.9534C64.0251 24.7383 63.8283 24.428 63.6872 24.264L63.4307 23.9658L63.9371 23.5175C64.4323 23.0791 64.7837 22.5252 64.7194 22.2841C64.6691 22.0956 63.5106 22.4798 62.9817 22.8603C62.4823 23.2196 62.1105 23.2541 61.7903 22.9707C61.6465 22.8434 61.7114 22.7293 62.4119 21.8753C63.3152 20.7743 64.2079 19.5561 65.1754 18.1044C65.9873 16.8861 66.3348 16.073 65.8662 16.4877ZM65.7058 22.1973C65.1174 22.1045 64.9637 22.1973 64.7801 22.7564C64.6937 23.0195 64.4676 23.4137 64.2776 23.6326L63.9322 24.0307L64.2607 24.7974C64.6268 25.6517 64.6672 25.6774 65.5193 25.598C66.2403 25.5307 66.8014 25.11 67.0356 24.4612C67.1303 24.1991 67.1666 23.859 67.1162 23.7054C67.0331 23.4522 66.9622 23.4059 66.3522 23.205C65.9823 23.0832 65.6798 22.9492 65.6797 22.9073C65.6797 22.8653 65.84 22.7944 66.0357 22.7498C66.6196 22.6169 66.438 22.3129 65.7058 22.1973ZM44.1392 18.7737C43.2012 18.1981 42.4705 17.9302 41.4518 17.7882C40.6398 17.6751 39.8148 17.8036 38.9318 18.1808L38.2139 18.4875L37.7628 18.0882C37.1375 17.5347 35.8132 16.9475 34.8052 16.7771C33.4048 16.5401 31.7916 16.9561 30.8449 17.7983C30.0382 18.5159 29.5024 19.6842 29.6213 20.4662C29.7572 21.3599 30.0315 21.7783 31.1657 22.8217C31.8732 23.4726 32.3086 23.9444 32.4884 24.255C32.8578 24.8931 33.2273 25.2116 33.4101 25.0497C33.59 24.8905 33.5743 23.5463 33.389 23.2477C33.163 22.8834 33.1818 22.7037 33.4613 22.5555C33.6008 22.4816 33.7745 22.4335 33.847 22.4487C34.0713 22.4955 34.2079 22.8039 34.1188 23.0616C33.9632 23.5114 33.9809 25.5247 34.1418 25.6672C34.2274 25.743 34.3177 25.787 34.3423 25.7652C34.3671 25.7432 34.524 25.2105 34.6911 24.5811C34.885 23.8504 34.9573 23.3055 34.8913 23.0733C34.7717 22.6536 34.9872 22.3884 35.432 22.408C35.8089 22.4247 35.9334 22.7476 35.6892 23.0753C35.4787 23.3579 34.8043 25.6904 34.8496 25.9792C34.9131 26.3836 35.1539 26.1673 35.5829 25.3208C35.8232 24.8465 36.1623 24.2296 36.3364 23.95C36.5479 23.6102 36.6302 23.3453 36.5846 23.1511C36.5035 22.8066 36.6967 22.6006 37.0847 22.6177C37.3052 22.6275 37.3927 22.6847 37.4945 22.8852C37.5995 23.0922 37.573 23.1855 37.3539 23.3794C37.1174 23.5888 36.0374 25.2997 35.7408 25.935C35.598 26.2404 35.8283 26.2722 36.1374 25.9899C36.6429 25.528 37.9528 23.8906 37.9733 23.6948C37.985 23.5835 38.1062 23.414 38.2425 23.3181C38.4502 23.172 38.5356 23.177 38.7716 23.349C39.0001 23.5158 39.0329 23.6013 38.9467 23.8055C38.8774 23.9693 38.7408 24.1009 38.5538 24.1836C38.2849 24.3026 36.953 25.7053 36.7024 26.1334C36.5891 26.3271 36.6695 26.4417 36.8868 26.3963C37.1755 26.3359 39.133 24.8602 39.2305 24.6293C39.3573 24.3293 39.7851 24.22 40.0198 24.4278C40.3713 24.739 40.1752 25.1305 39.6163 25.2335C39.4555 25.2632 38.9668 25.5374 38.5303 25.843C36.6852 27.1344 36.7181 27.1074 36.8507 27.2248C36.9835 27.3423 37.2779 27.2374 38.8994 26.4946C39.5146 26.2128 39.9632 25.9497 40.0516 25.819C40.1896 25.6151 40.6218 25.5209 40.7794 25.6605C40.872 25.7424 40.9419 26.3658 40.8659 26.4331C40.8301 26.4648 40.6022 26.5023 40.3594 26.5163C39.878 26.5441 37.1594 27.689 37.0478 27.9109C36.9311 28.143 37.0931 28.1542 37.7857 27.9619C38.1594 27.8582 38.8528 27.7 39.3265 27.6105C39.8001 27.5209 40.2608 27.3862 40.3501 27.3112C40.5598 27.1352 40.9668 27.0868 41.1171 27.2198C41.2812 27.3651 41.2392 27.7833 41.0431 27.9569C40.9424 28.046 40.7208 28.0667 40.4685 28.0103C40.2121 27.953 39.6112 28.0116 38.8682 28.1664C37.6492 28.4203 37.3787 28.5324 37.5723 28.7039C37.7144 28.8296 39.9094 28.8014 40.4681 28.6665C40.9479 28.5507 41.1623 28.6729 41.141 29.0502C41.1182 29.4558 40.7694 29.6154 40.3909 29.3936C40.0571 29.1979 38.4675 29.1163 38.2769 29.2851C38.1031 29.4389 38.4477 29.7981 38.9836 30.0217C39.339 30.17 39.9032 30.5656 40.8177 31.3077C42.2178 32.4437 42.423 32.55 43.3547 32.6209C44.3887 32.6998 45.6593 32.274 46.4324 31.5897C46.8613 31.21 47.415 30.3225 47.5643 29.7757C47.9577 28.3343 47.3926 26.6124 46.1714 25.5315C45.6105 25.035 45.5305 24.825 45.8082 24.5791C45.8998 24.4981 46.0642 24.195 46.1737 23.9056C46.7446 22.3964 46.3111 20.8035 44.9756 19.5039C44.6441 19.1811 44.2676 18.8525 44.1392 18.7737ZM56.7166 30.0154C56.1843 29.7997 55.6811 29.7107 55.4684 29.7945C55.3557 29.839 55.3075 30.0673 55.3266 30.4661C55.3585 31.1267 55.2529 31.513 54.8872 32.0751C54.6581 32.4272 54.6879 32.6419 55.0056 32.9293C55.1601 33.0692 55.4996 32.696 55.5639 32.3154C55.6369 31.8846 55.9779 31.6911 56.2461 31.9285C56.5205 32.1715 56.4434 32.3811 55.9206 32.8128C55.5345 33.1315 55.4546 33.2472 55.4881 33.4393C55.5721 33.9214 55.9023 33.915 56.63 33.417C57.0681 33.1171 57.2398 33.1366 57.3244 33.4956C57.4176 33.8923 57.2506 34.0113 56.5564 34.0425C55.8714 34.0732 55.807 34.1133 55.877 34.465C55.9577 34.8709 56.102 34.9356 56.8713 34.9114C57.5286 34.8907 57.5907 34.9087 57.6923 35.1491C57.8444 35.5091 57.4249 35.8232 57.0972 35.5946C56.4959 35.1752 55.9849 35.1524 55.9849 35.5448C55.9849 35.807 56.0857 35.897 56.4878 35.994C56.8982 36.093 57.7171 36.8179 57.9909 37.3245C58.3434 37.9768 58.3962 37.9925 58.7646 37.5543C59.4251 36.7688 59.6445 35.8038 59.3723 34.8807C59.2634 34.5115 59.0836 34.2389 58.6582 33.7988L58.0897 33.2103L58.1745 32.6565C58.33 31.6418 57.6382 30.3885 56.7166 30.0154ZM53.4912 28.0723C52.3424 27.4783 51.0863 27.6191 50.1439 28.4474C49.1097 29.3565 48.8094 30.6178 49.3688 31.7048C49.7556 32.4567 49.9845 32.647 50.2351 32.4252C50.9198 31.8192 52.7243 31.5551 53.5643 31.9381C53.7904 32.0411 54.0353 32.1278 54.1085 32.1305C54.3494 32.1395 54.7725 31.1535 54.8129 30.4897C54.8344 30.1325 54.7826 29.6504 54.6975 29.4184C54.5262 28.9508 53.9527 28.3109 53.4912 28.0723ZM53.4575 32.4439C52.201 32.0516 50.8396 32.3659 50.148 33.2079C49.782 33.6535 49.491 34.3293 49.5251 34.6541C49.5584 34.9715 49.3956 35.0411 48.3066 35.1749L47.2859 35.3003L46.4349 34.6333C45.9668 34.2666 45.5838 33.9393 45.5837 33.9061C45.5838 33.8728 46.3314 33.5071 47.245 33.0933C48.1587 32.6795 48.9424 32.309 48.9866 32.2699C49.0751 32.1916 48.7632 31.3839 48.6446 31.3839C48.6039 31.3839 48.1605 31.5842 47.6593 31.829C44.6764 33.2862 44.4235 33.3796 43.4224 33.3921C42.9075 33.3986 41.8826 33.5063 41.1449 33.6317C40.0001 33.8261 39.7329 33.9103 39.3227 34.2054C38.6754 34.6713 37.8657 34.9074 36.7885 34.9074C36.073 34.9074 35.5758 34.7443 35.0049 34.4913C34.5009 34.268 34.13 34.2782 33.5719 34.2533C32.5294 34.2069 31.7434 34.0681 30.5894 33.7267C29.65 33.4488 29.3256 33.2872 29.4631 33.1655C29.5018 33.1312 29.7591 33.0281 30.0349 32.9364C30.7636 32.694 32.1029 31.5086 32.3212 30.9128C32.4056 30.6824 32.5046 30.411 32.4643 30.3753C32.4238 30.3395 31.9691 30.3434 31.7019 30.3753C31.2326 30.4312 31.3242 30.52 30.9249 31.0225C30.5904 31.4435 30.4197 31.5769 29.9501 31.8207C28.9443 32.3431 27.7279 32.3708 27.0028 31.8879C26.4641 31.529 24.8227 30.6646 24.2651 30.446C24.0377 30.3568 23.8168 30.253 23.7742 30.2153C23.6443 30.1003 23.9095 29.9406 24.5273 29.7615C25.0754 29.6027 25.4977 29.36 25.3907 29.2653C25.3652 29.2428 24.7204 29.2305 23.9579 29.2381C22.4018 29.2536 21.4321 29.056 19.969 28.4252C19.1212 28.0598 16.1864 27.47 14.9579 26.4292C14.2177 25.8022 12.7201 24.8611 12.6647 24.8857C12.6097 24.91 11.9432 25.6417 11.5296 26.1123C10.8157 26.8825 9.73782 28.3332 9.73782 28.3332C9.18607 29.118 13.1719 29.8357 13.227 29.8829C13.2821 29.9301 17.7364 30.0452 18.2312 30.1388C20.8567 30.6356 25.5063 32.2928 27.658 33.4988C28.4595 33.9479 30.0499 35.0703 30.6922 35.64C32.5146 37.2561 33.774 39.5183 34.1404 41.8333C34.2318 42.4106 34.3181 42.9263 34.3322 42.9791C34.3616 43.0894 36.0305 43.6907 36.3025 43.6889C36.705 43.6862 36.2932 42.8398 35.5827 42.2097C35.2175 41.8857 35.1644 41.7781 35.1375 41.3083C35.1036 40.7167 35.1678 40.6206 35.6972 40.4715C36.1599 40.3412 36.701 40.5377 37.2726 41.0436C37.8125 41.5216 38.5155 41.7597 39.4284 41.7739L40.0584 41.7837L39.8137 41.3702C39.5766 40.9697 39.1299 40.5854 38.1242 39.9167L37.7126 39.6431L38.0509 39.1127C38.5539 38.3248 38.8929 36.5601 38.555 36.4895C38.3792 36.4527 37.6062 36.8812 37.2109 37.2345C37.0244 37.4012 36.7107 37.8362 36.5138 38.2011C36.0924 38.9821 35.9521 39.1212 35.3583 39.3463C34.848 39.54 34.7732 39.501 34.6267 38.9665C34.4705 38.3964 33.9594 37.5645 33.2024 36.6482C32.8348 36.2033 32.4984 35.7802 32.4547 35.708C32.401 35.619 32.7145 35.5745 33.4291 35.5698C35.8677 35.5538 38.3391 35.3115 41.4188 34.7865C43.6624 34.4041 44.175 34.4396 45.2988 35.0552C45.9194 35.3951 46.2413 35.6503 47.1537 36.5262C48.3021 37.6286 48.5872 37.8055 48.8462 37.5762C48.9604 37.4752 48.9196 37.3645 48.6556 37.0594C48.1627 36.4897 48.2172 36.3718 49.0931 36.1131C49.6709 35.9426 49.8465 35.9311 49.9036 36.0604C49.9438 36.1512 50.1244 36.4476 50.3051 36.7192C50.9987 37.762 52.2351 38.1509 53.5746 37.7475C54.2356 37.5484 54.3853 37.4638 54.7195 37.0998C54.9311 36.8694 55.1917 36.4804 55.2988 36.2351C55.9104 34.8351 54.9798 32.9191 53.4575 32.4439ZM56.386 36.3921C55.9373 36.1471 55.8847 36.1636 55.7108 36.6035C55.3131 37.6098 54.1078 38.354 52.7522 38.4304L52.0513 38.4699L52.0961 38.7529C52.2541 39.7523 53.3572 40.8853 54.4552 41.176C55.5787 41.4735 56.7946 41.1692 57.4264 40.4323C58.4823 39.2007 57.9837 37.2649 56.386 36.3921ZM30.776 23.3447C30.6018 23.33 30.171 23.4408 29.8184 23.5908C28.1236 24.3126 27.3849 26.2243 28.1807 27.8298C28.5991 28.6737 29.4954 29.4416 30.408 29.738C31.1275 29.9717 32.5471 30.0154 32.778 29.811C33.0006 29.6139 33.2547 28.2423 33.2064 27.4984C33.122 26.1988 32.5491 24.9367 31.5618 23.8757C31.1703 23.4549 31.0402 23.367 30.776 23.3447ZM39.4239 30.8608C38.4414 30.1948 37.0287 29.7578 35.6848 29.7043C34.7123 29.6657 33.3315 29.8813 33.0701 30.1126C32.8 30.3517 32.9036 31.6292 33.2475 32.3019C33.6591 33.107 34.751 33.9879 35.6908 34.2731C36.4448 34.5021 37.4272 34.4841 38.2338 34.2268C39.2539 33.9012 40.3849 32.7051 40.43 31.904C40.4433 31.6684 40.1186 31.3317 39.4239 30.8608ZM34.5517 27.4717C34.2797 27.4051 33.9833 27.3948 33.8929 27.449C33.7993 27.5051 33.7113 27.8383 33.688 28.2243C33.6656 28.5967 33.6637 28.703 33.6163 28.8805C33.5769 29.0281 33.5432 29.1875 33.5814 29.2989C33.6709 29.4141 33.7309 29.4127 34.1438 29.3417C34.4151 29.2951 34.899 29.2522 35.219 29.2465C35.539 29.2407 35.8349 29.2058 35.8764 29.1691C35.918 29.1322 35.8881 28.8853 35.81 28.6203C35.6321 28.0169 35.2121 27.6336 34.5517 27.4717ZM40.7164 36.2931C40.171 36.1854 39.1051 36.1861 38.9835 36.2942C38.9525 36.3218 38.9304 36.6584 38.9345 37.0421C38.9391 37.4751 38.8209 38.0619 38.6234 38.5874L38.3048 39.435L39.1068 40.1511C39.6759 40.6592 39.957 40.9772 40.0749 41.2464C40.2367 41.616 40.2484 41.6244 40.5292 41.5724C40.6878 41.5431 41.0857 41.3797 41.4136 41.2093C42.5281 40.6302 43.2041 39.419 42.9305 38.4914C42.6672 37.5981 41.8606 37.1682 40.7083 37.3067C39.5767 37.4427 39.5854 37.1546 40.7221 36.8487C41.6384 36.602 41.6372 36.4748 40.7164 36.2931Z"/>
</mask>
<path fill-rule="evenodd" clip-rule="evenodd" d="M65.8662 16.4877C65.7813 16.5629 65.5737 16.8044 65.4046 17.0245C64.8823 17.7049 63.793 19.0076 63.0964 19.7851C62.7307 20.1932 62.3869 20.5983 62.3325 20.6852C62.1712 20.9424 61.8967 20.7451 61.8576 20.344C61.8092 19.8461 61.1323 18.634 60.9028 18.634C60.779 18.634 60.76 18.802 60.8346 19.2331C60.9474 19.8838 60.8813 21.2034 60.6994 21.935C60.5923 22.3653 60.5093 22.4656 59.3772 23.5307C58.5097 24.3469 58.1447 24.6446 58.0818 24.5867C58.0338 24.5424 57.9137 24.2626 57.8148 23.965L57.635 23.4239L58.1047 22.9295C59.0697 21.9139 59.3419 20.4861 58.8271 19.1399C58.5673 18.4604 58.4789 18.3307 58.1024 18.0768C57.5619 17.7122 57.1357 17.6503 56.4572 17.8379C55.991 17.9668 55.8533 18.0567 55.3928 18.5331C55.1019 18.8342 54.8418 19.0608 54.8148 19.0368C54.7877 19.0129 54.7704 18.8242 54.7762 18.6176L54.7869 18.2419L54.5414 18.4144C53.8324 18.9127 53.5407 20.3401 53.9363 21.3758C54.3376 22.4259 55.2504 23.3497 56.1756 23.6415C56.567 23.765 56.5844 23.7847 56.7729 24.3181C56.8796 24.6203 56.9768 25.0596 56.9888 25.2946L57.0107 25.7219L56.0658 26.4715C55.5461 26.8837 55.0905 27.2228 55.0534 27.225C55.0162 27.2271 54.9179 27.0864 54.835 26.9125C54.5486 26.3119 53.8137 25.1594 53.7022 25.1362C53.5306 25.1003 53.4382 25.4906 53.5663 25.7095C53.6289 25.8164 53.7137 26.2663 53.7548 26.7093C53.8294 27.5139 53.8302 27.5156 54.425 28.0938L55.0204 28.6727L55.3935 28.4427C55.5987 28.3163 56.0108 28.0004 56.3091 27.7406C56.9624 27.1722 57.2354 27.0873 58.3776 27.0974C58.8581 27.1017 59.2955 27.0661 59.3497 27.0181C59.4038 26.9702 59.3373 26.7611 59.202 26.5535C58.6843 25.759 58.666 25.8483 59.5251 24.9766C60.1816 24.3105 60.3551 24.1774 60.6561 24.1088C61.1459 23.9973 61.8518 24.1455 62.1693 24.4266C62.4967 24.7165 63.7861 25.3302 64.085 25.3386C64.2738 25.3439 64.2794 25.2885 64.1246 24.9534C64.0251 24.7383 63.8283 24.428 63.6872 24.264L63.4307 23.9658L63.9371 23.5175C64.4323 23.0791 64.7837 22.5252 64.7194 22.2841C64.6691 22.0956 63.5106 22.4798 62.9817 22.8603C62.4823 23.2196 62.1105 23.2541 61.7903 22.9707C61.6465 22.8434 61.7114 22.7293 62.4119 21.8753C63.3152 20.7743 64.2079 19.5561 65.1754 18.1044C65.9873 16.8861 66.3348 16.073 65.8662 16.4877ZM65.7058 22.1973C65.1174 22.1045 64.9637 22.1973 64.7801 22.7564C64.6937 23.0195 64.4676 23.4137 64.2776 23.6326L63.9322 24.0307L64.2607 24.7974C64.6268 25.6517 64.6672 25.6774 65.5193 25.598C66.2403 25.5307 66.8014 25.11 67.0356 24.4612C67.1303 24.1991 67.1666 23.859 67.1162 23.7054C67.0331 23.4522 66.9622 23.4059 66.3522 23.205C65.9823 23.0832 65.6798 22.9492 65.6797 22.9073C65.6797 22.8653 65.84 22.7944 66.0357 22.7498C66.6196 22.6169 66.438 22.3129 65.7058 22.1973ZM44.1392 18.7737C43.2012 18.1981 42.4705 17.9302 41.4518 17.7882C40.6398 17.6751 39.8148 17.8036 38.9318 18.1808L38.2139 18.4875L37.7628 18.0882C37.1375 17.5347 35.8132 16.9475 34.8052 16.7771C33.4048 16.5401 31.7916 16.9561 30.8449 17.7983C30.0382 18.5159 29.5024 19.6842 29.6213 20.4662C29.7572 21.3599 30.0315 21.7783 31.1657 22.8217C31.8732 23.4726 32.3086 23.9444 32.4884 24.255C32.8578 24.8931 33.2273 25.2116 33.4101 25.0497C33.59 24.8905 33.5743 23.5463 33.389 23.2477C33.163 22.8834 33.1818 22.7037 33.4613 22.5555C33.6008 22.4816 33.7745 22.4335 33.847 22.4487C34.0713 22.4955 34.2079 22.8039 34.1188 23.0616C33.9632 23.5114 33.9809 25.5247 34.1418 25.6672C34.2274 25.743 34.3177 25.787 34.3423 25.7652C34.3671 25.7432 34.524 25.2105 34.6911 24.5811C34.885 23.8504 34.9573 23.3055 34.8913 23.0733C34.7717 22.6536 34.9872 22.3884 35.432 22.408C35.8089 22.4247 35.9334 22.7476 35.6892 23.0753C35.4787 23.3579 34.8043 25.6904 34.8496 25.9792C34.9131 26.3836 35.1539 26.1673 35.5829 25.3208C35.8232 24.8465 36.1623 24.2296 36.3364 23.95C36.5479 23.6102 36.6302 23.3453 36.5846 23.1511C36.5035 22.8066 36.6967 22.6006 37.0847 22.6177C37.3052 22.6275 37.3927 22.6847 37.4945 22.8852C37.5995 23.0922 37.573 23.1855 37.3539 23.3794C37.1174 23.5888 36.0374 25.2997 35.7408 25.935C35.598 26.2404 35.8283 26.2722 36.1374 25.9899C36.6429 25.528 37.9528 23.8906 37.9733 23.6948C37.985 23.5835 38.1062 23.414 38.2425 23.3181C38.4502 23.172 38.5356 23.177 38.7716 23.349C39.0001 23.5158 39.0329 23.6013 38.9467 23.8055C38.8774 23.9693 38.7408 24.1009 38.5538 24.1836C38.2849 24.3026 36.953 25.7053 36.7024 26.1334C36.5891 26.3271 36.6695 26.4417 36.8868 26.3963C37.1755 26.3359 39.133 24.8602 39.2305 24.6293C39.3573 24.3293 39.7851 24.22 40.0198 24.4278C40.3713 24.739 40.1752 25.1305 39.6163 25.2335C39.4555 25.2632 38.9668 25.5374 38.5303 25.843C36.6852 27.1344 36.7181 27.1074 36.8507 27.2248C36.9835 27.3423 37.2779 27.2374 38.8994 26.4946C39.5146 26.2128 39.9632 25.9497 40.0516 25.819C40.1896 25.6151 40.6218 25.5209 40.7794 25.6605C40.872 25.7424 40.9419 26.3658 40.8659 26.4331C40.8301 26.4648 40.6022 26.5023 40.3594 26.5163C39.878 26.5441 37.1594 27.689 37.0478 27.9109C36.9311 28.143 37.0931 28.1542 37.7857 27.9619C38.1594 27.8582 38.8528 27.7 39.3265 27.6105C39.8001 27.5209 40.2608 27.3862 40.3501 27.3112C40.5598 27.1352 40.9668 27.0868 41.1171 27.2198C41.2812 27.3651 41.2392 27.7833 41.0431 27.9569C40.9424 28.046 40.7208 28.0667 40.4685 28.0103C40.2121 27.953 39.6112 28.0116 38.8682 28.1664C37.6492 28.4203 37.3787 28.5324 37.5723 28.7039C37.7144 28.8296 39.9094 28.8014 40.4681 28.6665C40.9479 28.5507 41.1623 28.6729 41.141 29.0502C41.1182 29.4558 40.7694 29.6154 40.3909 29.3936C40.0571 29.1979 38.4675 29.1163 38.2769 29.2851C38.1031 29.4389 38.4477 29.7981 38.9836 30.0217C39.339 30.17 39.9032 30.5656 40.8177 31.3077C42.2178 32.4437 42.423 32.55 43.3547 32.6209C44.3887 32.6998 45.6593 32.274 46.4324 31.5897C46.8613 31.21 47.415 30.3225 47.5643 29.7757C47.9577 28.3343 47.3926 26.6124 46.1714 25.5315C45.6105 25.035 45.5305 24.825 45.8082 24.5791C45.8998 24.4981 46.0642 24.195 46.1737 23.9056C46.7446 22.3964 46.3111 20.8035 44.9756 19.5039C44.6441 19.1811 44.2676 18.8525 44.1392 18.7737ZM56.7166 30.0154C56.1843 29.7997 55.6811 29.7107 55.4684 29.7945C55.3557 29.839 55.3075 30.0673 55.3266 30.4661C55.3585 31.1267 55.2529 31.513 54.8872 32.0751C54.6581 32.4272 54.6879 32.6419 55.0056 32.9293C55.1601 33.0692 55.4996 32.696 55.5639 32.3154C55.6369 31.8846 55.9779 31.6911 56.2461 31.9285C56.5205 32.1715 56.4434 32.3811 55.9206 32.8128C55.5345 33.1315 55.4546 33.2472 55.4881 33.4393C55.5721 33.9214 55.9023 33.915 56.63 33.417C57.0681 33.1171 57.2398 33.1366 57.3244 33.4956C57.4176 33.8923 57.2506 34.0113 56.5564 34.0425C55.8714 34.0732 55.807 34.1133 55.877 34.465C55.9577 34.8709 56.102 34.9356 56.8713 34.9114C57.5286 34.8907 57.5907 34.9087 57.6923 35.1491C57.8444 35.5091 57.4249 35.8232 57.0972 35.5946C56.4959 35.1752 55.9849 35.1524 55.9849 35.5448C55.9849 35.807 56.0857 35.897 56.4878 35.994C56.8982 36.093 57.7171 36.8179 57.9909 37.3245C58.3434 37.9768 58.3962 37.9925 58.7646 37.5543C59.4251 36.7688 59.6445 35.8038 59.3723 34.8807C59.2634 34.5115 59.0836 34.2389 58.6582 33.7988L58.0897 33.2103L58.1745 32.6565C58.33 31.6418 57.6382 30.3885 56.7166 30.0154ZM53.4912 28.0723C52.3424 27.4783 51.0863 27.6191 50.1439 28.4474C49.1097 29.3565 48.8094 30.6178 49.3688 31.7048C49.7556 32.4567 49.9845 32.647 50.2351 32.4252C50.9198 31.8192 52.7243 31.5551 53.5643 31.9381C53.7904 32.0411 54.0353 32.1278 54.1085 32.1305C54.3494 32.1395 54.7725 31.1535 54.8129 30.4897C54.8344 30.1325 54.7826 29.6504 54.6975 29.4184C54.5262 28.9508 53.9527 28.3109 53.4912 28.0723ZM53.4575 32.4439C52.201 32.0516 50.8396 32.3659 50.148 33.2079C49.782 33.6535 49.491 34.3293 49.5251 34.6541C49.5584 34.9715 49.3956 35.0411 48.3066 35.1749L47.2859 35.3003L46.4349 34.6333C45.9668 34.2666 45.5838 33.9393 45.5837 33.9061C45.5838 33.8728 46.3314 33.5071 47.245 33.0933C48.1587 32.6795 48.9424 32.309 48.9866 32.2699C49.0751 32.1916 48.7632 31.3839 48.6446 31.3839C48.6039 31.3839 48.1605 31.5842 47.6593 31.829C44.6764 33.2862 44.4235 33.3796 43.4224 33.3921C42.9075 33.3986 41.8826 33.5063 41.1449 33.6317C40.0001 33.8261 39.7329 33.9103 39.3227 34.2054C38.6754 34.6713 37.8657 34.9074 36.7885 34.9074C36.073 34.9074 35.5758 34.7443 35.0049 34.4913C34.5009 34.268 34.13 34.2782 33.5719 34.2533C32.5294 34.2069 31.7434 34.0681 30.5894 33.7267C29.65 33.4488 29.3256 33.2872 29.4631 33.1655C29.5018 33.1312 29.7591 33.0281 30.0349 32.9364C30.7636 32.694 32.1029 31.5086 32.3212 30.9128C32.4056 30.6824 32.5046 30.411 32.4643 30.3753C32.4238 30.3395 31.9691 30.3434 31.7019 30.3753C31.2326 30.4312 31.3242 30.52 30.9249 31.0225C30.5904 31.4435 30.4197 31.5769 29.9501 31.8207C28.9443 32.3431 27.7279 32.3708 27.0028 31.8879C26.4641 31.529 24.8227 30.6646 24.2651 30.446C24.0377 30.3568 23.8168 30.253 23.7742 30.2153C23.6443 30.1003 23.9095 29.9406 24.5273 29.7615C25.0754 29.6027 25.4977 29.36 25.3907 29.2653C25.3652 29.2428 24.7204 29.2305 23.9579 29.2381C22.4018 29.2536 21.4321 29.056 19.969 28.4252C19.1212 28.0598 16.1864 27.47 14.9579 26.4292C14.2177 25.8022 12.7201 24.8611 12.6647 24.8857C12.6097 24.91 11.9432 25.6417 11.5296 26.1123C10.8157 26.8825 9.73782 28.3332 9.73782 28.3332C9.18607 29.118 13.1719 29.8357 13.227 29.8829C13.2821 29.9301 17.7364 30.0452 18.2312 30.1388C20.8567 30.6356 25.5063 32.2928 27.658 33.4988C28.4595 33.9479 30.0499 35.0703 30.6922 35.64C32.5146 37.2561 33.774 39.5183 34.1404 41.8333C34.2318 42.4106 34.3181 42.9263 34.3322 42.9791C34.3616 43.0894 36.0305 43.6907 36.3025 43.6889C36.705 43.6862 36.2932 42.8398 35.5827 42.2097C35.2175 41.8857 35.1644 41.7781 35.1375 41.3083C35.1036 40.7167 35.1678 40.6206 35.6972 40.4715C36.1599 40.3412 36.701 40.5377 37.2726 41.0436C37.8125 41.5216 38.5155 41.7597 39.4284 41.7739L40.0584 41.7837L39.8137 41.3702C39.5766 40.9697 39.1299 40.5854 38.1242 39.9167L37.7126 39.6431L38.0509 39.1127C38.5539 38.3248 38.8929 36.5601 38.555 36.4895C38.3792 36.4527 37.6062 36.8812 37.2109 37.2345C37.0244 37.4012 36.7107 37.8362 36.5138 38.2011C36.0924 38.9821 35.9521 39.1212 35.3583 39.3463C34.848 39.54 34.7732 39.501 34.6267 38.9665C34.4705 38.3964 33.9594 37.5645 33.2024 36.6482C32.8348 36.2033 32.4984 35.7802 32.4547 35.708C32.401 35.619 32.7145 35.5745 33.4291 35.5698C35.8677 35.5538 38.3391 35.3115 41.4188 34.7865C43.6624 34.4041 44.175 34.4396 45.2988 35.0552C45.9194 35.3951 46.2413 35.6503 47.1537 36.5262C48.3021 37.6286 48.5872 37.8055 48.8462 37.5762C48.9604 37.4752 48.9196 37.3645 48.6556 37.0594C48.1627 36.4897 48.2172 36.3718 49.0931 36.1131C49.6709 35.9426 49.8465 35.9311 49.9036 36.0604C49.9438 36.1512 50.1244 36.4476 50.3051 36.7192C50.9987 37.762 52.2351 38.1509 53.5746 37.7475C54.2356 37.5484 54.3853 37.4638 54.7195 37.0998C54.9311 36.8694 55.1917 36.4804 55.2988 36.2351C55.9104 34.8351 54.9798 32.9191 53.4575 32.4439ZM56.386 36.3921C55.9373 36.1471 55.8847 36.1636 55.7108 36.6035C55.3131 37.6098 54.1078 38.354 52.7522 38.4304L52.0513 38.4699L52.0961 38.7529C52.2541 39.7523 53.3572 40.8853 54.4552 41.176C55.5787 41.4735 56.7946 41.1692 57.4264 40.4323C58.4823 39.2007 57.9837 37.2649 56.386 36.3921ZM30.776 23.3447C30.6018 23.33 30.171 23.4408 29.8184 23.5908C28.1236 24.3126 27.3849 26.2243 28.1807 27.8298C28.5991 28.6737 29.4954 29.4416 30.408 29.738C31.1275 29.9717 32.5471 30.0154 32.778 29.811C33.0006 29.6139 33.2547 28.2423 33.2064 27.4984C33.122 26.1988 32.5491 24.9367 31.5618 23.8757C31.1703 23.4549 31.0402 23.367 30.776 23.3447ZM39.4239 30.8608C38.4414 30.1948 37.0287 29.7578 35.6848 29.7043C34.7123 29.6657 33.3315 29.8813 33.0701 30.1126C32.8 30.3517 32.9036 31.6292 33.2475 32.3019C33.6591 33.107 34.751 33.9879 35.6908 34.2731C36.4448 34.5021 37.4272 34.4841 38.2338 34.2268C39.2539 33.9012 40.3849 32.7051 40.43 31.904C40.4433 31.6684 40.1186 31.3317 39.4239 30.8608ZM34.5517 27.4717C34.2797 27.4051 33.9833 27.3948 33.8929 27.449C33.7993 27.5051 33.7113 27.8383 33.688 28.2243C33.6656 28.5967 33.6637 28.703 33.6163 28.8805C33.5769 29.0281 33.5432 29.1875 33.5814 29.2989C33.6709 29.4141 33.7309 29.4127 34.1438 29.3417C34.4151 29.2951 34.899 29.2522 35.219 29.2465C35.539 29.2407 35.8349 29.2058 35.8764 29.1691C35.918 29.1322 35.8881 28.8853 35.81 28.6203C35.6321 28.0169 35.2121 27.6336 34.5517 27.4717ZM40.7164 36.2931C40.171 36.1854 39.1051 36.1861 38.9835 36.2942C38.9525 36.3218 38.9304 36.6584 38.9345 37.0421C38.9391 37.4751 38.8209 38.0619 38.6234 38.5874L38.3048 39.435L39.1068 40.1511C39.6759 40.6592 39.957 40.9772 40.0749 41.2464C40.2367 41.616 40.2484 41.6244 40.5292 41.5724C40.6878 41.5431 41.0857 41.3797 41.4136 41.2093C42.5281 40.6302 43.2041 39.419 42.9305 38.4914C42.6672 37.5981 41.8606 37.1682 40.7083 37.3067C39.5767 37.4427 39.5854 37.1546 40.7221 36.8487C41.6384 36.602 41.6372 36.4748 40.7164 36.2931Z" stroke="#665F5F" stroke-width="0.6" mask="url(#path-29-inside-1_4645_2)"/>
<path d="M19.9796 76.2292C18.0599 75.2362 13.6913 73.1433 11.5745 72.7156" stroke="#665F5F" stroke-width="0.3"/>
<path d="M23.6322 73.7072C22.1016 73.0198 17.1157 71.463 10.3293 71.0352" stroke="#665F5F" stroke-width="0.3"/>
<path d="M27.7623 71.1881C24.3379 70.3224 15.8549 68.7591 9.31757 69.4313" stroke="#665F5F" stroke-width="0.3"/>
<path d="M33.0183 68.6266C30.3463 67.7355 21.5613 66.1726 8.11298 67.5781" stroke="#665F5F" stroke-width="0.3"/>
<path d="M43.3021 86.4013C48.4685 79.6561 61.7821 66.1471 73.1577 66.0913" stroke="#665F5F" stroke-width="0.3"/>
<path d="M54.8217 83.5604C56.9072 79.4667 63.4086 70.3801 72.4522 67.4214" stroke="#665F5F" stroke-width="0.3"/>
<path d="M32.7748 85.8494C38.747 78.6389 55.3744 64.3095 73.5185 65.2585" stroke="#665F5F" stroke-width="0.3"/>
<path d="M24.2296 82.953C30.5414 75.4707 49.3229 61.2279 73.9541 64.1159" stroke="#665F5F" stroke-width="0.3"/>
<path d="M17.1999 78.5298C25.1727 71.2888 47.987 58.0842 74.4854 63.0518" stroke="#665F5F" stroke-width="0.3"/>
<path d="M38.0934 66.474C32.1094 65.1847 20.2582 62.9703 7.39618 65.9456" stroke="#665F5F" stroke-width="0.3"/>
<defs>
<linearGradient id="paint0_linear_4645_2" x1="8.45916" y1="67.9316" x2="32.34" y2="69.7823" gradientUnits="userSpaceOnUse">
<stop stop-color="#D0989F"/>
<stop offset="1" stop-color="white" stop-opacity="0"/>
</linearGradient>
<linearGradient id="paint1_linear_4645_2" x1="11.6433" y1="74.0787" x2="19.7178" y2="74.2285" gradientUnits="userSpaceOnUse">
<stop stop-color="#D0989F"/>
<stop offset="1" stop-color="white" stop-opacity="0"/>
</linearGradient>
<linearGradient id="paint2_linear_4645_2" x1="9.3747" y1="70.3341" x2="27.4271" y2="71.3173" gradientUnits="userSpaceOnUse">
<stop stop-color="#D0989F"/>
<stop offset="1" stop-color="white" stop-opacity="0"/>
</linearGradient>
<linearGradient id="paint3_linear_4645_2" x1="7.71065" y1="65.4427" x2="37.2775" y2="68.295" gradientUnits="userSpaceOnUse">
<stop stop-color="#D0989F"/>
<stop offset="1" stop-color="white" stop-opacity="0"/>
</linearGradient>
<linearGradient id="paint4_linear_4645_2" x1="24.7382" y1="69.0425" x2="73.2838" y2="70.5006" gradientUnits="userSpaceOnUse">
<stop stop-color="#D0989F"/>
<stop offset="1" stop-color="white" stop-opacity="0"/>
</linearGradient>
<linearGradient id="paint5_linear_4645_2" x1="17.9455" y1="67.0037" x2="73.6378" y2="69.0163" gradientUnits="userSpaceOnUse">
<stop stop-color="#D0989F"/>
<stop offset="1" stop-color="white" stop-opacity="0"/>
</linearGradient>
<linearGradient id="paint6_linear_4645_2" x1="58.0108" y1="36.9357" x2="55.4251" y2="38.1945" gradientUnits="userSpaceOnUse">
<stop stop-color="#665F5F"/>
<stop offset="1" stop-color="#D9D9D9" stop-opacity="0"/>
</linearGradient>
<linearGradient id="paint7_linear_4645_2" x1="33.3531" y1="70.3137" x2="72.8974" y2="71.3115" gradientUnits="userSpaceOnUse">
<stop stop-color="#D0989F"/>
<stop offset="1" stop-color="white" stop-opacity="0"/>
</linearGradient>
<linearGradient id="paint8_linear_4645_2" x1="55.1103" y1="71.3928" x2="72.156" y2="71.6425" gradientUnits="userSpaceOnUse">
<stop stop-color="#D0989F"/>
<stop offset="1" stop-color="white" stop-opacity="0"/>
</linearGradient>
<linearGradient id="paint9_linear_4645_2" x1="10.3856" y1="72.2476" x2="23.2887" y2="72.6844" gradientUnits="userSpaceOnUse">
<stop stop-color="#D0989F"/>
<stop offset="1" stop-color="white" stop-opacity="0"/>
</linearGradient>
<linearGradient id="paint10_linear_4645_2" x1="43.6795" y1="70.9636" x2="72.7054" y2="71.5291" gradientUnits="userSpaceOnUse">
<stop stop-color="#D0989F"/>
<stop offset="1" stop-color="white" stop-opacity="0"/>
</linearGradient>
<linearGradient id="paint11_linear_4645_2" x1="10.2349" y1="32.6495" x2="54.6342" y2="33.9503" gradientUnits="userSpaceOnUse">
<stop stop-color="#665F5F"/>
<stop offset="1" stop-color="#665F5F" stop-opacity="0"/>
</linearGradient>
<linearGradient id="paint12_linear_4645_2" x1="43.0537" y1="43.0953" x2="38.2871" y2="44.8767" gradientUnits="userSpaceOnUse">
<stop stop-color="#FFD1D7"/>
<stop offset="0.461804" stop-color="#E6B9BF"/>
<stop offset="1" stop-color="#B46E77"/>
</linearGradient>
<linearGradient id="paint13_linear_4645_2" x1="40.537" y1="35.5135" x2="34.5835" y2="39.6071" gradientUnits="userSpaceOnUse">
<stop stop-color="#FFD1D7"/>
<stop offset="0.461804" stop-color="#E6B9BF"/>
<stop offset="1" stop-color="#B46E77"/>
</linearGradient>
<linearGradient id="paint14_linear_4645_2" x1="35.8612" y1="31.4564" x2="33.8442" y2="32.4853" gradientUnits="userSpaceOnUse">
<stop stop-color="#FFD1D7"/>
<stop offset="0.461804" stop-color="#E6B9BF"/>
<stop offset="1" stop-color="#B46E77"/>
</linearGradient>
<linearGradient id="paint15_linear_4645_2" x1="33.3515" y1="29.4982" x2="27.7696" y2="31.4149" gradientUnits="userSpaceOnUse">
<stop stop-color="#FFD1D7"/>
<stop offset="0.461804" stop-color="#E6B9BF"/>
<stop offset="1" stop-color="#B46E77"/>
</linearGradient>
<linearGradient id="paint16_linear_4645_2" x1="54.9184" y1="33.3717" x2="49.5923" y2="36.088" gradientUnits="userSpaceOnUse">
<stop stop-color="#FFD1D7"/>
<stop offset="0.461804" stop-color="#E6B9BF"/>
<stop offset="1" stop-color="#B46E77"/>
</linearGradient>
<linearGradient id="paint17_linear_4645_2" x1="58.111" y1="42.9635" x2="52.6177" y2="45.7592" gradientUnits="userSpaceOnUse">
<stop stop-color="#FFD1D7"/>
<stop offset="0.461804" stop-color="#E6B9BF"/>
<stop offset="1" stop-color="#B46E77"/>
</linearGradient>
<linearGradient id="paint18_linear_4645_2" x1="59.4901" y1="37.455" x2="55.4425" y2="38.5521" gradientUnits="userSpaceOnUse">
<stop stop-color="#FFD1D7"/>
<stop offset="0.461804" stop-color="#E6B9BF"/>
<stop offset="1" stop-color="#B46E77"/>
</linearGradient>
<linearGradient id="paint19_linear_4645_2" x1="40.5408" y1="26.2452" x2="35.552" y2="30.5393" gradientUnits="userSpaceOnUse">
<stop stop-color="#665F5F"/>
<stop offset="1" stop-color="#D9D9D9" stop-opacity="0"/>
</linearGradient>
<linearGradient id="paint20_linear_4645_2" x1="48.2896" y1="27.2862" x2="38.3242" y2="35.666" gradientUnits="userSpaceOnUse">
<stop stop-color="#FFD1D7"/>
<stop offset="0.461804" stop-color="#E6B9BF"/>
<stop offset="1" stop-color="#B46E77"/>
</linearGradient>
<linearGradient id="paint21_linear_4645_2" x1="49.6484" y1="39.2091" x2="55.7427" y2="36.5642" gradientUnits="userSpaceOnUse">
<stop stop-color="#C9C9C9"/>
<stop offset="0.761209" stop-color="#E9BCC2"/>
</linearGradient>
<linearGradient id="paint22_linear_4645_2" x1="53.6532" y1="31.6011" x2="57.476" y2="24.2432" gradientUnits="userSpaceOnUse">
<stop stop-color="#665F5F"/>
<stop offset="1" stop-color="#665F5F" stop-opacity="0"/>
</linearGradient>
<linearGradient id="paint23_linear_4645_2" x1="56.4073" y1="19.7287" x2="57.1308" y2="26.0486" gradientUnits="userSpaceOnUse">
<stop stop-color="#FFD1D7"/>
<stop offset="0.617708" stop-color="#D9ADB2"/>
<stop offset="1" stop-color="#BAB8B8"/>
</linearGradient>
<linearGradient id="paint24_linear_4645_2" x1="67.1528" y1="26.4957" x2="64.0565" y2="27.9144" gradientUnits="userSpaceOnUse">
<stop stop-color="#FFD1D7"/>
<stop offset="0.461804" stop-color="#E6B9BF"/>
<stop offset="1" stop-color="#B46E77"/>
</linearGradient>
</defs>
</svg>
